<svg width="83" height="22" viewBox="0 0 83 22" fill="none" xmlns="http://www.w3.org/2000/svg">
<path d="M11.12 10.78H14.08V18H11.64V17.16C10.6667 17.88 9.41333 18.24 7.88 18.24C6.58667 18.24 5.4 17.96 4.32 17.4C3.24 16.84 2.38 16.0267 1.74 14.96C1.1 13.88 0.78 12.6 0.78 11.12C0.78 9.69333 1.10667 8.42667 1.76 7.32C2.42667 6.2 3.34667 5.32667 4.52 4.7C5.69333 4.07333 7.01333 3.76 8.48 3.76C9.70667 3.76 10.82 3.96667 11.82 4.38C12.82 4.79333 13.66 5.39333 14.34 6.18L12.26 8.1C11.26 7.04667 10.0533 6.52 8.64 6.52C7.74667 6.52 6.95333 6.71333 6.26 7.1C5.56667 7.47333 5.02667 8.00667 4.64 8.7C4.25333 9.39333 4.06 10.1933 4.06 11.1C4.06 12.0467 4.24667 12.8533 4.62 13.52C5.00667 14.1867 5.52 14.6933 6.16 15.04C6.8 15.3733 7.5 15.54 8.26 15.54C9.39333 15.54 10.3467 15.22 11.12 14.58V10.78ZM21.9897 18.16C20.8564 18.16 19.8364 17.9267 18.9297 17.46C18.0364 16.98 17.3364 16.32 16.8297 15.48C16.323 14.64 16.0697 13.6867 16.0697 12.62C16.0697 11.5533 16.323 10.6 16.8297 9.76C17.3364 8.92 18.0364 8.26667 18.9297 7.8C19.8364 7.32 20.8564 7.08 21.9897 7.08C23.123 7.08 24.1364 7.32 25.0297 7.8C25.923 8.26667 26.623 8.92 27.1297 9.76C27.6364 10.6 27.8897 11.5533 27.8897 12.62C27.8897 13.6867 27.6364 14.64 27.1297 15.48C26.623 16.32 25.923 16.98 25.0297 17.46C24.1364 17.9267 23.123 18.16 21.9897 18.16ZM21.9897 15.6C22.7897 15.6 23.443 15.3333 23.9497 14.8C24.4697 14.2533 24.7297 13.5267 24.7297 12.62C24.7297 11.7133 24.4697 10.9933 23.9497 10.46C23.443 9.91333 22.7897 9.64 21.9897 9.64C21.1897 9.64 20.5297 9.91333 20.0097 10.46C19.4897 10.9933 19.2297 11.7133 19.2297 12.62C19.2297 13.5267 19.4897 14.2533 20.0097 14.8C20.5297 15.3333 21.1897 15.6 21.9897 15.6ZM49.4192 7.08C50.7659 7.08 51.8326 7.48 52.6192 8.28C53.4192 9.06667 53.8192 10.2533 53.8192 11.84V18H50.6992V12.32C50.6992 11.4667 50.5192 10.8333 50.1592 10.42C49.8126 9.99333 49.3126 9.78 48.6592 9.78C47.9259 9.78 47.3459 10.02 46.9192 10.5C46.4926 10.9667 46.2792 11.6667 46.2792 12.6V18H43.1592V12.32C43.1592 10.6267 42.4792 9.78 41.1192 9.78C40.3992 9.78 39.8259 10.02 39.3992 10.5C38.9726 10.9667 38.7592 11.6667 38.7592 12.6V18H35.6392V7.24H38.6192V8.48C39.0192 8.02667 39.5059 7.68 40.0792 7.44C40.6659 7.2 41.3059 7.08 41.9992 7.08C42.7592 7.08 43.4459 7.23333 44.0592 7.54C44.6726 7.83333 45.1659 8.26667 45.5392 8.84C45.9792 8.28 46.5326 7.84667 47.1992 7.54C47.8792 7.23333 48.6192 7.08 49.4192 7.08ZM67.653 7.24V18H64.673V16.76C63.8996 17.6933 62.7796 18.16 61.313 18.16C60.2996 18.16 59.3796 17.9333 58.553 17.48C57.7396 17.0267 57.0996 16.38 56.633 15.54C56.1663 14.7 55.933 13.7267 55.933 12.62C55.933 11.5133 56.1663 10.54 56.633 9.7C57.0996 8.86 57.7396 8.21333 58.553 7.76C59.3796 7.30667 60.2996 7.08 61.313 7.08C62.6863 7.08 63.7596 7.51333 64.533 8.38V7.24H67.653ZM61.853 15.6C62.6396 15.6 63.293 15.3333 63.813 14.8C64.333 14.2533 64.593 13.5267 64.593 12.62C64.593 11.7133 64.333 10.9933 63.813 10.46C63.293 9.91333 62.6396 9.64 61.853 9.64C61.053 9.64 60.393 9.91333 59.873 10.46C59.353 10.9933 59.093 11.7133 59.093 12.62C59.093 13.5267 59.353 14.2533 59.873 14.8C60.393 15.3333 61.053 15.6 61.853 15.6ZM76.9016 7.08C77.9016 7.08 78.8082 7.31333 79.6216 7.78C80.4482 8.23333 81.0949 8.88 81.5616 9.72C82.0282 10.5467 82.2616 11.5133 82.2616 12.62C82.2616 13.7267 82.0282 14.7 81.5616 15.54C81.0949 16.3667 80.4482 17.0133 79.6216 17.48C78.8082 17.9333 77.9016 18.16 76.9016 18.16C75.5282 18.16 74.4482 17.7267 73.6616 16.86V21.88H70.5416V7.24H73.5216V8.48C74.2949 7.54667 75.4216 7.08 76.9016 7.08ZM76.3616 15.6C77.1616 15.6 77.8149 15.3333 78.3216 14.8C78.8416 14.2533 79.1016 13.5267 79.1016 12.62C79.1016 11.7133 78.8416 10.9933 78.3216 10.46C77.8149 9.91333 77.1616 9.64 76.3616 9.64C75.5616 9.64 74.9016 9.91333 74.3816 10.46C73.8749 10.9933 73.6216 11.7133 73.6216 12.62C73.6216 13.5267 73.8749 14.2533 74.3816 14.8C74.9016 15.3333 75.5616 15.6 76.3616 15.6Z" fill="white"/>
<path d="M35.9083 3.84387L20 4.8418C27.03 5.40063 30.1875 6.62828 30.5422 14.9724L35.9083 3.84387Z" fill="#FBA72A"/>
</svg>
