<?xml version="1.0" encoding="utf-8"?>
<!-- Generator: Adobe Illustrator 23.1.0, SVG Export Plug-In . SVG Version: 6.00 Build 0)  -->
<svg version="1.1" xmlns="http://www.w3.org/2000/svg" xmlns:xlink="http://www.w3.org/1999/xlink" x="0px" y="0px"
	 viewBox="0 0 654 597" style="enable-background:new 0 0 654 597;" xml:space="preserve">
<style type="text/css">
	
		.st0{fill-rule:evenodd;clip-rule:evenodd;fill:none;stroke:url(#SVGID_1_);stroke-width:4;stroke-linecap:round;stroke-linejoin:round;stroke-miterlimit:10;}
	
		.st1{fill-rule:evenodd;clip-rule:evenodd;fill:none;stroke:url(#SVGID_2_);stroke-width:4;stroke-linecap:round;stroke-linejoin:round;stroke-miterlimit:10;}
	.st2{fill:#363435;}
	
		.st3{fill-rule:evenodd;clip-rule:evenodd;fill:none;stroke:#363435;stroke-width:4;stroke-linecap:round;stroke-linejoin:round;stroke-miterlimit:10;}
	.st4{fill-rule:evenodd;clip-rule:evenodd;fill:none;stroke:#000000;stroke-width:4;stroke-miterlimit:2.6131;}
	.st5{fill:#231F20;}
	.st6{fill:url(#SVGID_3_);}
	.st7{fill:url(#SVGID_4_);}
	.st8{fill:url(#SVGID_5_);}
	.st9{fill:url(#SVGID_6_);}
	.st10{fill:url(#SVGID_7_);}
	.st11{fill:none;stroke:url(#SVGID_8_);stroke-width:4;stroke-linecap:round;stroke-linejoin:round;stroke-miterlimit:10;}
	.st12{fill:none;stroke:url(#SVGID_9_);stroke-width:4;stroke-miterlimit:10;}
	
		.st13{fill-rule:evenodd;clip-rule:evenodd;fill:none;stroke:#000000;stroke-width:4;stroke-linecap:round;stroke-linejoin:round;stroke-miterlimit:10;}
	.st14{fill:none;stroke:url(#SVGID_10_);stroke-width:4;stroke-miterlimit:10;}
	
		.st15{fill-rule:evenodd;clip-rule:evenodd;fill:none;stroke:url(#SVGID_11_);stroke-width:4;stroke-linecap:round;stroke-linejoin:round;stroke-miterlimit:10;}
	.st16{fill:none;stroke:url(#SVGID_12_);stroke-width:4;stroke-miterlimit:10;}
	.st17{fill:none;stroke:url(#SVGID_13_);stroke-width:5;stroke-linecap:round;stroke-linejoin:round;stroke-miterlimit:10;}
	.st18{fill:none;stroke:url(#SVGID_14_);stroke-width:3;stroke-miterlimit:10;}
	
		.st19{fill-rule:evenodd;clip-rule:evenodd;fill:none;stroke:url(#SVGID_15_);stroke-width:4;stroke-linecap:round;stroke-linejoin:round;stroke-miterlimit:10;}
	
		.st20{fill-rule:evenodd;clip-rule:evenodd;fill:none;stroke:url(#SVGID_16_);stroke-width:4;stroke-linecap:round;stroke-linejoin:round;stroke-miterlimit:10;}
	.st21{fill:none;stroke:url(#SVGID_17_);stroke-width:3;stroke-miterlimit:10;}
	
		.st22{fill-rule:evenodd;clip-rule:evenodd;fill:none;stroke:url(#SVGID_18_);stroke-width:4;stroke-linecap:round;stroke-linejoin:round;stroke-miterlimit:10;}
	
		.st23{fill-rule:evenodd;clip-rule:evenodd;fill:none;stroke:url(#SVGID_19_);stroke-width:4;stroke-linecap:round;stroke-linejoin:round;stroke-miterlimit:10;}
	
		.st24{fill-rule:evenodd;clip-rule:evenodd;fill:none;stroke:url(#SVGID_20_);stroke-width:2.2;stroke-linecap:round;stroke-linejoin:round;stroke-miterlimit:10;}
	.st25{fill:url(#SVGID_21_);}
	.st26{fill:none;stroke:url(#SVGID_22_);stroke-width:4;stroke-miterlimit:10;}
	
		.st27{fill-rule:evenodd;clip-rule:evenodd;fill:none;stroke:url(#SVGID_23_);stroke-width:4;stroke-linecap:round;stroke-linejoin:round;stroke-miterlimit:10;}
	.st28{fill:none;stroke:url(#SVGID_24_);stroke-width:5;stroke-linecap:round;stroke-linejoin:round;stroke-miterlimit:10;}
	.st29{fill:none;stroke:url(#SVGID_25_);stroke-width:3;stroke-miterlimit:10;}
	
		.st30{fill-rule:evenodd;clip-rule:evenodd;fill:none;stroke:url(#SVGID_26_);stroke-width:4;stroke-linecap:round;stroke-linejoin:round;stroke-miterlimit:10;}
	
		.st31{fill-rule:evenodd;clip-rule:evenodd;fill:none;stroke:url(#SVGID_27_);stroke-width:4;stroke-linecap:round;stroke-linejoin:round;stroke-miterlimit:10;}
	
		.st32{fill-rule:evenodd;clip-rule:evenodd;fill:none;stroke:url(#SVGID_28_);stroke-width:2.2;stroke-linecap:round;stroke-linejoin:round;stroke-miterlimit:10;}
	.st33{fill:url(#SVGID_29_);}
</style>
<g id="Layer_2">
</g>
<g id="Layer_1">
	<linearGradient id="SVGID_1_" gradientUnits="userSpaceOnUse" x1="346.8326" y1="92.1408" x2="346.8326" y2="511.957">
		<stop  offset="0" style="stop-color:#00A6D1"/>
		<stop  offset="1" style="stop-color:#005970"/>
	</linearGradient>
	<path style="fill:url(#SVGID_1_);" d="M145.67,511.96c-0.54,0-1.08-0.22-1.47-0.64c-30.11-32.62-30.31-64.23-30.44-83.12
		c-0.02-3.59-0.04-6.69-0.26-9.26c-0.63-7.47-1.55-18.29-3.64-27.96c-5.16-1.19-9.74-2.53-13.42-4.06
		c-3.63-1.51-6.03-5.55-6.25-10.54c-0.21-4.66,1.52-8.65,4.41-10.18c1.7-0.9,4.51-1.38,8.26,1.43c5.01,3.76,8.22,11.34,10.34,19.99
		c14.35,3.05,32.83,5.07,47.92,6.67c-2.43-12.13-5.8-31.93-7.04-53.41c-1.01-17.51-0.88-42.25,5.48-60.63
		c2.27-6.56,5.35-12.38,9.28-17.51c-1-3.93-1.6-7.83-1.73-11.42c-0.75-21.16,0.63-58.37,18.31-69.79c4.64-3,3.79-8.14,0.99-15
		c-6.72,7.53-12.07,10.55-16.3,9.25c-6.16-1.91-8.27-12.11-6.46-31.2c1.44-15.14,7.02-23.72,16.58-25.5
		c8.91-1.66,19.33,3.27,27.27,9.03c1.43-2.49,2.91-5.11,4.44-7.88c9.06-16.38,24.28-26.55,41.75-27.91
		c16.2-1.25,32.03,5.37,41.3,17.3c4.87,6.26,6.51,15.77,5.93,23.85c0.7,0.05,1.39,0.21,2.06,0.47c2.88,1.13,4.95,4.2,5.4,7.99
		c0.46,3.81-0.69,8.33-1.8,12.69c-0.69,2.72-1.35,5.28-1.61,7.58c-0.64,5.57,1.04,9.57,3.48,14.62l0.57,1.17
		c2.72,5.59,5.07,10.41,3.43,13.36c-1.44,2.59-4.99,2.53-8.12,2.47c-1.09-0.02-2.11-0.04-2.85,0.06c-1.47,0.18-1.7,0.65-1.65,1.94
		c0.02,0.49,0.1,1.01,0.18,1.56c0.21,1.41,0.45,3.01-0.3,4.47c-0.67,1.29-1.89,2.06-2.96,2.74c-0.47,0.3-0.96,0.6-1.22,0.86
		c-0.43,0.41-0.55,1.01-0.53,2.79l0.02,0.98c0.04,1.82,0.08,4.09-0.26,6.7c-0.25,1.9-0.99,7.68-5.75,8.51
		c-0.71,0.12-1.62,0.1-2.88,0.08c-6.13-0.12-12.14,0.29-12.51,6.67c-0.47,7.92-0.15,14.02,0.14,19.4c0.1,1.85,0.19,3.59,0.24,5.22
		c0.02,0.85,0.03,1.67,0.01,2.47c7.03,1.9,14.56,7.43,20.14,15.19c2.36,3.29,4.41,7.03,6.26,10.73c2.92-3.86,6.58-7.24,10.15-10.54
		c4-3.7,7.78-7.19,10.18-11.02c3.75-5.96,4.31-13.17,4.86-20.14c0.2-2.49,0.4-5.07,0.74-7.55c0.32-2.29,0.51-6.05,0.73-10.41
		c0.71-14.03,1.67-33.24,7.94-41.98c2.83-3.94,5.66-4.06,7.53-3.47c7.3,2.31,11.38,20.06,11.44,26.81
		c0.04,5.22-0.79,11.19-1.58,16.97c-0.72,5.2-1.4,10.1-1.36,13.88c0.01,1.02,0.07,1.94,0.17,2.76c2.7-4.73,6.18-7.11,8.71-7.31
		c1.51-0.11,2.8,0.52,3.47,1.72c1.91,3.44-2.49,11.92-6.57,14.25c-1.61,0.92-3.3,1.05-4.83,0.39c-0.99,3.94-1.65,8.65-2.34,13.56
		c-0.79,5.66-1.61,11.51-3.02,16.45c-3.18,11.13-9.38,17.55-15.61,22.83c-2.08,1.76-5.5,4.67-9.37,6.42
		c3.01,8.95,4.98,20.96,6.07,36.77c0.88,12.87,1.1,26.84,1.29,39.16c0.1,6.12,0.19,11.9,0.35,17.14c0.65,21.3,2.35,26.22,3.11,27.36
		c1.03-0.67,3-3.36,4.47-5.38c1.13-1.54,2.4-3.28,3.77-4.94c1.78-2.17,3.75-4.25,5.51-6.09c-0.59-5.63-0.12-9.47,1.4-11.45
		c1.42-1.86,3.92-2.41,6.06-1.33c2.27,1.13,3.31,3.59,2.61,6.12c-0.67,2.41-2.93,4.96-5.87,8.06c0.18,1.37,0.43,2.87,0.75,4.53
		c0.23,1.2,0.49,2.41,0.75,3.63c1.33,6.27,2.71,12.75,1.02,19.2c-2.17,8.3-9.26,15.48-19.95,20.23c-5.53,2.45-12.11,4.34-18.48,6.17
		c-2.74,0.79-5.42,1.56-7.88,2.33c0.98,4.11,0.72,7.82-0.87,10.63c-1.4,2.46-3.89,4.23-6.85,4.88c-2.69,0.58-5.41,0.13-7.27-1.21
		c-1.81-1.31-2.79-3.43-2.62-5.67c0.15-1.99,1.37-5.83,7.79-9.1c1.4-0.71,3.02-1.39,4.8-2.04c-0.77-1.89-1.84-3.92-3.26-6.03
		c-1.49-2.22-3.39-4.54-5.39-7c-4.89-5.99-10.98-13.45-15.19-24.25c-6.16-15.8-8.17-37.83-5.1-56.14
		c1.99-11.9,6.22-22.73,9.95-32.29c2.22-5.69,4.32-11.07,5.81-16.23c1.57-5.43,2.47-10.64,3.35-15.67
		c1.31-7.52,2.54-14.64,5.85-20.73c-2.62-0.52-5.39-0.62-8.26-0.26c-8.45,1.03-16.68,5.88-24.46,14.42
		c-7.71,8.46-13.97,19.54-17.16,30.4c-3.55,12.1-3.4,24.53,0.53,42.88c3.85,17.98,11.6,42.65,17.25,60.66l3.09,9.86
		c5,16.02,7.75,24.84,11.96,31.37c4.88,7.58,10.91,10.91,18.42,10.14c8.96-0.9,20.81-7.75,31.21-14.35
		c1.91-1.21,3.83-2.45,5.74-3.68c10.02-6.48,19.49-12.6,27.73-14.73c1.51-0.39,2.98-0.64,4.39-0.77c-0.17-1.62-0.25-3.29-0.24-5
		c0.02-2.47,0.24-4.94,0.64-7.37c-3.37-1.53-6.46-3.77-8.64-6.51c-5.23-6.58-4.45-15.83,1.99-23.56c4.46-5.35,11.44-9.8,17.61-13.73
		c2.06-1.32,4.01-2.56,5.71-3.73c1.31-0.91,2.46-1.78,3.54-2.62c-2.35-0.54-4.64-1.06-6.88-1.57c-9.9-2.25-18.45-4.2-25.17-5.99
		c-10.67-2.84-14.52-4.71-15.22-7.43c-0.19-0.72-0.29-2.14,1.17-3.55c2.64-2.55,10.37-4.85,22.77-8.38l3.86-1.1
		c5.13-1.48,10.42-3.05,15.51-4.56c6.77-2.01,13.16-3.9,18.4-5.35c3.19-0.88,5.93-1.6,8.35-2.22c3.45-0.9,6.17-1.6,8.5-2.37
		c-0.63-3.2-0.24-7.55,0.95-13.74c3.42-17.9,13.34-52.37,17.44-66.36c5.42-18.51,7.53-22.87,28.88-22.43
		c21.26,0.43,62.19,5.26,82.99,8.2c23.08,3.27,31.38,5.36,33.99,16.03c2.06,8.42,0.72,22.27-4.49,46.32
		c-0.7,3.24-1.47,7.44-2.37,12.31c-2.18,11.89-4.41,23.33-7,32.9c9.73-3.71,21.31-4.73,32.11,0.77c0.98,0.5,1.38,1.71,0.88,2.69
		c-0.5,0.98-1.7,1.38-2.69,0.88c-10.64-5.42-22.37-3.63-31.72,0.6c-3.18,10.33-6.92,17.79-11.72,20.14
		c-2.29,1.13-4.77,1.06-7.17-0.18c-2.17-1.12-3.69-3.85-1.48-8.16c2.38-4.63,8.76-10.52,17.07-14.66c3.33-11.39,5.9-25.41,7.79-35.7
		c0.9-4.9,1.68-9.13,2.39-12.44c3.37-15.56,6.92-34.67,4.51-44.53c-1.85-7.56-6.72-9.63-30.67-13.02
		c-20.71-2.93-61.42-7.74-82.51-8.17c-19.12-0.39-19.9,2.27-24.96,19.55c-4.09,13.93-13.96,48.25-17.35,65.99
		c-1.03,5.38-1.45,8.99-1.07,11.54c0.56-0.25,1.11-0.5,1.64-0.74c2.97-1.36,6.04-2.76,10.27-3.02c2.77-0.17,6,0.15,9.13,0.47
		c3.08,0.31,6.27,0.63,8.77,0.43c0,0,0.01,0,0.01,0c-0.82-0.19-1.61-0.38-2.38-0.56c-8.69-2.11-13.47-3.92-15.47-7.92
		c-1.88-3.76-0.85-8.62,1.2-18.3l0.27-1.26c0.51-2.39,1.07-5.07,1.66-7.91c1.94-9.29,4.15-19.83,5.96-27.65
		c2.63-11.36,4.28-16.13,6.53-18.9c2.97-3.66,6.92-3.29,14.84-2.19c1.45,0.2,3.07,0.44,4.86,0.7c8.59,1.25,20.36,2.96,34.87,4.04
		c10.99,0.81,23.25,1.24,34.08,1.62c6.54,0.23,12.19,0.42,16.55,0.67c10.96,0.62,15.09,1.56,14.98,8.98
		c-0.08,5.39-1.81,14.91-5.13,28.28c-2.49,10.01-5.83,22-8.78,32.59c-0.85,3.06-1.68,6.02-2.44,8.79l-1.1,4.01
		c-2.87,10.43-4.94,17.96-7.08,22.02c-2.94,5.57-6.51,5.24-14.32,4.49c-6.6-0.63-20.34-1.93-40.08-5.26
		c-18.05-3.05-42.64-8.05-57.19-11.65c-7.25-1.79-11.69-3.34-13.93-6.55c-2.5,0.83-5.36,1.58-9.01,2.52
		c-2.41,0.63-5.14,1.33-8.29,2.21c-5.21,1.44-11.58,3.33-18.33,5.33c-5.1,1.51-10.39,3.08-15.54,4.57l-3.86,1.11
		c-9.15,2.61-18.6,5.3-20.93,7.28c0.83,0.72,3.57,2.09,12.15,4.38c6.65,1.77,15.17,3.71,25.03,5.95c3.2,0.73,6.53,1.48,9.96,2.27
		c2.7-2.16,5.48-4.2,9.48-6.06c7.34-3.42,18.92-6.31,29.4-4.16c10.42,2.14,19.77,9.18,22.8,14.76c0.16,0.3,0.3,0.59,0.42,0.87
		c6.56-1.69,16.22-3.38,24.94-4.9c2.77-0.48,5.46-0.95,7.96-1.4c2.58-0.47,4.96-0.92,7.17-1.34c8.33-1.58,14.35-2.72,20.58-2.79
		c8.32-0.07,16.43,1.74,19.86,2.99c1.11,0.4,3.41,1.24,3.34,3.33c-0.08,2.25-2.53,3.34-9.86,5.46c-8,2.32-22,5.8-33.25,8.61
		l-7.08,1.77c-9.99,2.5-14.12,3.54-19.31,3.54c-5.75,0-12.65-1.37-24.19-4.06c-5.76-1.34-12.89-3.08-20.44-4.91
		c-8.79-2.13-17.88-4.34-26.62-6.38c-1.42-0.33-2.82-0.66-4.21-0.98c-1.85,1.5-3.77,3.05-6.23,4.76c-1.76,1.22-3.74,2.49-5.84,3.82
		c-5.92,3.77-12.63,8.05-16.68,12.92c-5.25,6.31-6,13.4-1.93,18.51c1.56,1.97,3.85,3.66,6.37,4.92c1.94-7.58,5.68-14.56,10.76-19.8
		c8.83-9.1,22.26-14.25,31.66-15.33c8.06-0.92,13.46,1.11,15.64,3.13c1.34,1.24,1.59,2.46,1.56,3.27
		c-0.13,3.57-5.07,4.97-12.56,7.08l-1.5,0.42c-6.95,1.98-13.53,4.16-17.67,9.1c-1.59,1.9-2.91,4.32-4.18,6.67
		c-2.39,4.41-4.86,8.96-9.45,10.83c-3.17,1.3-7.27,1.22-11.3,0.09c-0.29,1.98-0.45,4-0.47,6.01c-0.01,1.74,0.08,3.38,0.25,4.92
		c6.21,0.45,10.8,3.37,12.29,7c1.14,2.79,0.39,6.09-1.86,8.21c-1.93,1.82-4.52,2.29-6.75,1.22c-3.23-1.54-5.81-6.29-7.08-12.42
		c-1.26,0.1-2.6,0.32-4,0.69c-7.61,1.97-17.25,8.2-26.56,14.22c-1.92,1.24-3.84,2.49-5.77,3.7c-10.8,6.84-23.17,13.97-32.96,14.95
		c-9.03,0.91-16.48-3.12-22.18-11.96c-4.5-6.98-7.31-15.99-12.42-32.35l-3.08-9.85c-5.68-18.09-13.46-42.86-17.35-61.02
		c-4.08-19.06-4.21-32.06-0.45-44.85c3.4-11.59,9.81-22.94,18.04-31.97c8.45-9.27,17.51-14.55,26.93-15.7
		c2.41-0.29,4.75-0.32,7.02-0.08c-1.53-2.94-3.16-5.78-5-8.35c-4.83-6.73-11.36-11.68-17.3-13.49c-0.64,3.28-2.1,6.13-5.08,8.63
		c-2.99,2.5-8.84,5.59-12.48,4.63c-1.3-0.34-2.26-1.17-2.7-2.35c-0.66-1.73-0.17-4.25,1.35-6.92c0.96-1.7,4.65-7.33,11.55-8.53
		c1.21-0.21,2.48-0.27,3.79-0.18c0-0.53,0-1.09-0.02-1.67c-0.05-1.61-0.14-3.31-0.23-5.13c-0.27-5.21-0.61-11.7-0.13-19.84
		c0.63-10.76,11.81-10.53,16.58-10.43c0.84,0.02,1.79,0.04,2.11-0.02c1.23-0.21,2.06-1.92,2.46-5.08c0.3-2.31,0.26-4.42,0.23-6.11
		l-0.02-1.02c-0.02-2.19,0.09-4.13,1.76-5.72c0.56-0.53,1.22-0.95,1.85-1.35c0.55-0.35,1.38-0.87,1.54-1.19
		c0.16-0.31,0.01-1.32-0.1-2.05c-0.09-0.6-0.19-1.29-0.22-1.99c-0.14-3.48,1.68-5.64,5.15-6.08c1.03-0.13,2.19-0.11,3.42-0.09
		c1.32,0.02,4.08,0.07,4.57-0.44c0.55-1.23-2.12-6.7-3.55-9.65l-0.57-1.18c-2.65-5.47-4.61-10.19-3.85-16.81
		c0.29-2.57,1.01-5.39,1.71-8.12c1.02-4.01,2.08-8.16,1.71-11.23c-0.28-2.33-1.39-4.15-2.9-4.75c-0.36-0.14-0.73-0.18-1.08-0.2
		c-0.19,1.06-0.42,2.08-0.68,3.03c-2.48,8.89-7.91,18.01-10.95,21.96c-1.82,2.36-3.79,4.4-5.85,3.34c-2.23-1.14-1.47-4.37-0.6-7.3
		c1.6-5.36,6.75-17.96,12.41-22.73c0.67-0.57,1.36-1.03,2.06-1.39c0.78-7.54-0.65-16.71-5-22.3c-8.46-10.88-22.96-16.92-37.83-15.76
		c-16.11,1.25-30.16,10.68-38.56,25.86c-1.62,2.92-3.2,5.72-4.74,8.41c4.44,3.65,7.71,7.3,8.85,9.58c1.24,2.48,0.37,3.82-0.26,4.4
		c-1.62,1.49-4.57,1.34-13.7-4.23c-0.16-0.1-0.32-0.19-0.48-0.29c-5.84,9.59-11.12,17.31-15.78,23.08
		c3.46,7.86,6.21,16.67-1.72,21.79c-16.62,10.73-17.07,49.93-16.48,66.28c0.09,2.5,0.42,5.11,0.95,7.72
		c4.74-5.18,10.49-9.58,17.32-13.25c5.26-2.83,10.84-5.08,16.75-7.47c8.76-3.54,17.81-7.2,26.02-12.95c2.4-1.68,4.81-3.61,7.21-5.76
		c-0.7-9.46,0.38-17.69,3.23-24.87c5.78-14.55,19.79-27.25,26.42-28.72c2.7-0.59,4.08,0.63,4.67,1.42
		c3.2,4.28-2.43,15.96-6.07,22.54c-6.54,11.81-15.14,22.89-24.1,31.25c0.48,4.84,1.42,10.02,2.84,15.59
		c0.36,1.4,0.72,2.73,1.07,4.02c2.68,9.87,4.79,17.66-3.73,24.8c-3.92,3.28-9.94,6.28-16.9,9.75c-8.57,4.27-18.27,9.11-25.6,15.4
		c-3.83,3.29-8.24,3.98-12.77,2c-7.72-3.38-14.4-13.88-18.14-25.05c-2.86,4.19-5.16,8.83-6.93,13.95
		c-4.87,14.06-6.69,34.49-5.27,59.09c1.27,21.99,4.8,42.21,7.22,54.08c12.53,1.33,22.33,2.41,26.31,3.74
		c10.91,3.66,10.79,9.53,10.65,16.32c-0.02,0.85-0.04,1.75-0.04,2.68c0,12,2.97,20.45,8.82,25.12c4.98,3.97,13.05,5.9,20.18,7.59
		c3.94,0.94,7.65,1.82,10.71,2.99c6.04,2.3,9.75,5.81,9.94,9.38c0.12,2.23-1.17,4.2-3.53,5.4c-5.55,2.82-18.17,2.19-28.73-1.45
		c-10.73-3.69-19.58-10.72-26.7-16.37c-7.06-5.6-14.37-11.4-19.49-19.03c-4.77-7.11-7.83-15.79-11.3-32
		c-0.05-0.23-0.1-0.47-0.15-0.71c-15.49-1.63-33.38-3.55-47.81-6.48c1.86,9.25,2.7,19.16,3.34,26.69c0.23,2.72,0.25,5.9,0.27,9.57
		c0.12,18.31,0.31,48.95,29.38,80.43c0.75,0.81,0.7,2.08-0.11,2.83C146.64,511.78,146.15,511.96,145.67,511.96z M302.77,470.58
		c-1.57,0.57-2.98,1.16-4.18,1.78c-3.37,1.72-5.47,3.91-5.62,5.85c-0.07,0.87,0.28,1.62,0.98,2.12c0.94,0.68,2.51,0.89,4.08,0.55
		c1.85-0.4,3.39-1.47,4.23-2.94C303.16,476.32,303.45,473.76,302.77,470.58z M372.75,458.4c1.15,4.82,3.11,7.98,4.69,8.73
		c1,0.48,1.86-0.12,2.29-0.52c0.85-0.8,1.49-2.33,0.9-3.79C379.83,460.88,376.96,458.95,372.75,458.4z M166.15,398.83
		c3.3,15.3,6.19,23.47,10.59,30.04c4.77,7.11,11.51,12.46,18.65,18.12c7.24,5.74,15.44,12.25,25.52,15.72
		c10.15,3.49,21.65,3.68,25.62,1.67c0.93-0.47,1.38-1.02,1.35-1.62c-0.08-1.5-2.42-3.97-7.37-5.86c-2.82-1.07-6.41-1.93-10.22-2.83
		c-7.53-1.79-16.07-3.82-21.75-8.36c-6.85-5.47-10.33-14.97-10.33-28.25c0-0.96,0.02-1.88,0.04-2.76c0.14-6.67,0.2-9.72-7.92-12.45
		C186.88,401.09,177.44,400.03,166.15,398.83z M300,292.59c-2.2,5-3.2,10.75-4.32,17.25c-0.89,5.14-1.81,10.45-3.44,16.1
		c-1.54,5.33-3.67,10.79-5.93,16.57c-3.84,9.83-7.81,20-9.73,31.49c-2.95,17.65-1.04,38.85,4.88,54.03
		c3.98,10.21,9.6,17.1,14.56,23.17c2.07,2.53,4.02,4.92,5.61,7.29c1.58,2.34,2.83,4.7,3.74,6.99c2.51-0.8,5.22-1.57,7.99-2.37
		c6.24-1.79,12.69-3.64,17.96-5.98c9.56-4.24,15.84-10.48,17.7-17.58c1.45-5.53,0.17-11.54-1.07-17.35
		c-0.26-1.24-0.53-2.47-0.76-3.7c-0.11-0.55-0.21-1.09-0.3-1.62c-1.07,1.16-2.14,2.34-3.15,3.57c-1.29,1.57-2.48,3.2-3.63,4.76
		c-2.91,3.97-5.01,6.83-7.48,7.11c-0.96,0.11-1.87-0.18-2.63-0.83c-2.01-1.74-3.98-6.64-4.7-30.51c-0.16-5.28-0.25-11.07-0.35-17.2
		c-0.19-12.27-0.41-26.19-1.28-38.95c-1.07-15.53-2.97-27.23-5.86-35.79c-3.06,0.6-6.22,0.14-9.09-2.37
		C305.48,303.85,302.9,298.66,300,292.59z M373.03,439.39c3.31,0.99,6.63,1.16,9.01,0.19c3.27-1.33,5.29-5.07,7.44-9.04
		c1.37-2.52,2.78-5.13,4.63-7.34c4.87-5.81,12.07-8.23,19.64-10.38l1.51-0.43c3.58-1.01,8.39-2.36,9.53-3.41
		c-0.89-1.1-5.36-3.07-12.64-2.23c-8.4,0.96-21.14,5.79-29.24,14.14C378.2,425.76,374.76,432.29,373.03,439.39z M351.36,402.48
		c-0.2,0-0.43,0.07-0.61,0.31c-0.49,0.64-0.85,2.25-0.82,4.97c1.26-1.46,2.19-2.74,2.46-3.7c0.25-0.91-0.23-1.31-0.54-1.46
		C351.76,402.56,351.58,402.48,351.36,402.48z M452.26,402.82c8.43,1.85,12.9,2.48,16.8,2.48c4.7,0,8.69-1,18.34-3.42l7.09-1.77
		c10.63-2.65,25.18-6.27,33.11-8.57c2.34-0.68,3.94-1.2,5.04-1.59c-3.58-1.08-10.39-2.41-17.23-2.34
		c-5.88,0.06-11.75,1.17-19.88,2.71c-2.22,0.42-4.61,0.87-7.21,1.34c-2.5,0.45-5.21,0.92-7.98,1.41c-8.81,1.54-18.6,3.24-24.94,4.91
		c-0.11,1.03-0.45,1.84-0.74,2.37C454.09,401.37,453.26,402.21,452.26,402.82z M397.66,389.81c0.35,0.08,0.71,0.17,1.07,0.25
		c8.75,2.04,17.85,4.25,26.65,6.39c6.91,1.68,13.46,3.27,18.93,4.55c-0.33-2.27,1.86-4.23,6.52-5.82c0,0,0,0,0,0
		c-0.02-0.03-0.03-0.07-0.05-0.1c-2.21-4.07-10.42-10.76-20.09-12.75c-9.53-1.95-20.15,0.72-26.91,3.87
		C401.35,387.33,399.43,388.52,397.66,389.81z M97.4,369.5c-0.33,0-0.65,0.07-0.94,0.22c-1.46,0.77-2.42,3.49-2.28,6.46
		c0.12,2.69,1.19,5.95,3.8,7.04c2.99,1.24,6.67,2.37,10.82,3.38c-1.89-7-4.54-12.93-8.35-15.79C99.58,370.17,98.44,369.5,97.4,369.5
		z M563.83,370.12c-5.74,3.44-10.04,7.63-11.77,10.99c-0.54,1.04-1.01,2.38-0.24,2.78c1.28,0.66,2.42,0.71,3.57,0.14
		C558.58,382.47,561.38,377.16,563.83,370.12z M345.19,376.3L345.19,376.3L345.19,376.3z M425.38,351.49
		c1.9,1.96,5.4,2.83,10.93,4.2c14.48,3.57,38.94,8.56,56.9,11.59c19.6,3.31,33.24,4.6,39.79,5.22c8.14,0.77,8.82,0.62,10.4-2.38
		c1.94-3.67,3.96-11.02,6.76-21.21l1.1-4.01c0.77-2.78,1.59-5.74,2.45-8.8c2.94-10.56,6.28-22.52,8.75-32.48
		c3.2-12.9,4.94-22.36,5.02-27.38c0.05-3.46,0.06-4.29-11.21-4.93c-4.32-0.25-9.95-0.44-16.46-0.67
		c-10.86-0.38-23.17-0.81-34.23-1.63c-14.66-1.08-26.5-2.81-35.15-4.07c-1.78-0.26-3.39-0.49-4.83-0.69
		c-8.39-1.16-9.85-0.9-11.19,0.75c-2.02,2.49-3.69,8.46-5.74,17.28c-1.81,7.78-4,18.29-5.94,27.56c-0.59,2.84-1.16,5.52-1.66,7.92
		l-0.27,1.26c-1.8,8.49-2.79,13.17-1.54,15.68c1.29,2.58,5.68,4.09,12.84,5.83c2.65,0.64,5.62,1.3,8.87,1.97
		c0.55-0.31,1.1-0.64,1.65-0.97c0.64-0.38,1.29-0.77,1.94-1.13c2.28-1.27,4.63-2.31,7.13-3.4c1.43-0.63,2.91-1.28,4.36-1.97
		c0.81-0.39,1.62-0.79,2.4-1.2c-6.2-9.17-0.14-21.63,3.21-28.52c0.47-0.97,0.92-1.88,1.26-2.64c-3.05-8.17-5.43-17.53-2.36-23.57
		c1.44-2.82,3.9-4.64,7.33-5.41c20.5-4.59,30.42,1.25,34.52,5.14c5.6,5.32,5.9,13.75,3.3,19.32c-2.17,4.66-6.34,7.19-10.02,9.42
		c-0.68,0.41-1.36,0.82-2.01,1.24c-0.75,0.48-1.44,0.95-2.07,1.4c-0.42,5.27-2.01,8.69-4.5,9.66c-1.4,0.54-2.9,0.23-3.93-0.81
		c-1.18-1.2-1.44-3.08-0.7-4.92c0.86-2.11,3.09-4.28,5.23-5.99c0.14-5.26-0.82-11.74-3.04-14.85c-2.34-3.28-6.4-2.8-9.42-1.26
		c-3.74,1.91-6.73,5.71-7.81,9.92c-0.06,0.23-0.13,0.47-0.22,0.72c1.13,2.92,2.28,5.59,3.16,7.63c2.07,4.79,2.5,5.85,2.07,7
		c-0.51,1.37-1.38,2.34-2.01,3.06c-0.17,0.19-0.37,0.42-0.51,0.59c0.14,0.26,0.42,0.66,0.61,0.91c0.34,0.47,0.7,0.97,0.95,1.51
		c1.01,2.18-0.19,3.89-0.59,4.45l-0.25,0.34c-0.1,0.13-0.22,0.29-0.25,0.35l0.02,0.01c-0.1,1.14-0.47,2.43-2.5,4.1
		c-0.79,0.65-1.9,1.42-3.22,2.23c2.67,2.56,3.97,2.82,4.46,2.82c0.6-0.03,1.12-0.66,1.9-1.69c0.62-0.81,1.25-1.66,2.17-2.2
		c0.61-0.36,1.19-0.78,1.75-1.19c1.63-1.18,4.34-3.15,6.7-0.68c1.03,1.09,1.76,2.91,2.77,5.44c0.88,2.2,1.98,4.93,3.48,7.55
		c1.27,2.2,2.8,4.28,4.5,6.16c6.83,1.12,12.97,2.25,17.2,3.38c6.48,1.73,9.37,3.63,9.39,6.16c0,0.77-0.31,2.64-3.39,3.51
		c-3.62,1.02-10.52,0.37-16.69-2.85c-3.01-1.57-5.92-3.8-8.52-6.47c-4.33-0.7-8.92-1.39-13.45-2.08c-3.65-0.55-7.27-1.1-10.72-1.64
		c-9.23-1.45-17.58-2.93-24.68-4.37c-2.14,1.09-4.62,2.01-7.76,2.26c-2.85,0.22-6.22-0.12-9.48-0.44c-2.97-0.3-6.04-0.61-8.48-0.46
		c-3.49,0.21-5.97,1.35-8.85,2.67C426.49,351,425.94,351.24,425.38,351.49z M518.13,356.11c0.88,0.61,1.78,1.16,2.68,1.63
		c5.25,2.74,10.81,3.18,13.39,2.64c-0.88-0.5-2.53-1.23-5.58-2.04C525.87,357.6,522.25,356.85,518.13,356.11z M466.91,343.69
		c5.98,1.14,12.7,2.3,19.98,3.45c3.44,0.54,7.06,1.09,10.7,1.64c2.99,0.45,6.01,0.91,8.97,1.37c-0.74-1.04-1.43-2.12-2.07-3.23
		c-1.65-2.86-2.8-5.74-3.73-8.06c-0.67-1.67-1.36-3.38-1.85-4.04c-0.4,0.19-1.08,0.68-1.55,1.03c-0.61,0.44-1.29,0.94-2.06,1.39
		c-0.24,0.15-0.68,0.72-1.02,1.17c-0.95,1.26-2.39,3.17-4.91,3.28c-2.35,0.1-4.94-1.37-8.24-4.75c-1.07,0.58-2.19,1.15-3.33,1.69
		c-1.51,0.72-3.02,1.39-4.48,2.03C471.05,341.67,468.91,342.61,466.91,343.69z M484.94,307.74c-3.23,6.67-8.01,17.08-2.97,24.13
		c1.44-0.86,2.63-1.66,3.41-2.31c1.01-0.84,1.04-1.14,1.06-1.36c0.01-0.11,0.02-0.22,0.03-0.32c0.14-0.98,0.61-1.61,0.99-2.1
		l0.19-0.26c0.19-0.27,0.23-0.37,0.24-0.41c-0.11-0.23-0.36-0.57-0.58-0.88c-0.69-0.95-1.63-2.25-1.4-3.8
		c0.16-1.15,0.9-1.97,1.55-2.71c0.41-0.46,0.8-0.91,1.07-1.41c-0.27-0.83-1.08-2.72-1.81-4.4
		C486.17,310.63,485.56,309.23,484.94,307.74z M488.61,316.63L488.61,316.63L488.61,316.63z M499.78,286.85
		c3.28,0,6.2,1.42,8.15,4.14c2.63,3.67,3.56,9.64,3.75,14.35c0.63-0.4,1.28-0.79,1.94-1.19c3.5-2.12,6.81-4.13,8.47-7.69
		c1.95-4.17,1.76-10.75-2.43-14.73c-2.83-2.69-11.51-8.47-30.89-4.14c-2.24,0.5-3.75,1.59-4.64,3.32
		c-1.89,3.71-0.83,9.87,1.05,15.91c1.87-3.56,4.81-6.58,8.26-8.34C495.6,287.39,497.76,286.85,499.78,286.85z M303.38,290.37
		c2.7,5.66,5.26,10.92,7.97,13.29c1.46,1.27,3.1,1.82,5.03,1.6c-0.9-2.14-1.89-4.05-2.96-5.73
		C310.8,295.41,307.37,292.32,303.38,290.37z M303.87,286.17c5.17,2.2,9.61,6,12.92,11.21c1.24,1.95,2.38,4.16,3.41,6.66
		c2.31-1.13,5-3.02,8.18-5.72c6.64-5.63,11.62-11.33,14.35-20.88c1.33-4.67,2.13-10.38,2.91-15.9c0.84-5.97,1.63-11.65,3.06-16.26
		c-1.08-2.09-1.68-4.98-1.71-8.51c-0.04-4.07,0.66-9.12,1.4-14.47c0.78-5.64,1.59-11.47,1.55-16.39
		c-0.07-8.04-4.72-21.79-8.65-23.03c-0.9-0.28-1.93,0.39-3.07,1.98c-5.58,7.79-6.55,27.08-7.19,39.85
		c-0.22,4.45-0.42,8.29-0.76,10.76c-0.33,2.36-0.52,4.77-0.72,7.31c-0.59,7.45-1.19,15.16-5.46,21.96
		c-2.69,4.28-6.66,7.95-10.85,11.83C309.94,279.61,306.55,282.74,303.87,286.17z M173.23,263.64c3.36,11.57,10.17,22.44,16.79,25.33
		c3.1,1.36,5.9,0.91,8.56-1.37c7.7-6.61,17.64-11.57,26.42-15.94c6.46-3.22,12.56-6.26,16.12-9.24c6.56-5.49,5.01-11.21,2.44-20.68
		c-0.35-1.31-0.72-2.66-1.08-4.08c-1.2-4.69-2.07-9.13-2.62-13.34c-1.8,1.51-3.61,2.91-5.41,4.17c-8.58,6.01-17.85,9.76-26.81,13.38
		c-5.8,2.34-11.28,4.56-16.35,7.29C183.97,253.08,177.99,257.88,173.23,263.64z M257.01,271.67c1.07,0.37,5.42-0.94,8.9-3.84
		c2.05-1.71,3.21-3.56,3.73-6.29c-0.95-0.06-1.88-0.01-2.76,0.14c-4.05,0.71-7.15,3.8-8.7,6.45
		C257.13,269.92,256.94,271.22,257.01,271.67z M353.16,244.63c0.08,0.07,0.16,0.12,0.24,0.17c0.18,0.1,0.59,0.34,1.4-0.13
		c2.53-1.45,4.97-6.54,5.07-8.44C358.59,236.62,355.37,238.86,353.16,244.63z M270.46,169.68c0.02,0.03-0.2,0-0.6,0.09
		c-5.05,1.12-18.17,12.71-23.57,26.29c-2.29,5.78-3.34,12.33-3.13,19.79c7.78-7.75,15.17-17.55,20.93-27.96
		C270.49,176.34,271.14,170.55,270.46,169.68z M183.86,122.73c-0.13,0-0.27,0-0.4,0c-9.12,0.21-14.45,7.68-15.83,22.21
		c-2.22,23.32,2.24,26.56,3.66,27c1.36,0.42,5.18,0.12,13.35-9.49c-0.15-0.34-0.31-0.68-0.47-1.02c-2.08-4.51-4.04-8.78-4.07-12.25
		c-0.05-7.23,2.43-12.63,6.99-15.21c4.38-2.48,10.14-2.2,16.52,0.74c0.61-1.02,1.22-2.06,1.85-3.13
		C199.15,126.98,191.03,122.73,183.86,122.73z M193.8,136.31c-1.79,0-3.4,0.38-4.75,1.14c-3.29,1.86-5,5.9-4.96,11.7
		c0.02,2.45,1.59,6.01,3.35,9.83c3.84-4.92,8.49-11.65,14.08-20.82C198.73,136.94,196.11,136.31,193.8,136.31z M295.49,140.71
		c-3.64,4.47-7.37,12.73-9.12,18.25C289.51,154.57,293.43,147.26,295.49,140.71z M207.15,136.58c0.17,0.1,0.33,0.2,0.5,0.3
		c4,2.44,6.39,3.54,7.76,4.03c-1.17-1.7-3.59-4.22-6.77-6.85C208.14,134.92,207.64,135.75,207.15,136.58z"/>
</g>
</svg>
