<svg width="768" height="1024" viewBox="0 0 768 1024" fill="none" xmlns="http://www.w3.org/2000/svg">
<g clip-path="url(#clip0_4_2)">
<rect width="768" height="1024" fill="#4A9DB5"/>
<g clip-path="url(#clip1_4_2)">
<path d="M549 1093.54C959.9 1093.54 1293 884.824 1293 627.362C1293 369.899 959.9 161.185 549 161.185C138.1 161.185 -195 369.899 -195 627.362C-195 884.824 138.1 1093.54 549 1093.54Z" fill="#4A9DB5"/>
<path d="M352.649 452.228C-44.25 567.927 -316.347 863.323 -255.096 1112.01C-193.845 1360.7 177.558 1468.51 574.457 1352.81C971.355 1237.11 1243.45 941.716 1182.2 693.027C1120.95 444.337 749.547 336.528 352.649 452.228Z" fill="#042B2B"/>
</g>
<path d="M735.502 651.397C735.147 651.184 734.72 651.255 734.507 651.611C725.905 664.695 714.957 665.691 707.635 662.349C705.005 661.14 702.872 659.433 701.379 657.442C701.664 656.02 701.948 654.455 702.232 652.962C704.65 639.308 703.939 638.882 703.37 638.526C703.157 638.384 702.801 638.313 702.375 638.242C703.512 637.602 704.721 636.82 705.787 635.966C709.697 632.837 711.83 628.997 712.043 624.873C712.327 618.33 709.199 612.855 705.645 606.597C703.228 602.33 700.455 597.495 698.394 591.592C697.398 588.819 696.616 586.686 695.977 585.263C695.195 583.557 694.697 582.703 693.915 582.988C693.773 583.059 693.702 583.059 693.56 583.13C692.706 575.308 691.427 565.423 689.792 555.396C687.161 539.112 683.109 519.058 678.915 515.929C677.138 514.578 675.076 513.512 672.873 512.587C672.588 512.16 672.019 511.947 671.024 511.591C667.683 510.454 659.863 507.751 654.816 495.449C653.465 492.107 652.257 488.693 651.119 485.351C646.64 472.338 642.02 458.826 625.243 449.084C609.816 440.124 604.271 445.031 600.219 448.515C598.655 449.866 597.304 451.004 595.811 451.004H595.669H595.598C586.357 451.644 578.963 457.333 575.693 466.151C572.352 475.467 574.485 485.991 581.025 492.462L581.38 493.458C581.594 494.098 581.807 494.596 581.949 494.88C582.02 495.307 582.091 495.734 582.162 496.16C583.655 504.409 590.48 510.667 594.461 513.654C600.077 517.92 605.977 520.409 608.465 520.267H608.537C616.712 519.485 619.84 511.094 621.83 505.618C622.612 503.627 623.536 501.067 624.176 500.925C624.318 500.925 624.603 501.067 625.029 501.565C630.503 508.178 636.261 512.658 641.806 514.72C641.949 515.645 642.091 516.569 642.091 517.636C642.162 519.485 642.162 521.689 641.949 524.107C641.664 525.814 641.522 527.805 641.451 529.938C640.171 541.885 636.83 555.325 631.427 556.819C625.882 558.383 618.987 551.414 614.863 547.219C614.508 546.863 614.224 546.579 614.01 546.365C611.309 537.761 610.243 530.863 609.603 526.525C608.963 522.614 608.75 520.978 607.897 520.552C607.612 520.338 607.257 520.338 606.901 520.48C604.982 521.334 601.783 528.801 600.788 531.645C599.65 534.845 598.371 538.898 599.082 540.392C599.721 541.814 602.281 544.161 604.769 546.507C606.404 548.072 608.679 550.205 609.105 550.916C608.892 551.13 608.465 551.414 608.181 551.627C606.475 552.765 603.276 554.97 606.119 559.592C607.826 562.365 612.66 569.619 617.138 576.019C626.167 588.961 626.949 588.606 627.66 588.321C628.157 588.108 628.299 587.61 628.157 586.828C627.588 584.41 624.176 576.446 620.622 567.983C617.281 560.09 612.873 549.636 611.807 546.081C612.162 546.365 612.589 546.792 612.944 547.147C614.081 550.632 615.432 554.33 617.067 558.312C621.262 568.054 624.603 574.241 627.66 579.646C631.356 586.401 634.555 592.161 638.039 602.686C644.295 621.388 636.972 639.522 634.911 641.94C634.84 642.082 634.555 642.153 634.058 642.082C629.081 641.371 615.148 630.206 613.797 627.148C612.589 624.304 614.437 619.326 616.854 613.068C617.423 611.504 617.991 609.939 618.631 608.233C621.404 600.624 619.342 594.792 616.783 587.539C616.285 586.33 615.859 584.979 615.432 583.628C614.721 581.566 613.797 580.143 612.802 579.29C612.304 577.654 611.096 576.019 609.603 574.241C608.039 572.321 606.262 570.117 605.053 567.201C603.987 564.712 602.21 558.596 600.361 552.196C597.518 542.312 594.319 531.076 592.115 527.734C591.048 526.027 589.982 525.956 589.271 526.169C586.072 527.236 584.864 538.33 585.432 545.512C586.001 552.694 589.698 574.383 591.83 587.326C592.612 592.019 593.252 595.788 593.466 597.281C593.821 599.77 594.887 601.121 595.954 601.904C595.669 602.188 595.385 602.544 595.243 602.828C593.75 605.033 593.608 621.602 593.537 624.944C593.466 630.988 593.608 645.353 595.101 647.06C596.238 648.34 598.939 648.695 601.854 649.122C604.129 649.477 606.83 649.833 607.399 650.686C608.536 652.322 606.333 663.131 604.058 668.962C603.987 669.175 603.916 669.389 603.845 669.531C603.702 668.891 603.56 667.895 603.418 667.113C603.134 665.193 602.778 662.989 602.067 661.495C601.641 660.571 601.072 660.429 600.717 660.429C599.224 660.429 597.944 663.06 595.669 668.038C594.674 670.313 593.608 672.66 592.612 674.153C593.11 672.233 594.105 669.033 595.172 666.26C595.314 665.904 595.101 665.549 594.816 665.335C594.461 665.122 594.105 665.264 593.892 665.62C593.821 665.691 589.769 672.02 586.712 674.651C587.281 673.015 588.774 669.958 589.627 668.393C590.835 665.904 591.12 665.335 591.12 664.98C591.191 664.624 590.906 664.34 590.622 664.198C589.982 663.913 589.84 664.198 587.423 667.042C585.788 669.033 583.086 672.233 581.594 673.3C582.091 671.593 584.011 667.682 585.006 665.691C585.646 664.482 586.143 663.344 586.428 662.704C586.57 662.349 586.854 661.638 586.214 661.282C585.575 660.926 585.148 661.495 584.722 662.135C584.366 662.562 583.94 663.202 583.442 663.913C581.878 666.118 579.603 669.318 577.826 671.024C578.608 668.891 581.025 664.34 583.726 660.998C585.788 658.438 587.992 657.158 589.698 656.091C591.333 655.095 592.826 654.242 593.537 652.677C593.679 652.322 593.679 651.966 593.466 651.611C593.039 650.971 592.257 649.62 573.703 648.34C568.087 647.984 562.47 647.7 558.347 647.557C559.129 647.273 559.769 646.989 560.267 646.633C560.764 646.277 561.12 645.495 561.333 644.357C566.949 642.793 572.707 640.517 574.485 637.673C577.613 632.695 580.456 603.041 581.522 590.526C583.158 571.041 584.437 548.854 583.513 546.792C583.158 546.01 582.304 545.654 580.954 545.654H580.527C580.03 543.947 579.105 542.312 577.755 540.676C576.049 538.756 569.082 536.552 561.12 534.063C554.011 531.858 544.343 528.872 543.703 527.094C543.561 526.667 543.347 526.027 542.637 526.169C541.926 526.383 542.068 526.881 542.281 527.876C542.423 528.445 542.637 529.156 542.85 530.152C543.418 532.498 543.845 534.49 544.272 536.338C542.281 535.983 540.291 535.912 538.3 536.054C539.651 532.569 540.504 529.796 540.717 528.943V528.872C540.93 527.947 541.428 526.027 540.148 525.743C539.437 525.601 538.655 526.241 537.518 528.089C536.807 529.227 536.025 530.721 535.172 532.427C536.31 528.303 537.092 525.245 537.163 524.534C537.234 523.254 537.305 520.623 537.376 517.209C537.447 513.583 537.518 509.316 537.66 505.191C538.3 503.84 538.94 502.56 539.509 501.351C541.499 497.298 542.992 494.382 541.57 491.253C541.286 490.756 541.001 490.187 540.717 489.831C540.859 489.333 540.93 488.836 541.001 488.409C542.921 476.391 541.712 467.218 537.66 463.875C536.167 462.667 534.39 462.311 532.471 462.88C527.779 457.689 521.452 456.978 516.902 457.262C509.438 457.76 501.902 461.6 499.627 464.729C498.277 465.084 497.21 466.009 496.428 467.502C493.727 472.48 494.722 482.578 497.281 489.476V489.547C496.855 489.333 496.357 489.262 496.002 489.476C493.94 490.613 496.073 498.222 497.068 501.422C497.779 503.485 499.13 507.894 500.623 507.894C500.765 508.818 500.836 509.671 500.907 510.596C501.476 516.783 502.115 523.041 503.466 528.445C502.897 528.587 502.4 529.298 501.831 535.698C501.476 539.965 501.334 544.73 501.405 548.427C501.476 550.205 501.76 551.841 502.329 553.192C501.831 559.023 501.191 565.281 500.623 571.325C500.054 577.228 499.485 582.774 499.059 587.681C498.703 591.735 498.348 596.215 497.992 600.481C497.21 610.224 496.286 621.033 495.646 626.011C494.438 620.25 491.736 606.313 489.746 592.09C485.338 561.512 487.613 554.685 489.319 553.334C492.59 550.703 494.864 549.494 496.357 548.57C498.348 547.432 499.414 546.863 498.774 544.801C498.419 543.663 497.424 542.881 496.286 542.027C494.225 540.463 492.305 538.97 493.727 535.343C495.433 531.076 498.774 526.738 500.267 525.103C500.765 524.889 501.049 524.605 501.191 524.392C501.334 524.178 501.547 523.752 501.262 523.396C501.12 523.183 500.836 523.04 500.552 523.04C500.338 523.04 499.912 523.396 499.414 523.894C497.992 524.392 494.367 524.961 491.31 525.387C485.623 526.312 479.082 527.307 476.523 528.943C473.466 530.863 471.405 538.827 470.338 544.587C469.983 542.383 469.485 540.534 468.561 539.965C467.85 539.61 466.144 539.183 463.158 538.472C460.528 537.832 455.623 536.623 453.632 535.698C453.348 535.485 453.135 535.272 452.922 535.058C452.993 534.703 453.135 534.418 453.277 534.063C454.343 531.076 454.983 528.943 454.059 527.947C453.917 527.734 453.49 527.521 452.922 527.307C453.561 526.241 454.343 525.103 455.125 523.894C457.756 519.983 460.67 515.574 461.239 511.378C461.666 508.605 461.523 507.68 460.741 507.396C459.817 507.04 459.035 508.107 457.471 510.454C456.405 512.018 454.983 514.009 453.632 515.36C453.064 515.858 452.779 516 452.708 516C451.855 515.076 453.135 507.396 453.632 504.551C453.704 503.983 453.846 503.414 453.917 502.916C454.201 501.209 454.699 499.289 455.125 497.369C456.476 491.822 457.756 486.631 455.196 484.213C454.628 483.716 453.988 483.431 453.277 483.502C450.931 483.645 448.301 486.631 444.96 490.542C442.969 492.889 440.836 495.236 438.633 497.227C433.798 501.494 434.723 513.583 435.291 522.4C435.362 522.756 435.362 523.112 435.362 523.467C435.149 523.538 434.936 523.538 434.794 523.609C433.798 523.894 433.514 524.392 433.372 524.818C432.874 526.952 433.301 532.143 435.007 532.569C435.789 532.783 436.358 532.285 436.784 531.005C437.14 529.938 437.069 527.805 436.926 524.889C440.623 525.103 447.377 526.952 450.86 528.161C449.865 530.009 449.367 531.645 449.723 532.925C449.936 533.778 450.576 534.703 451.5 535.698C451.571 535.77 451.571 535.912 451.642 535.983C451.855 536.338 452.211 536.694 452.85 536.978C452.993 537.121 453.135 537.192 453.206 537.334C452.353 537.192 451.5 536.978 450.504 536.836C441.192 535.272 428.467 533.352 413.68 531.361C383.823 527.378 353.823 523.894 340.6 523.112C333.136 522.614 332.851 523.041 332.496 523.467C331.927 524.178 330.221 526.454 337.401 609.086C338.041 616.41 337.046 621.104 334.486 623.308C330.79 626.579 323.396 624.873 314.937 623.024C307.401 621.388 298.942 619.468 290.269 620.108C280.174 620.89 271.928 625.086 265.103 632.979C264.819 633.264 264.89 633.762 265.174 633.975C265.459 634.188 265.956 634.188 266.169 633.904C281.098 616.908 299.653 621.033 314.652 624.446C323.539 626.437 331.145 628.144 335.411 624.375C338.396 621.744 339.463 616.837 338.752 608.944C332.567 537.618 332.994 525.885 333.491 524.392C336.406 523.609 364.771 526.454 400.031 531.147C423.775 534.205 443.822 537.192 455.481 539.325C458.68 541.672 462.234 543.592 463.514 544.303C463.656 545.939 464.012 552.41 464.58 560.73C463.798 552.481 463.158 546.721 463.016 545.796C462.874 545.299 462.519 545.085 462.376 545.014C458.68 542.667 424.912 538.116 397.258 534.774C370.316 531.503 337.117 527.876 336.121 528.161C335.979 528.161 335.695 528.303 335.553 528.658C334.771 530.649 337.188 560.516 338.681 578.081C339.107 582.846 342.662 624.944 343.586 626.224C343.87 626.651 344.368 627.362 359.012 629.637C366.406 630.775 373.87 631.771 375.079 631.842C375.15 631.842 375.15 631.842 375.15 631.842C376.642 631.842 378.064 627.859 384.676 600.339C386.737 591.663 388.87 582.774 389.581 581.352C390.363 581.281 392.851 581.423 396.121 581.779C392.424 581.708 391.287 582.419 390.86 583.13C389.51 585.05 383.467 607.45 378.704 627.148C375.647 639.735 368.609 669.744 369.676 674.864C369.818 675.433 370.031 675.789 370.316 675.931C372.519 677.282 390.718 682.687 406.784 683.256C413.893 683.54 420.291 682.473 424.344 681.549C426.405 681.051 428.396 680.482 429.96 679.984C432.377 679.131 432.519 678.704 432.59 678.42C433.088 676.642 433.159 672.802 433.159 672.66C433.159 672.375 433.016 672.162 432.874 672.02C432.661 671.878 432.448 671.807 432.235 671.878C424.415 674.509 411.263 678.136 409.201 676.642C409.059 676.571 409.059 676.5 409.059 676.429C409.13 674.793 412.329 660.002 415.813 644.215C416.453 641.442 417.021 638.668 417.661 635.753C418.656 636.037 419.723 636.251 421.073 636.535L419.794 642.011C419.723 642.224 419.794 642.437 419.936 642.58C420.078 642.722 420.22 642.864 420.434 642.864C420.718 642.935 444.533 645.495 468.988 648.482C464.154 652.251 460.031 656.091 459.249 657.442C458.182 659.362 457.685 660.855 458.467 661.78C459.177 662.562 460.67 662.491 463.158 661.495C464.58 660.926 465.007 661.069 465.078 661.069C465.149 661.069 465.22 661.353 465.291 661.495C465.789 662.918 466.642 663.7 469.628 662.846C471.476 662.278 473.537 661.282 475.528 660.002C475.03 660.855 474.888 661.495 475.101 661.993C475.67 663.06 477.305 662.846 478.656 662.491C482.708 661.495 488.466 658.509 494.011 655.593C496.073 654.526 498.134 653.389 500.125 652.464C511.855 654.171 517.684 655.237 520.528 655.949C521.239 656.233 521.949 656.446 522.731 656.66C519.959 659.718 506.736 669.46 498.703 673.798C491.594 672.944 480.22 671.238 468.988 669.531C445.599 665.975 421.429 662.349 416.808 663.273C416.026 663.486 415.6 663.771 415.6 664.34C415.6 665.264 415.671 666.047 439.201 669.744C452.068 671.735 467.495 673.869 478.798 675.433C486.263 676.5 491.736 677.211 492.661 677.424C493.798 677.709 496.073 676.784 498.845 675.362C502.613 675.789 505.03 675.931 505.812 675.718C510.717 674.438 526.57 659.575 527.423 658.366C527.566 658.082 527.637 657.798 527.566 657.513C527.281 656.802 526.357 656.375 523.3 655.451C522.874 655.238 522.234 655.024 521.239 654.74C520.243 654.384 519.39 654.1 518.608 653.744C517.044 653.033 516.973 652.606 516.973 652.606C517.115 652.18 517.115 651.682 517.115 651.113C518.466 651.184 519.675 650.829 520.67 649.762C522.447 647.842 519.248 642.793 512.992 634.828C512.566 634.331 512.139 633.762 511.855 633.335C515.48 633.122 524.58 630.206 541.855 623.593C543.063 623.095 544.058 622.739 544.556 622.526C545.196 622.313 545.836 622.17 546.618 622.17C546.689 622.17 546.689 622.17 546.689 622.17C549.177 623.593 552.163 624.09 553.798 624.375C554.153 624.446 554.437 624.517 554.651 624.517C554.935 624.588 555.504 624.73 555.788 624.162C556.001 623.877 555.93 623.522 555.717 623.237C555.148 622.597 550.741 620.819 547.044 620.677C545.054 619.468 543.774 617.619 544.058 614.775L544.129 614.064C544.272 612.499 544.414 610.935 544.556 609.441C545.267 608.944 546.049 608.446 546.76 607.948C550.03 605.672 553.371 603.326 555.362 604.108C556.215 604.464 556.854 605.459 557.281 607.166C558.632 613.068 559.911 622.242 560.409 630.491C560.622 632.979 560.693 635.113 560.693 636.891C554.935 639.38 547.897 640.802 542.068 642.011C536.025 643.22 531.262 644.215 529.343 645.922C528.774 646.42 528.561 646.989 528.703 647.486C528.987 648.34 530.125 648.624 531.12 648.766C535.243 649.335 544.982 648.269 554.224 646.349C555.93 645.993 557.921 645.495 559.982 644.997C559.84 645.353 559.698 645.566 559.556 645.709C558.489 646.562 555.717 647.202 551.523 647.486C550.883 647.557 550.243 647.629 550.314 648.269C550.314 648.98 551.025 648.98 551.309 648.98C551.523 649.051 551.878 649.051 552.376 649.051C564.816 649.335 589.698 650.757 592.257 652.535C591.617 653.602 590.551 654.242 589.058 655.166C587.21 656.304 584.935 657.655 582.66 660.429C581.096 662.349 579.319 665.122 577.897 667.753C575.551 672.304 576.191 672.873 576.475 673.229C577.186 673.94 578.181 673.015 578.537 672.731C579.674 671.735 581.025 670.029 582.304 668.322C580.101 672.944 579.745 674.438 580.456 675.149C580.598 675.291 581.025 675.647 581.736 675.291C583.086 674.722 585.219 672.304 587.707 669.318C585.006 674.793 584.65 676.216 585.361 676.856C586.001 677.353 586.783 676.784 586.996 676.571C588.631 675.362 590.551 673.015 592.115 670.953C592.115 671.024 592.115 671.024 592.115 671.024C590.48 676.073 590.764 676.713 591.404 677.069C592.186 677.496 592.826 676.642 593.181 676.215C594.39 674.722 595.669 671.807 596.949 668.962C598.015 666.615 599.792 662.775 600.574 662.278C600.646 662.349 600.646 662.42 600.717 662.491C601.285 663.842 601.641 665.975 601.925 667.824C602.352 670.527 602.565 671.878 603.56 672.02C604.484 672.091 604.911 671.024 605.337 670.029C607.186 665.335 610.314 653.033 608.537 650.402C607.612 649.051 605.053 648.695 601.996 648.197C599.65 647.842 596.949 647.486 596.167 646.562C595.527 645.709 594.887 637.957 594.958 625.37C595.029 613.21 595.74 605.104 596.38 604.179C596.451 604.108 596.451 604.108 596.451 604.037C596.665 603.681 596.949 603.326 597.304 603.041C599.295 603.824 601.641 603.468 603.205 602.757C603.276 602.757 603.347 602.686 603.418 602.615C604.2 601.975 604.484 601.335 604.271 600.766C604.129 600.339 603.774 599.912 602.707 599.77C601.285 599.628 598.868 600.197 597.091 601.335C595.883 600.624 595.172 599.344 594.887 597.495C594.674 596.001 594.034 592.232 593.252 587.468C591.048 574.526 587.423 552.836 586.854 545.725C586.214 537.405 587.992 528.445 589.769 527.876C590.053 527.805 590.48 528.161 590.906 528.872C592.897 532.072 596.167 543.165 598.939 552.979C600.859 559.734 602.565 565.565 603.702 568.125C605.053 571.112 606.83 573.459 608.465 575.45C609.39 576.588 610.172 577.512 610.74 578.508C610.385 578.366 610.029 578.366 609.674 578.294C606.191 578.01 602.565 581.139 601.356 583.414C600.29 585.406 601.428 587.326 602.636 589.53C604.129 592.161 606.048 595.361 605.835 600.481C605.48 610.508 605.622 634.971 607.328 645.922C607.612 647.557 607.826 648.624 608.679 648.624H608.75C609.958 648.553 610.314 647.557 611.593 624.517C611.878 619.397 612.162 614.633 612.375 612.144C613.157 604.393 613.157 587.895 613.015 582.063C613.442 582.703 613.726 583.486 614.01 584.339C614.508 585.69 614.935 587.041 615.361 588.25C617.849 595.29 619.84 600.837 617.209 608.019C616.641 609.655 616.001 611.29 615.432 612.784C612.944 619.397 610.954 624.588 612.446 628.002C614.081 631.842 628.655 643.077 633.844 643.788C634.84 643.931 635.551 643.717 635.977 643.148C638.465 640.162 645.787 621.744 639.389 602.472C635.835 591.806 632.565 585.975 628.868 579.148C625.882 573.743 622.541 567.628 618.347 557.956C617.138 555.112 616.072 552.339 615.148 549.707C619.058 553.619 624.674 558.81 629.934 558.81C630.645 558.81 631.285 558.668 631.996 558.525C636.972 557.103 640.029 548.427 641.806 538.97C642.588 552.836 645.361 570.117 647.138 579.788C650.053 596.357 653.749 609.797 656.877 620.037C655.1 621.388 653.465 622.028 651.972 621.815C648.915 621.388 646.498 620.677 644.863 620.179C643.157 619.682 642.517 619.468 642.162 620.108C641.735 620.819 642.233 621.175 645.148 623.593C648.133 626.082 651.332 627.575 653.394 628.571C653.749 628.713 654.105 628.926 654.389 629.068C653.465 629.211 652.257 629.353 650.977 629.424C646.64 629.779 643.939 630.064 643.228 631.415C643.086 631.699 642.873 632.197 643.299 632.908C644.01 634.046 645.574 634.402 647.209 634.686C649.911 635.255 652.612 635.753 653.323 639.237C653.963 642.508 654.318 648.411 654.247 653.246C654.176 656.589 653.892 658.793 653.536 660.215C639.674 658.58 627.091 657.015 623.536 656.233C621.262 655.735 619.982 655.166 619.626 654.526C619.342 653.957 619.626 653.246 620.053 652.037C620.693 650.473 621.475 648.269 620.693 645.495C620.48 644.713 619.911 642.722 618.489 643.006C616.214 643.504 615.361 651.824 616.072 656.589C616.214 657.584 616.925 658.509 618.062 659.291C625.1 664.055 649.839 664.553 652.683 663.913C653.039 663.842 653.82 663.629 654.531 661.851C655.242 661.922 655.953 662.064 656.593 662.135C656.024 662.775 655.456 663.415 654.958 664.055C650.55 669.389 651.119 670.455 651.261 670.882C651.475 671.238 651.972 671.807 653.252 671.238C655.1 670.527 657.375 668.749 659.579 667.042C661.214 665.762 663.915 663.7 664.697 663.7H664.768C664.839 663.771 664.839 663.913 664.839 664.198C664.768 666.118 661.569 670.598 659.081 674.153C655.456 679.273 654.247 681.122 654.887 682.189C655.029 682.402 655.384 682.829 656.166 682.687C658.37 682.331 661.285 679.344 664.413 675.86C664.057 676.5 663.631 677.211 663.275 677.922C659.508 684.749 658.441 686.882 659.294 687.807C659.437 687.949 659.863 688.305 660.574 688.02C662.067 687.451 664.484 684.109 667.185 679.913C664.91 685.744 664.555 687.949 665.479 688.731C665.692 688.945 665.906 689.016 666.19 689.016C666.617 689.016 667.043 688.802 667.683 688.305C669.46 687.096 671.166 684.82 672.588 682.402C671.948 685.104 672.233 685.531 672.73 685.816C673.512 686.242 674.152 685.318 674.508 684.82C677.422 680.696 681.19 671.095 682.043 664.766C691.427 665.833 698.394 666.544 699.247 666.615C699.602 666.687 699.958 666.402 700.029 666.047C700.029 665.975 700.668 663.131 701.379 659.291C702.943 661.069 705.005 662.562 707.351 663.7C711.758 665.691 716.735 666.046 721.427 664.482C726.901 662.704 731.948 658.58 736 652.393C735.929 652.037 735.787 651.611 735.502 651.397ZM610.314 544.303C610.029 544.374 609.887 544.516 609.745 544.73C609.247 545.796 610.882 550.276 618.773 568.765C621.83 576.019 624.816 582.917 625.882 586.188C621.972 581.708 610.385 564.712 606.901 559.094C604.84 555.61 606.759 554.259 608.537 553.05C609.39 552.481 610.1 551.983 610.1 551.272C610.172 550.347 608.892 549.067 605.337 545.725C603.063 543.592 600.503 541.174 599.935 540.036C599.721 539.61 599.792 537.547 601.57 532.783C603.56 527.378 605.906 523.183 606.83 522.258C607.115 522.969 607.47 524.961 607.754 527.094C608.394 531.076 609.318 537.192 611.522 544.801C611.167 544.303 610.74 544.161 610.314 544.303ZM435.007 530.294C434.936 530.436 434.865 530.578 434.865 530.649C434.367 529.654 433.941 526.738 434.367 524.889C434.367 524.889 434.438 524.747 435.007 524.676C435.078 524.676 435.078 524.676 435.078 524.676C435.149 527.307 435.22 529.512 435.007 530.294ZM436.358 523.254C436.287 522.898 436.287 522.472 436.287 522.116C435.718 514.08 434.865 501.92 439.13 498.151C441.476 496.16 443.68 493.6 445.599 491.325C448.443 488.053 451.215 484.853 452.922 484.782C453.206 484.711 453.49 484.853 453.775 485.138C455.765 486.987 454.486 492.036 453.277 496.871C452.779 498.791 452.353 500.711 452.068 502.489C451.997 503.058 451.926 503.556 451.784 504.125C450.362 512.587 450.007 516.214 451.642 517.138C452.708 517.707 453.846 516.64 454.201 516.285C455.694 514.863 457.116 512.8 458.253 511.165C458.68 510.525 459.177 509.814 459.604 509.316C459.604 509.743 459.533 510.311 459.391 511.094C458.822 514.934 456.049 519.2 453.49 522.969C452.637 524.249 451.855 525.458 451.144 526.596C447.377 525.245 440.339 523.396 436.358 523.254ZM451.5 533.494C451.429 533.565 451.429 533.636 451.429 533.707C451.002 533.209 450.789 532.783 450.647 532.356C450.362 531.432 450.931 530.081 451.784 528.516C452.211 528.658 452.495 528.801 452.566 528.872C452.922 529.369 451.855 532.356 451.5 533.494ZM492.376 675.789C491.381 675.576 485.907 674.864 478.443 673.798C462.376 671.522 427.045 666.687 418.23 664.411C418.301 664.411 418.372 664.411 418.372 664.34C425.836 664.34 448.23 667.753 468.135 670.74C480.007 672.518 489.39 673.94 495.789 674.722C494.225 675.504 493.016 675.931 492.376 675.789ZM523.656 657.015C524.438 657.229 525.077 657.513 525.504 657.726C523.087 660.286 509.082 673.087 505.03 674.153C504.533 674.295 502.969 674.224 500.623 673.94C509.438 668.82 521.807 659.433 523.656 657.015ZM580.527 547.076C581.451 547.147 581.665 547.361 581.736 547.361C582.376 548.925 581.522 568.125 579.674 590.597C577.47 616.41 574.911 633.691 572.85 636.962C571.57 639.024 567.091 641.086 561.191 642.793C561.404 641.371 561.475 639.593 561.475 637.602C567.162 634.971 571.641 631.344 572.921 625.726C576.831 608.233 570.717 590.312 564.745 584.126C562.186 581.494 559.769 580.499 558.134 579.859C557.352 579.503 556.57 579.219 556.499 578.934C556.286 578.223 558.205 575.877 558.845 575.094C561.404 571.823 566.025 568.268 570.433 564.854C576.262 560.303 580.883 556.819 581.025 553.974C580.954 551.627 580.954 549.281 580.527 547.076ZM544.272 537.903C546.333 547.29 546.689 550.276 546.475 550.916C545.836 551.627 543.845 552.481 542.21 553.263C539.437 554.543 538.158 555.112 538.442 556.179C538.584 556.534 539.011 557.174 540.291 559.023C541.073 560.09 542.21 561.796 543.205 563.29C542.352 566.063 541.499 568.979 540.646 571.894C539.011 577.654 537.589 582.846 536.523 587.326C536.096 588.392 535.67 589.388 535.243 590.383C531.973 598.277 528.916 605.744 527.992 608.304C527.21 610.65 526.357 613.993 525.575 617.05C525.291 618.117 525.006 619.326 524.722 620.393C524.651 619.326 524.509 617.904 524.367 616.339C523.442 604.748 521.452 580.641 527.352 559.308C527.992 556.676 528.632 554.259 529.272 551.983C532.684 547.787 535.385 542.241 537.305 537.69C539.651 537.405 541.997 537.476 544.272 537.903ZM543.774 561.441C543.134 560.445 542.352 559.379 541.499 558.17C540.93 557.316 540.291 556.463 540.006 555.965C540.504 555.61 541.855 555.041 542.85 554.543C544.2 553.903 545.622 553.263 546.546 552.694C545.693 555.325 544.698 558.312 543.774 561.441ZM544.698 566.419C544.627 567.13 542.921 571.61 540.646 577.228C541.783 573.174 542.992 569.05 544.2 564.997C544.556 565.565 544.769 566.063 544.698 566.419ZM545.836 538.258C547.4 538.685 549.035 539.325 550.67 540.178C550.243 541.387 549.248 544.445 547.826 548.641C547.613 546.579 546.973 543.378 545.836 538.258ZM520.101 556.819C519.319 556.961 518.537 557.032 517.826 557.174C517.4 555.468 516.831 554.614 515.978 554.472C514.912 554.33 513.987 555.254 512.85 557.53C509.509 557.459 507.021 556.819 505.386 555.468C504.604 554.828 503.964 554.045 503.537 553.05C504.248 544.943 504.746 537.832 504.675 533.636C506.452 538.187 509.153 541.53 513.277 542.81C514.414 543.165 515.48 543.521 516.404 543.947C515.836 544.232 515.338 544.516 514.769 544.801L514.13 545.156C510.646 546.934 510.788 549.139 511.002 550.063C511.57 551.983 513.845 553.334 516.476 553.263C519.461 553.121 522.945 551.414 523.3 548.854C523.513 547.503 522.803 545.725 519.675 543.947C523.585 542.027 527.494 540.178 531.475 539.041C530.765 541.174 530.054 543.45 529.272 545.654C528.276 548.57 527.423 550.987 526.57 553.05C524.58 554.828 522.447 556.321 520.101 556.819ZM525.291 555.894C521.878 563.788 520.243 564.357 519.888 564.357C519.746 564.357 518.75 564.214 518.182 559.308C518.111 559.094 518.111 558.81 518.04 558.596C518.822 558.525 519.532 558.383 520.386 558.241H520.457C522.163 557.814 523.798 557.032 525.291 555.894ZM516.404 557.316C515.694 557.388 515.125 557.459 514.485 557.459C515.338 555.965 515.765 555.894 515.765 555.894C515.765 555.894 516.049 556.036 516.404 557.316ZM518.04 544.587C520.599 545.867 521.949 547.29 521.807 548.499C521.594 549.992 519.035 551.485 516.333 551.627C514.272 551.699 512.637 550.632 512.352 549.494C512.068 548.356 512.921 547.219 514.769 546.294L515.409 545.939C516.262 545.512 517.186 545.014 518.04 544.587ZM533.964 538.187C534.532 538.045 535.101 537.903 535.67 537.832C534.248 541.174 532.542 544.659 530.551 547.645C531.76 544.09 532.826 540.89 533.964 538.187ZM539.153 527.805C539.082 528.018 539.011 528.303 539.011 528.587C538.371 530.863 537.447 533.494 536.381 536.196C535.812 536.267 535.243 536.41 534.674 536.481C536.594 531.929 538.229 529.014 539.153 527.805ZM537.945 500.782C537.802 501.067 537.66 501.351 537.518 501.565C537.518 501.351 537.589 501.209 537.589 500.996C538.513 498.791 539.366 495.378 540.077 491.965C541.073 494.454 539.864 496.871 537.945 500.782ZM499.983 505.831C498.845 503.627 496.784 497.511 496.286 493.316C496.073 491.68 496.215 491.04 496.357 490.827C496.499 490.898 496.997 491.182 497.85 492.107C498.916 496.018 499.556 500.64 500.054 505.334C499.983 505.547 499.983 505.689 499.983 505.831ZM499.983 491.822C499.983 492.178 500.054 492.462 500.054 492.818C499.77 492.391 499.485 491.965 499.201 491.609C499.13 491.538 499.059 491.467 498.988 491.396C498.703 490.542 498.49 489.76 498.206 488.907C495.86 482.365 494.793 472.622 497.281 468.142C497.921 466.933 498.774 466.222 499.841 466.009C500.054 465.938 500.196 465.795 500.338 465.653C502.044 463.022 509.082 459.111 516.689 458.613C521.025 458.329 526.997 459.04 531.333 464.089C531.547 464.373 531.831 464.444 532.115 464.302C533.679 463.733 535.172 463.875 536.381 464.871C539.224 467.218 541.428 474.471 539.224 488.053C539.153 488.409 539.082 488.693 539.082 489.049C539.011 489.049 538.94 489.12 538.869 489.12C537.447 489.476 536.594 492.462 536.096 500.711C535.67 501.636 535.385 501.991 535.243 502.134C534.532 501.138 534.39 495.378 536.736 488.551C538.229 484.213 538.158 481.156 536.594 479.022C534.39 476.036 529.698 475.538 523.869 475.538C522.305 475.538 520.67 475.609 518.893 475.609C517.968 475.68 517.044 475.68 516.049 475.68C508.94 475.822 505.243 473.618 503.466 471.769C502.826 471.058 502.329 470.418 502.044 469.849C501.76 468.427 501.476 467.36 501.262 467.218C501.049 467.004 500.694 466.933 500.48 467.075C500.196 467.218 499.983 467.502 499.983 467.929C499.912 468.569 500.196 469.422 500.623 470.347C501.191 473.547 501.831 479.307 500.836 482.009C499.77 485.422 499.841 487.698 499.983 491.822ZM501.476 491.822C501.262 487.698 501.191 485.707 502.4 482.436C503.253 480.231 503.111 476.178 502.684 472.836C504.675 474.898 508.727 477.316 516.333 477.173C517.258 477.102 518.182 477.102 519.177 477.102C526.428 476.889 533.182 476.747 535.528 479.947C536.807 481.653 536.736 484.356 535.385 488.196C532.968 495.236 532.826 501.849 534.319 503.343C534.674 503.769 535.172 503.84 535.599 503.698C535.741 503.627 535.883 503.556 536.025 503.485C535.954 503.983 535.954 504.48 535.954 505.049C534.603 508.107 533.182 511.805 532.186 516.498C531.333 520.409 527.566 523.538 522.092 524.605C516.76 525.672 509.864 524.747 506.523 520.125C503.679 516.285 503.182 510.596 502.684 505.12C502.4 502.276 502.187 499.574 501.618 497.156C501.618 495.022 501.547 493.316 501.476 491.822ZM502.187 513.085C502.755 516 503.679 518.703 505.315 520.978C509.011 526.098 516.547 527.165 522.305 525.956C528.276 524.676 532.471 521.263 533.537 516.712C534.177 513.796 534.959 511.236 535.812 509.031C535.741 511.52 535.67 514.223 535.599 517.28C535.528 520.623 535.528 523.254 535.385 524.534C535.314 525.316 533.892 530.721 531.902 537.263C527.21 538.543 522.589 540.676 517.968 543.023C516.76 542.454 515.338 541.885 513.561 541.387C505.243 538.685 503.537 525.956 502.187 513.085ZM503.111 533.067C503.182 536.267 502.897 541.316 502.4 547.29C502.329 542.17 502.684 536.552 503.111 533.067ZM467.424 541.103C468.206 541.53 468.846 546.081 468.917 550.845C468.917 551.272 469.272 551.556 469.628 551.556C469.983 551.627 470.338 551.272 470.41 550.916C471.049 545.867 473.538 532.285 477.021 530.081C479.367 528.587 485.978 527.592 491.239 526.738C494.011 526.312 496.002 525.956 497.495 525.672C495.646 528.089 493.3 531.716 492.092 534.703C490.244 539.325 493.016 541.53 495.078 543.023C496.002 543.734 496.784 544.374 496.997 545.014C497.281 545.939 497.281 546.01 495.22 547.147C493.727 548.001 491.381 549.352 488.04 551.983C486.049 553.548 485.196 558.383 485.409 566.703C485.623 573.174 486.405 581.708 487.898 592.09C490.457 610.081 494.082 627.717 494.509 628.926C494.722 629.637 495.291 629.637 495.433 629.637C496.428 629.495 496.713 629.495 499.13 600.481C499.485 596.215 499.841 591.806 500.196 587.681C500.623 582.774 501.191 577.228 501.76 571.325C502.258 565.921 502.826 560.374 503.253 555.254C503.608 555.681 503.964 556.108 504.39 556.463C506.239 557.956 508.727 558.81 512.139 558.881C506.381 572.392 497.281 618.544 504.888 624.659C505.03 624.802 505.172 624.873 505.243 624.944C504.39 627.006 503.537 628.428 502.471 628.997C494.082 633.975 489.39 631.699 482.353 628.286C481.642 627.931 480.86 627.575 480.078 627.219C478.514 626.437 476.239 623.095 476.95 609.299C477.661 608.73 478.443 608.09 479.367 607.166C482.495 604.392 486.12 600.766 486.476 599.699C486.618 599.272 486.547 598.988 486.334 598.775C486.049 597.921 485.481 593.086 484.983 588.819C483.206 573.601 482.779 572.179 481.642 572.179C480.789 572.108 480.575 573.174 480.504 573.672C480.007 576.161 477.447 589.103 476.168 601.69C475.883 604.108 475.741 606.384 475.599 608.517C474.959 609.015 474.462 609.37 474.035 609.726C473.538 603.184 473.04 596.855 472.613 591.877C471.689 580.854 468.703 545.441 467.211 541.032L467.424 541.103ZM477.092 607.308C477.234 605.673 477.376 603.895 477.59 601.904C478.727 590.739 480.86 579.361 481.642 575.237C482.282 578.294 482.992 584.623 483.49 589.103C484.343 596.286 484.627 598.632 484.983 599.486C484.343 600.41 481.642 603.326 478.372 606.17C477.945 606.597 477.519 606.953 477.092 607.308ZM471.405 638.668C471.263 637.317 470.125 624.162 468.632 608.161C469.343 612.428 469.841 612.57 470.267 612.713C470.552 612.855 471.12 613.068 472.756 612.215C473.893 627.646 474.462 638.953 474.319 641.442C471.618 641.3 458.751 640.091 444.391 638.242C433.727 636.891 426.761 635.824 422.282 634.971L422.566 633.762L470.623 639.38C470.836 639.38 471.049 639.308 471.192 639.166C471.334 639.095 471.476 638.882 471.405 638.668ZM458.751 539.61C462.803 540.463 465.291 541.032 465.86 541.458C466.713 543.307 468.917 563.859 471.192 591.592C471.76 598.277 472.258 604.677 472.684 610.579C471.76 611.148 471.192 611.29 470.978 611.29C469.201 608.161 466.144 568.125 464.651 543.307C464.58 543.094 464.438 542.81 464.225 542.738C462.945 542.17 460.884 541.032 458.751 539.61ZM413.893 643.575C409.699 662.633 407.14 674.367 407.14 676.073C407.069 676.642 407.353 677.14 407.851 677.424C410.908 679.629 426.192 674.793 431.239 673.158C431.168 674.295 431.026 676.215 430.742 677.282C429.391 678.207 418.727 681.762 406.429 681.264C391.003 680.696 373.088 675.504 370.742 674.153C369.96 672.66 371.737 659.86 379.344 628.499C385.031 604.819 390.647 584.837 391.642 583.414C391.998 582.988 393.846 581.779 405.789 583.841C413.467 585.192 421.216 587.183 421.784 587.326C422.069 587.61 423.206 590.028 418.656 609.584C416.097 620.464 413.111 631.202 412.614 632.695C412.543 632.908 412.472 633.335 412.898 633.762C413.254 634.117 414.178 634.544 415.742 634.971C415.173 638.028 414.462 640.873 413.893 643.575ZM416.026 633.691C414.818 633.335 414.32 633.122 414.107 632.979C415.173 629.282 425.836 591.806 423.135 586.828C422.851 586.33 422.424 586.117 422.211 586.046C421.855 585.903 413.964 583.841 406.074 582.49C406.002 582.49 405.931 582.419 405.86 582.419C414.675 583.557 423.988 584.979 425.552 585.619C425.765 588.606 420.505 613.068 416.026 633.691ZM417.519 633.975C419.723 623.948 421.927 613.708 423.633 605.175C427.685 585.406 427.116 584.979 426.618 584.552C425.339 583.557 412.756 581.85 407.424 581.139C400.813 580.286 389.51 578.934 388.372 579.646C387.661 580.072 386.879 582.846 382.827 599.557C380.055 610.935 375.932 628.073 374.51 629.993C370.955 629.779 346.785 626.295 344.368 625.015C343.799 622.739 341.666 601.264 339.676 577.228C337.472 551.272 336.264 532.498 336.477 529.227C340.742 529.512 369.462 532.498 398.325 536.054C452.779 542.738 460.315 545.227 461.239 545.867C462.092 551.059 469.059 628.713 469.912 637.957L422.14 632.339H422.069C421.713 632.339 421.429 632.624 421.358 632.837L420.931 634.757C419.509 634.402 418.372 634.188 417.519 633.975ZM492.732 654.1C487.258 657.015 481.571 659.931 477.661 660.926C476.452 661.211 475.955 661.211 475.812 661.14C475.955 660.358 478.158 657.94 481.073 655.38C482.139 654.526 482.779 653.957 482.85 653.886C483.135 653.602 483.206 653.175 482.921 652.891C482.637 652.535 482.21 652.535 481.926 652.749C481.286 653.246 480.646 653.815 480.007 654.313C477.376 656.518 472.4 660.144 468.632 661.211C466.429 661.851 466.286 661.424 466.073 660.784C465.931 660.358 465.718 659.789 465.149 659.504C464.936 659.362 464.651 659.291 464.296 659.291C463.727 659.291 463.016 659.504 462.021 659.86C459.391 660.855 458.893 660.5 458.893 660.5C458.822 660.429 458.609 660.002 459.888 657.798C460.599 656.446 465.291 652.322 470.338 648.411C481.357 649.762 490.101 650.9 496.926 651.895C495.646 652.606 494.153 653.317 492.732 654.1ZM499.343 650.757C492.447 649.762 483.561 648.553 472.116 647.131C475.955 644.286 479.864 641.797 482.282 641.086C489.106 638.882 505.528 635.042 510.006 637.815C513.348 639.877 514.841 645.495 515.125 649.193C514.556 649.051 513.987 648.909 513.348 648.766C511.499 648.34 509.367 647.842 507.092 647.984C505.243 648.055 502.542 649.193 499.343 650.757ZM501.973 651.113C504.177 650.189 505.954 649.477 507.234 649.406C509.296 649.264 511.286 649.762 513.063 650.189C513.845 650.402 514.556 650.544 515.267 650.686C515.267 651.255 515.196 651.753 515.125 652.037C514.983 652.535 515.196 652.962 515.48 653.317C512.281 652.749 507.945 651.966 501.973 651.113ZM544.343 620.748C544.058 620.819 543.774 620.89 543.561 620.962C542.992 621.175 542.068 621.53 540.788 622.028C536.949 623.522 529.698 626.295 523.3 628.428C512.637 631.984 510.788 631.771 510.504 631.628C509.864 631.202 509.509 631.344 509.296 631.557C508.798 632.055 509.224 632.624 509.793 633.335C510.22 633.833 510.717 634.544 511.357 635.397C513.063 637.602 515.338 640.588 517.044 643.22C519.675 647.344 519.248 648.269 519.035 648.411C518.395 649.122 517.613 649.335 516.547 649.335C516.262 645.282 514.698 638.953 510.931 636.464C505.457 633.051 486.689 638.028 481.997 639.593C479.225 640.517 474.604 643.504 470.267 646.846C447.874 644.073 425.552 641.655 421.073 641.157L422.14 636.393C427.472 637.388 435.078 638.526 444.96 639.735C456.476 641.157 474.319 643.077 475.315 642.793C475.457 642.722 475.67 642.651 475.812 642.295C476.31 641.015 475.386 626.082 474.319 611.29C474.746 611.006 475.173 610.721 475.67 610.366C475.244 621.033 476.594 626.935 479.722 628.428C480.504 628.784 481.215 629.139 481.997 629.495C489.177 632.979 494.438 635.54 503.466 630.206C504.604 629.495 505.741 627.931 506.665 625.726C510.291 628.144 513.205 628.571 515.48 627.219C522.021 623.379 522.376 604.179 516.689 564.997C516.547 563.93 516.404 562.792 515.551 562.792C515.48 562.792 515.48 562.792 515.48 562.792C514.698 562.863 514.414 563.361 513.916 567.485C513.561 569.974 513.277 573.53 512.85 577.726C511.57 590.952 509.509 612.997 505.883 623.45C500.552 619.113 505.243 586.259 510.931 567.059C512.068 563.148 513.063 560.516 513.845 558.881C514.769 558.881 515.694 558.81 516.76 558.668C516.831 558.881 516.831 559.094 516.902 559.379C517.186 562.081 517.897 565.708 520.03 565.708H520.101C521.665 565.637 523.3 563.716 525.433 559.236C525.859 558.383 526.286 557.459 526.712 556.392C526.499 557.174 526.286 557.956 526.144 558.739C520.172 580.214 522.163 604.535 523.087 616.268C523.3 618.686 523.442 620.606 523.442 621.744C523.513 622.882 523.513 624.019 524.367 624.162C525.291 624.304 525.575 623.45 527.068 617.264C527.779 614.277 528.632 610.935 529.414 608.659C530.125 606.668 532.257 601.477 534.674 595.432C534.674 595.504 534.674 595.503 534.674 595.503C533.111 603.397 532.968 608.233 534.177 610.081C534.817 611.077 535.599 611.646 536.665 611.859C538.371 612.215 540.362 611.361 542.494 610.153C542.352 611.29 542.281 612.499 542.21 613.637L542.139 614.348C541.855 617.406 542.85 619.326 544.343 620.748ZM507.021 624.375C510.433 614.988 512.495 596.57 514.272 577.868C514.698 573.601 515.054 569.477 515.409 566.845C520.599 603.255 520.314 622.597 514.627 626.011C512.779 627.077 510.22 626.508 507.021 624.375ZM542.637 608.517C540.433 609.939 538.371 610.935 536.949 610.65C536.31 610.508 535.812 610.153 535.385 609.513C533.893 607.166 535.314 598.49 537.945 587.752C543.134 575.237 546.191 567.557 546.262 566.49C546.333 565.708 545.764 564.57 544.84 563.076C547.613 553.974 550.385 545.583 552.234 540.107C552.376 539.752 552.163 539.396 551.878 539.254C549.745 538.045 547.613 537.192 545.48 536.694C544.982 534.703 544.485 532.427 543.845 529.867C543.845 529.725 543.774 529.583 543.774 529.512C546.546 531.218 552.305 533.067 560.267 535.556C567.091 537.618 574.84 540.036 576.262 541.672C577.47 543.023 578.181 544.374 578.679 545.796C571.072 546.934 554.224 554.401 550.243 562.721C547.328 568.908 544.769 584.268 542.637 608.517ZM558.063 606.739C557.565 604.535 556.641 603.255 555.29 602.686C554.864 602.472 554.366 602.401 553.94 602.401C551.452 602.401 548.537 604.464 545.338 606.668C544.911 606.953 544.556 607.237 544.129 607.521C546.191 584.126 548.75 569.263 551.523 563.432C555.29 555.539 572.068 548.214 579.105 547.29C579.603 549.352 579.603 551.627 579.532 553.974C579.461 556.108 574.414 559.948 569.579 563.716C565.03 567.201 560.409 570.757 557.708 574.17C555.433 577.014 554.864 578.223 555.148 579.29C555.433 580.286 556.428 580.641 557.708 581.139C559.343 581.779 561.475 582.632 563.821 585.05C569.366 590.881 575.409 608.588 571.641 625.299C570.575 630.206 566.665 633.477 561.617 635.966C561.333 626.722 559.698 613.779 558.063 606.739ZM540.859 646.775C533.182 647.7 530.196 647.273 529.485 646.917C529.556 646.846 529.556 646.846 529.627 646.775C531.262 645.353 536.096 644.357 541.641 643.22C547.4 642.011 554.153 640.588 559.982 638.242C559.911 640.517 559.84 642.082 559.627 643.22C554.011 644.784 547.186 646.064 540.859 646.775ZM600.361 601.192C601.356 600.979 601.996 600.979 602.352 601.05C602.281 601.121 602.21 601.192 602.138 601.264C601.143 601.69 599.792 601.975 598.584 601.832C599.153 601.548 599.792 601.335 600.361 601.192ZM610.456 611.859C610.243 614.348 609.958 618.97 609.674 624.304C609.318 631.059 608.821 640.517 608.252 644.926C606.688 633.762 606.546 610.224 606.901 600.41C607.115 594.864 605.053 591.308 603.489 588.677C602.138 586.401 601.57 585.192 602.21 583.912C603.205 582.063 606.048 579.503 608.821 579.503H609.176C609.887 579.574 610.527 579.788 611.096 580.214C611.167 580.357 611.167 580.499 611.167 580.57C611.238 584.481 611.238 603.397 610.456 611.859ZM652.114 662.491C649.413 663.131 625.243 662.562 618.702 658.082C617.849 657.513 617.423 656.944 617.281 656.375C616.57 651.682 617.636 645.566 618.489 644.5C618.631 644.713 618.844 645.069 619.058 645.851C619.698 648.197 618.987 649.904 618.418 651.469C617.92 652.749 617.494 654.029 618.062 655.095C618.631 656.162 620.124 656.944 622.968 657.584C626.522 658.366 638.963 660.002 652.825 661.566C652.541 662.206 652.257 662.491 652.114 662.491ZM696.759 592.303C698.82 598.277 701.664 603.184 704.081 607.521C707.564 613.637 710.621 618.899 710.266 625.015C710.052 629.708 707.067 633.051 704.578 635.042C703.725 635.753 702.872 636.322 701.948 636.82C703.299 633.193 704.863 629.708 705.645 628.215C706.213 627.291 706 626.722 705.787 626.366C705.36 625.726 704.436 625.442 702.943 625.442C701.593 625.442 699.673 625.655 697.114 626.011C695.621 626.224 693.986 626.366 692.422 626.508C691.925 626.579 691.64 626.579 691.498 626.508C691.64 626.082 692.28 625.015 692.849 624.09C695.479 619.966 700.384 612.286 697.612 601.192C695.692 593.441 694.768 588.89 694.413 586.472C695.124 587.61 695.763 589.459 696.759 592.303ZM694.413 597.921C694.484 596.784 694.342 594.792 694.199 592.232C694.768 594.65 695.408 597.637 696.403 601.619C698.962 611.93 694.555 619.255 691.996 623.237C693.417 612.215 694.27 601.761 694.413 597.921ZM672.233 514.152C674.294 515.005 676.214 516.072 677.92 517.28C680.835 519.485 684.602 533.494 688.228 555.823C691.214 574.241 693.204 593.157 692.991 597.779C692.778 602.401 691.64 616.339 689.721 629.282C687.446 644.5 685.384 649.975 684.105 651.966C684.034 650.829 683.607 649.762 682.541 648.837C681.19 647.629 679.128 647.344 676.996 647.06C672.944 646.491 669.105 645.993 669.247 639.735C669.318 638.313 669.318 636.535 669.318 634.473C669.46 623.095 669.745 599.415 671.664 596.286C672.375 595.219 673.583 594.508 674.863 594.01C676.072 594.224 677.28 593.939 678.204 593.726C678.489 593.655 678.773 593.583 679.057 593.512C679.413 593.441 680.053 593.37 680.124 592.73C680.124 592.446 679.981 592.09 679.555 591.948C679.057 591.806 676.925 591.806 674.792 592.517C673.37 592.09 671.948 590.81 670.882 587.183C670.1 584.766 665.053 567.77 662.991 553.974C664.342 549.352 666.048 544.516 667.612 540.036C670.882 530.721 673.441 523.396 672.162 519.983C671.38 517.992 669.389 516.498 666.19 515.645C665.408 515.432 664.626 515.289 663.773 515.147C668.82 514.934 671.237 514.649 672.233 514.152ZM581.096 490.969C575.48 484.853 573.703 475.324 576.759 466.862C579.745 458.613 586.712 453.28 595.314 452.64C597.447 452.711 599.082 451.289 600.788 449.795C604.698 446.382 609.674 442.115 624.176 450.506C640.527 460.035 645.005 473.262 649.413 485.991C650.55 489.405 651.759 492.889 653.11 496.231C656.095 503.414 659.934 507.467 663.418 509.885C661.498 509.387 659.437 508.889 657.375 508.391C654.318 507.68 651.119 506.898 648.062 506.045C636.617 502.774 624.532 493.458 618.702 483.36C617.849 481.867 616.996 480.231 616.001 478.453C611.949 470.702 607.328 461.955 600.148 460.106C599.295 459.822 598.371 459.751 597.447 459.751C594.745 459.751 591.83 460.746 588.845 462.667C583.868 466.08 578.537 473.76 581.096 490.969ZM589.769 463.875C591.191 462.951 592.47 462.311 593.75 461.884C593.608 462.382 593.466 463.164 593.466 464.16C592.612 465.795 590.693 467.573 588.845 469.351C587.494 470.631 586.001 472.053 584.935 473.404C583.868 474.756 582.873 476.178 582.091 478.098C583.086 470.204 586.499 466.08 589.769 463.875ZM625.811 500.782C625.527 500.427 624.674 499.502 623.607 499.645C622.115 499.929 621.333 502.062 620.195 505.263C618.205 510.738 615.361 518.347 608.11 518.987C608.039 518.987 608.039 518.987 608.039 518.987C606.119 518.987 600.646 516.854 595.101 512.658C591.333 509.814 584.793 503.84 583.371 496.089C583.371 495.947 583.3 495.734 583.3 495.591C583.442 495.307 583.371 494.809 583.086 494.027C582.873 492.889 582.66 491.751 582.518 490.756C581.451 481.013 583.513 477.387 586.001 474.258C587.067 472.978 588.489 471.627 589.84 470.347C591.262 468.995 592.684 467.715 593.679 466.435C594.247 469.707 595.883 474.187 599.935 478.667C605.124 484.427 608.11 486.276 611.878 488.622C614.721 490.4 617.92 492.391 622.897 496.445C625.953 498.934 628.655 500.854 631.001 502.489C636.19 506.187 639.674 508.534 641.024 513.156C636.048 511.023 630.859 506.898 625.811 500.782ZM631.925 501.422C629.508 499.716 626.878 497.867 623.892 495.378C618.844 491.253 615.574 489.191 612.731 487.413C608.892 485.067 606.119 483.36 601.072 477.742C596.238 472.409 595.172 467.36 595.029 464.444C595.314 463.804 595.527 463.164 595.527 462.524C595.598 462.24 595.598 461.742 595.385 461.387C596.949 461.031 598.513 461.031 600.006 461.458C606.617 463.164 611.025 471.627 615.006 479.093C615.93 480.871 616.854 482.578 617.707 484.071C623.75 494.454 636.119 504.054 647.92 507.396C651.048 508.32 654.247 509.031 657.304 509.814C661.854 510.88 666.19 511.876 670.1 513.298C667.683 513.654 663.133 514.009 658.939 514.294C656.166 514.507 653.394 514.649 650.479 514.934C647.991 515.147 645.432 514.792 642.873 513.938C641.522 508.107 637.683 505.476 631.925 501.422ZM649.058 516.356C646.854 516.996 645.148 517.707 644.081 518.56C643.797 518.774 643.513 519.058 643.299 519.414C643.299 518.845 643.228 518.347 643.228 517.849C643.157 516.996 643.157 516.214 643.015 515.503C645.077 516.072 647.067 516.356 649.058 516.356ZM648.133 579.574C644.294 557.956 642.446 540.392 642.731 529.938C642.944 528.018 643.086 526.241 643.228 524.534C643.655 522.045 644.223 520.409 645.076 519.698C648.133 517.209 659.081 515.503 665.764 517.209C667.612 517.707 670.029 518.632 670.74 520.623C671.877 523.538 669.105 531.361 666.19 539.681C664.91 543.236 663.631 546.934 662.493 550.632C662.138 547.574 661.996 544.872 662.138 542.525C662.565 535.13 664.2 529.938 665.337 527.734C665.692 527.734 665.977 527.663 666.19 527.521C666.546 527.307 666.759 526.952 666.759 526.525C666.83 525.316 666.119 525.174 665.906 525.174C665.479 525.103 665.053 525.458 664.626 526.098C662.707 525.458 658.512 523.254 656.024 521.974C651.332 519.414 650.124 518.845 649.342 519.058C649.058 519.129 648.915 519.343 648.773 519.556C648.418 520.409 649.484 522.472 653.323 529.441C655.029 532.498 657.304 536.694 657.588 537.761C657.162 538.045 656.238 538.472 655.527 538.756C653.181 539.752 650.764 540.747 651.19 542.383C651.403 543.236 652.896 545.37 655.313 548.712C656.806 550.774 658.868 553.619 659.081 554.259C659.01 554.543 658.868 555.61 658.726 556.961C657.588 565.21 654.531 587.112 655.171 597.566C655.456 602.117 656.806 610.153 658.441 618.117C658.157 618.402 657.873 618.686 657.659 618.899C654.602 608.944 651.048 595.717 648.133 579.574ZM661.427 553.974C660.787 556.321 660.219 558.596 659.792 560.872C660.005 559.521 660.147 558.312 660.29 557.316C660.574 555.325 660.716 554.614 660.716 554.401C660.787 553.69 659.863 552.41 656.664 548.001C655.1 545.796 652.896 542.81 652.754 542.17C652.896 541.672 655.171 540.676 656.166 540.25C657.73 539.61 658.584 539.183 659.01 538.685C659.579 537.903 659.01 536.694 654.674 528.872C653.11 526.098 651.119 522.472 650.408 520.836C651.546 521.334 653.607 522.4 655.313 523.325C659.294 525.529 662.067 526.881 663.844 527.449C663.489 528.161 663.133 529.014 662.849 530.081C662.067 532.569 661.072 536.694 660.645 542.454C660.432 545.583 660.716 549.636 661.427 553.974ZM656.664 597.566C656.238 590.17 657.659 576.872 658.939 566.917C658.797 568.339 658.868 569.761 659.01 571.041C660.574 586.401 665.053 599.201 666.403 602.757C666.901 604.037 664.342 611.006 660.005 616.41C659.863 616.553 659.792 616.695 659.721 616.766C658.228 609.299 656.877 601.832 656.664 597.566ZM660.361 627.504C659.65 625.442 658.939 623.095 658.157 620.535C658.37 620.322 658.583 620.179 658.797 619.895C659.365 622.526 659.863 625.015 660.361 627.504ZM654.674 660.429C655.029 658.864 655.313 656.589 655.313 653.317C655.456 648.411 655.029 642.366 654.389 639.024C653.536 634.544 649.84 633.833 647.138 633.335C645.787 633.051 644.508 632.837 644.152 632.197C644.081 632.126 644.081 632.055 644.081 632.055C644.508 631.344 648.631 630.988 650.693 630.846C652.257 630.704 653.678 630.633 654.674 630.419C655.171 630.277 656.095 630.135 656.166 629.353C656.309 628.499 655.456 628.144 653.536 627.291C651.475 626.366 648.418 624.873 645.574 622.526C645.29 622.313 645.005 622.028 644.65 621.744C646.214 622.242 648.56 622.81 651.261 623.166C653.181 623.45 655.1 622.668 656.806 621.459C658.086 625.513 659.223 628.997 660.219 631.984C661.427 635.611 662.351 638.455 662.92 640.588C663.062 641.015 663.133 641.3 663.204 641.513C663.275 641.797 663.489 642.508 664.2 642.295C664.839 642.153 664.768 641.442 664.697 641.086C664.626 640.802 664.555 640.517 664.484 640.02C664.271 639.095 663.986 637.815 663.631 636.251C662.636 631.842 661.214 625.228 659.934 618.615C660.29 618.188 660.645 617.762 661.001 617.335C665.053 612.286 668.465 604.535 667.612 602.259C666.332 598.704 661.854 586.046 660.361 570.899C660.005 566.988 660.716 562.294 661.925 557.388C664.271 570.685 668.678 585.406 669.389 587.681C670.313 590.739 671.593 592.446 672.873 593.299C671.877 593.868 670.953 594.579 670.313 595.575C668.323 598.775 667.967 616.553 667.754 634.544C667.683 636.535 667.683 638.313 667.683 639.806C667.541 647.344 672.588 647.984 676.711 648.553C678.631 648.837 680.479 649.051 681.474 649.975C682.47 650.9 682.754 651.824 682.541 653.104C677.991 652.962 671.024 652.109 667.043 650.829C667.47 649.549 667.754 648.197 667.896 647.06C668.038 645.922 667.754 645.211 667.256 644.784C666.972 644.571 666.474 644.357 665.621 644.784C664.342 645.424 662.778 647.486 662.707 649.264C662.707 649.691 662.92 650.117 663.275 650.544C663.702 650.971 664.342 651.397 665.266 651.753C664.271 654.384 662.707 656.731 661.001 657.726C660.147 658.224 658.939 659.362 657.588 660.784C656.593 660.642 655.669 660.571 654.674 660.429ZM666.474 646.989C666.332 648.055 666.048 649.264 665.692 650.402C665.053 650.117 664.555 649.833 664.271 649.549C664.128 649.406 664.128 649.335 664.128 649.335C664.2 648.34 664.91 647.131 665.621 646.491C665.977 646.135 666.261 646.064 666.332 645.993C666.474 646.135 666.474 646.42 666.474 646.989ZM658.512 665.833C656.522 667.398 654.176 669.175 652.541 669.815C652.47 669.887 652.47 669.887 652.47 669.887C653.039 668.464 655.669 664.98 658.157 662.349C659.65 662.562 661.214 662.704 662.778 662.846C661.64 663.415 660.219 664.482 658.512 665.833ZM673.228 683.327C673.726 681.264 674.792 677.709 675.858 674.509C676 674.153 675.787 673.727 675.432 673.584C675.076 673.442 674.65 673.655 674.508 674.011C674.436 674.082 670.527 684.322 666.261 687.309C666.119 687.38 666.048 687.451 665.977 687.451C665.906 685.744 668.82 678.776 669.745 676.358C670.669 674.153 670.811 673.727 670.811 673.442C670.882 673.087 670.598 672.802 670.313 672.66C670.171 672.589 670.1 672.589 670.029 672.589C669.602 672.589 669.318 673.015 668.82 673.655C668.465 674.153 668.038 674.864 667.541 675.718C665.835 678.42 662.067 684.464 660.147 686.1C660.787 684.464 662.778 680.767 664.057 678.491C665.408 676.073 666.546 673.94 666.901 673.015C667.185 672.304 666.83 671.949 666.617 671.807C665.906 671.38 665.479 671.949 663.347 674.295C661.285 676.642 657.802 680.482 655.811 681.051C656.238 679.913 658.299 676.998 659.792 674.793C662.707 670.669 665.764 666.331 665.835 663.984C665.906 663.629 665.835 663.273 665.692 662.989C670.669 663.558 675.503 664.126 679.91 664.553C679.199 670.527 675.929 678.989 673.228 683.327ZM680.266 663.344C673.939 662.633 666.688 661.851 659.437 660.998C660.361 660.073 661.143 659.362 661.783 659.006C663.702 657.869 665.479 655.166 666.617 652.251C671.166 653.673 678.631 654.455 682.327 654.597C682.114 655.166 681.972 655.806 681.688 656.518C681.048 658.366 680.337 660.571 680.266 663.06V663.344ZM698.18 665.335C696.19 665.122 689.863 664.411 681.617 663.558C681.688 663.415 681.688 663.273 681.545 663.131C681.688 660.855 682.327 658.793 682.896 657.015C683.18 656.091 683.536 655.237 683.678 654.313C685.1 653.531 686.379 651.042 687.588 646.704C688.725 642.58 689.934 636.82 691 629.566C691.143 628.997 691.214 628.499 691.285 627.931C691.711 628.002 692.209 628.002 692.706 628.002C694.27 627.859 695.906 627.646 697.469 627.504C700.1 627.148 704.081 626.651 704.649 627.219C704.649 627.291 704.578 627.362 704.507 627.575C703.583 629.211 701.664 633.619 700.1 637.886C699.673 638.1 699.318 638.242 698.962 638.384C696.19 638.526 693.062 638.953 692.351 639.451C691.996 639.664 691.924 640.02 691.996 640.304C692.138 640.944 692.778 641.015 693.133 641.086C694.342 641.3 696.616 640.873 699.176 639.806H699.389C698.323 642.864 697.541 645.637 697.469 647.06C696.403 650.757 697.327 654.74 699.673 658.011C699.176 660.429 698.678 662.918 698.18 665.335ZM700.029 655.949C698.536 653.246 698.038 650.26 698.891 647.415C698.962 647.344 698.962 647.273 698.962 647.202C699.033 645.922 699.887 643.006 701.024 639.806C701.593 639.806 702.019 639.877 702.304 639.948C702.517 641.371 701.522 648.126 700.029 655.949ZM463.301 811.897C457.329 810.404 452.14 809.053 447.874 808.768C447.305 808.555 446.666 808.484 446.026 808.484C446.097 807.701 446.097 806.848 446.168 805.924C446.737 796.75 447.021 788.928 444.746 787.008C444.249 786.581 443.609 786.439 442.969 786.581L442.827 786.652C440.552 787.506 433.941 788.501 427.187 788.572C419.723 788.714 414.604 787.648 413.538 785.799C413.467 785.657 413.396 785.586 413.396 785.443C415.102 785.372 417.661 785.728 420.931 786.226C423.419 786.581 426.121 787.008 429.391 787.292H429.533C436.358 786.723 438.561 786.439 439.272 785.159C439.77 784.163 439.13 783.026 438.135 781.39C437.282 779.968 436.215 778.048 435.22 775.417C437.779 767.95 437.424 762.332 434.225 759.63C430.955 756.785 425.268 757.283 418.23 761.052L418.088 761.123L418.017 761.194C415.244 764.039 416.026 767.31 416.737 770.51C417.448 773.568 418.088 776.412 416.026 779.185C413.751 781.034 412.472 782.67 412.116 784.163C411.192 784.377 410.481 784.732 409.912 785.372C407.638 788.003 409.273 794.048 413.609 810.333L414.107 812.039L414.249 812.181C421.571 820.502 430.742 816.164 438.135 812.75C440.623 811.613 442.827 810.546 444.675 810.119C444.604 810.83 444.604 811.399 444.746 811.684V811.755C445.599 815.239 444.178 817.799 440.694 819.293C432.021 823.062 414.818 819.435 412.685 816.235C410.126 812.75 410.41 809.835 410.694 807.559C411.05 804.217 410.908 802.084 405.221 801.444C395.268 799.595 382.969 797.461 369.747 795.257C372.448 791.061 374.225 783.879 377.567 770.083C378.42 766.812 379.273 763.043 380.339 758.919V758.848C381.334 753.799 382.756 747.825 384.249 741.496C387.732 727.132 391.358 712.198 390.647 703.451C390.647 703.167 390.576 702.811 390.221 702.527C387.946 700.038 371.24 699.256 346.145 698.331C337.472 697.976 329.368 697.691 323.112 697.265H323.041C320.055 697.336 316.216 697.051 312.093 696.838C299.724 696.127 291.477 695.842 289.416 698.189C289.06 698.616 288.847 699.114 288.918 699.682C283.729 713.763 278.752 731.043 274.416 746.332C271.501 756.572 268.729 766.172 266.383 773.07C264.961 776.199 248.042 779.257 234.392 781.674C215.34 785.088 204.535 787.15 204.606 790.635C204.606 792.412 206.952 794.475 223.729 797.319C226.146 797.675 229.061 798.315 231.904 798.955C237.591 800.164 242.923 801.372 245.553 800.804L245.838 800.732L246.051 800.519C246.833 799.523 246.762 798.67 246.549 798.101C245.553 795.612 239.724 794.617 230.269 793.266C224.795 792.483 219.179 791.63 216.193 790.35L216.051 790.279C218.255 789.497 223.729 788.43 228.35 787.506C232.402 786.723 236.596 785.87 239.795 785.088C272.283 780.039 274.203 774.35 275.411 771.008C276.051 769.23 276.335 768.305 284.439 769.088C293.183 769.87 310.814 772.643 343.799 777.905C344.794 778.119 345.861 778.261 346.358 777.55C346.785 776.839 346.145 776.128 345.932 775.843C344.297 773.852 337.828 769.657 332.354 767.31C333.42 764.608 334.486 761.052 335.624 757.07C336.335 754.652 336.975 752.447 337.472 750.954C337.685 750.599 337.828 750.314 337.97 749.959C338.325 750.456 338.752 750.67 339.107 750.741C341.666 751.167 344.51 744.625 345.292 740.998L345.434 740.501L345.008 740.216C344.439 739.79 343.728 739.647 343.088 739.79C343.017 739.861 342.946 739.861 342.875 739.861C345.221 734.172 346.856 727.843 345.15 721.798L345.079 721.656C343.23 717.603 338.539 714.545 333.278 713.976C328.302 713.407 323.823 715.185 320.979 718.669C319.842 718.527 318.847 718.883 317.994 719.665C314.155 723.363 314.866 736.305 315.648 740.145C315.506 741.354 315.15 742.136 314.795 742.634C314.724 741.781 314.724 740.998 314.724 740.216C314.724 736.163 314.724 734.101 313.444 733.674C312.52 733.318 311.596 734.385 310.743 735.452L310.6 735.594L310.529 735.807C309.818 740.145 310.956 742.847 312.307 743.843C312.662 744.127 312.946 744.27 313.302 744.341C313.373 745.976 313.515 747.754 313.799 749.532C312.306 754.439 311.027 759.488 310.671 763.256C309.321 763.185 307.757 763.328 305.98 763.47C300.506 763.683 295.885 764.039 292.188 764.323C285.079 764.892 280.743 765.248 279.321 763.47C277.544 761.123 279.605 754.296 283.871 740.714C286.359 732.892 289.629 722.225 293.468 708.5L293.539 708.216L293.468 708.074C294.036 707.576 297.093 706.794 312.307 707.647C323.041 708.287 336.406 709.425 349.415 710.634C361.003 711.7 371.951 712.625 379.486 713.051H379.77L379.842 712.98C380.055 713.905 379.913 717.389 376.927 729.905C374.652 739.221 371.524 750.741 368.823 760.91C367.045 767.594 365.268 773.923 364.131 778.403L364.06 778.546C364.06 778.759 363.989 778.901 363.917 779.043L363.633 778.759L363.491 778.688L363.349 778.617C361.714 777.905 349.486 773.497 346.856 775.985C346.501 776.27 346.003 776.981 346.429 778.261L346.572 778.617L346.927 778.759C349.06 779.541 359.581 783.026 363.704 781.177C365.268 783.239 365.766 785.728 365.055 788.074C364.344 790.492 362.425 792.412 359.936 793.479C352.33 792.199 344.581 790.919 336.903 789.71C315.079 786.154 294.463 782.812 280.743 780.252C276.264 779.47 273.776 779.043 270.861 779.754C253.942 782.67 252.52 784.377 252.52 785.728C252.52 787.932 257.425 788.928 270.435 790.919C277.828 792.128 286.217 793.408 290.909 795.186L292.615 795.612C328.159 803.932 328.159 803.932 354.676 796.466L358.017 795.541C358.728 795.399 359.439 795.186 360.079 794.972C362.425 795.399 364.771 795.755 367.116 796.11C364.557 798.741 361.003 799.595 354.818 801.159C352.543 801.728 350.055 802.297 347.14 803.15C341.098 804.501 335.482 805.995 330.008 807.417C318.065 810.475 307.686 813.177 297.52 813.888C294.747 813.106 292.046 812.608 289.416 812.181C293.112 809.977 294.961 807.844 295.174 805.568C295.458 802.226 292.046 799.097 284.724 796.039C273.492 791.203 260.411 792.91 247.046 801.017C236.809 807.132 226.644 817.017 219.819 827.328L219.606 827.613V827.684C216.407 828.039 213.421 830.03 211.075 831.595C209.369 832.804 207.521 834.013 206.739 833.657C206.454 833.515 205.885 832.875 205.743 830.386V830.244C204.464 824.626 204.037 816.448 203.54 806.137C202.686 788.857 201.62 765.959 195.293 741.994C195.364 742.207 195.435 742.35 195.506 742.492C196.075 743.914 196.573 745.407 197.141 746.901L197.426 747.541L198.066 747.256C203.753 745.194 215.696 729.692 223.231 703.238C227.07 689.727 225.151 688.873 224.582 688.589C223.658 688.162 222.52 689.016 221.241 691.078C220.388 692.429 219.464 694.42 218.468 696.411C217.26 698.9 214.772 703.949 213.848 704.02C213.848 704.02 213.634 703.949 213.421 703.38C205.885 682.758 209.866 672.233 211.786 667.184C212.568 665.193 212.994 663.984 212.355 663.06C211.715 662.206 210.435 662.135 208.374 662.206C206.952 662.278 205.459 663.202 203.895 664.98C199.061 670.527 194.582 683.967 195.578 695.202C196.715 708.429 197.71 719.949 192.307 730.687C189.961 725.78 187.047 721.087 182.639 716.465C180.151 713.407 176.881 710.634 173.682 707.931C167.284 702.527 161.241 697.336 161.383 690.367C163.09 679.984 172.402 672.091 179.227 666.26L180.364 665.335L180.435 665.051C181.217 658.082 182.995 653.957 184.701 649.904C187.544 643.291 190.033 637.531 186.691 621.388C185.98 615.628 186.549 611.717 187.26 607.166C187.544 605.459 187.758 603.681 187.971 601.69V601.548C187.829 599.699 189.535 597.21 191.312 594.579C193.871 590.739 196.786 586.401 196.146 581.708L196.075 581.566C194.867 577.299 189.179 576.872 183.634 576.374C180.151 576.019 176.454 575.734 175.104 574.383L174.962 574.312C156.905 561.868 140.981 558.454 127.758 564.143C114.891 569.69 104.227 584.054 96.2655 606.881C89.4409 626.295 85.5309 648.482 82.9006 665.62C81.1234 681.336 75.3651 696.482 68.7538 713.976C64.2752 725.709 59.2278 739.078 54.8203 754.225C53.6118 759.061 51.2658 771.79 50.1995 785.443C49.3464 796.821 49.1331 811.826 53.3274 818.795C54.5359 820.786 56.0999 822.137 57.9482 822.564C85.8153 834.511 103.232 837.213 112.758 831.168C123.137 824.484 123.564 808.697 124.133 788.714C124.559 773.639 124.986 757.07 129.749 741.07C129.322 749.034 129.535 757.425 131.384 761.905C132.308 764.11 133.516 765.248 135.08 765.39C136.076 765.461 137.142 765.034 138.279 764.181C137.497 775.417 139.061 787.15 140.981 796.821C145.53 819.506 154.275 840.413 160.459 851.506C160.53 851.72 160.601 851.862 160.815 852.075C162.876 854.066 180.364 854.493 219.25 853.426L221.099 853.355H221.17C225.08 852.786 228.847 850.724 231.549 847.808C232.402 849.586 232.828 851.08 232.615 852.146C232.473 852.573 232.26 852.929 231.904 853.142C206.454 858.76 118.588 855.986 112.474 854.564C94.0617 837.639 80.6258 833.159 64.9861 827.897C61.1472 826.688 57.1662 825.195 53.3274 823.702C43.7303 820.004 35.4128 816.804 32.2138 820.004C30.4366 821.853 30.5787 825.408 32.8536 831.168C35.2707 837.284 39.6782 842.475 43.5881 847.026C48.8488 853.213 53.3274 858.546 52.4032 864.733C51.5502 870.493 45.6497 876.68 34.5598 883.791L35.3417 885C47.0004 877.604 52.9009 871.275 53.825 865.16C54.8914 858.333 49.9151 852.502 44.6545 846.315C40.6735 841.622 36.5503 836.715 34.2043 830.813C32.2138 825.835 31.8584 822.564 33.2091 821.213C35.6972 818.724 44.0147 821.924 52.7587 825.266C56.5975 826.688 60.6496 828.253 64.4884 829.462C80.5547 834.937 93.2797 839.204 111.55 855.986L111.692 856.129L111.834 856.2C114.322 856.982 138.777 857.977 163.8 858.191C182.924 858.404 217.26 858.12 232.26 854.777L232.402 854.706L232.544 854.635C233.326 854.209 233.824 853.497 234.037 852.644C234.392 851.151 233.753 849.088 232.615 846.813C232.828 846.528 233.042 846.244 233.184 845.96C233.468 846.457 233.824 846.884 234.392 847.097C235.174 847.311 235.885 846.884 236.525 846.457L236.596 846.386C240.151 843.613 243.207 839.346 246.051 835.222C249.748 829.959 253.587 824.484 258.563 822.279C259.06 822.137 259.558 821.995 260.127 821.853C265.601 820.501 273.989 818.439 281.24 815.737C283.586 814.884 285.577 814.03 287.283 813.106C290.482 813.461 293.894 814.101 297.307 815.026L297.449 815.097H297.591C307.97 814.386 318.42 811.684 330.505 808.555C335.979 807.132 341.595 805.71 347.638 804.288C350.553 803.506 353.112 802.866 355.316 802.297C362.354 800.59 366.192 799.452 368.965 796.181C382.472 798.386 394.984 800.59 405.149 802.439H405.221C409.912 803.008 409.841 804.146 409.486 806.99C409.202 809.479 408.846 812.75 411.761 816.661C413.609 819.435 422.78 821.924 431.239 821.924C435.007 821.924 438.704 821.426 441.476 820.217C445.599 818.439 447.305 815.239 446.381 811.044C446.31 810.759 446.31 810.19 446.31 809.479C446.879 809.408 447.377 809.55 447.803 809.693L447.945 809.764H448.087C452.282 810.119 457.4 811.399 463.372 812.893C483.632 818.013 511.428 824.982 530.338 798.955L529.201 798.101C510.433 823.773 483.206 816.946 463.301 811.897ZM417.021 780.181L417.092 780.11L417.164 780.039C419.723 776.768 418.941 773.212 418.23 770.083C417.519 767.025 416.95 764.394 419.083 762.19C425.41 758.848 430.599 758.279 433.372 760.625C436.144 763.043 436.287 768.163 433.87 775.061L433.798 775.345L433.87 775.63C434.865 778.545 436.073 780.608 436.997 782.101C437.566 783.097 438.206 784.163 438.064 784.519C437.708 785.23 433.443 785.586 429.604 785.87C426.405 785.514 423.704 785.159 421.287 784.803C418.23 784.377 415.884 784.021 414.036 784.021C413.893 784.021 413.822 784.021 413.751 783.95C414.249 782.67 415.671 781.248 417.021 780.181ZM313.017 742.918C312.022 742.065 311.24 739.79 311.738 736.376C312.235 735.665 312.591 735.381 312.733 735.309C313.017 736.021 313.017 738.438 313.017 740.358C313.017 741.212 313.017 742.065 313.017 742.918ZM347.567 777.621C347.496 777.337 347.638 777.265 347.709 777.194C349.131 775.843 358.372 778.261 362.567 780.039C359.723 781.034 353.112 779.541 347.567 777.621ZM354.178 795.186C328.017 802.581 328.017 802.581 292.828 794.332L291.264 793.977C286.43 792.199 278.326 790.919 270.577 789.639C264.179 788.643 254.582 787.079 253.871 785.87C254.084 785.372 256.075 783.879 271.003 781.248H271.075C273.705 780.608 276.051 781.034 280.387 781.817C294.108 784.377 314.795 787.719 336.619 791.275C343.302 792.341 350.055 793.479 356.666 794.546L354.178 795.186ZM196.786 694.989C195.862 684.109 200.127 671.167 204.748 665.904C205.957 664.482 207.165 663.7 208.16 663.629C210.364 663.486 210.791 663.771 210.862 663.913C211.075 664.198 210.577 665.478 210.151 666.687C208.231 671.878 204.179 682.687 211.786 703.878C212.212 704.945 212.71 705.442 213.421 705.514C213.492 705.514 213.492 705.514 213.492 705.514C215.198 705.514 216.904 702.314 219.393 697.122C220.388 695.131 221.241 693.211 222.094 691.86C222.947 690.509 223.445 690.082 223.658 690.011C223.871 690.509 224.369 692.927 221.525 702.882C214.132 728.625 202.971 742.99 197.852 745.692C197.355 744.483 196.928 743.274 196.502 742.065C195.293 738.794 194.014 735.523 192.663 732.394C198.99 720.874 197.923 708.856 196.786 694.989ZM220.672 852.217L218.824 852.289C211.288 852.502 197.213 852.929 184.985 852.929C165.862 852.857 162.165 851.933 161.455 851.435L161.312 851.293C150.507 831.879 136.858 792.626 139.417 763.114C141.052 761.479 142.758 758.99 144.677 755.576L144.749 755.505C154.203 734.243 171.549 730.829 179.938 729.123C183.137 728.483 184.772 728.127 184.985 726.989C185.198 726.065 184.203 725.212 182.497 724.216L182.355 724.074H182.142C164.654 723.007 152.142 728.341 144.891 739.861C140.839 746.332 138.777 754.154 137.995 762.403C136.431 763.968 135.365 764.252 134.725 764.181C133.801 764.11 133.019 763.256 132.308 761.621C130.246 756.501 130.104 745.834 131.241 735.523C132.45 732.252 133.872 729.052 135.507 725.923L135.578 725.852C140.199 713.051 146.952 702.385 153.493 692.073C164.867 674.082 175.672 657.086 175.744 629.779C176.383 623.735 178.161 618.686 180.009 613.424C181.502 609.228 182.995 604.89 184.203 599.557L184.274 599.486V599.415C184.274 598.561 184.203 596.712 182.995 596.641C182.142 596.57 180.151 596.357 170.909 623.593C166.004 637.886 161.455 653.317 160.246 659.433C156.62 670.598 151.36 680.624 145.815 691.291C142.687 697.265 139.488 703.451 136.573 709.923C133.303 713.691 131.028 725.425 130.033 734.385C130.033 734.669 129.962 734.883 129.962 735.167C123.422 753.016 122.924 771.861 122.426 788.857C121.929 808.412 121.502 823.915 111.763 830.102C102.664 835.862 85.6731 833.159 58.2326 821.355L58.0904 821.284C56.6686 820.928 55.3179 819.862 54.3226 818.155C46.8582 805.71 53.6117 764.181 55.9577 754.652C60.2942 739.576 65.3415 726.278 69.8202 714.545C76.5026 696.909 82.2608 681.762 84.0381 665.833C86.6684 648.695 90.5783 626.651 97.3318 607.379C105.223 585.05 115.531 570.899 128.042 565.565C140.767 560.019 156.194 563.361 173.824 575.521C175.601 577.157 179.298 577.512 183.208 577.868C188.255 578.294 193.445 578.792 194.369 581.921C194.867 585.975 192.165 590.099 189.748 593.726C187.758 596.712 186.052 599.272 186.194 601.548C185.98 603.468 185.696 605.175 185.483 606.881C184.843 611.361 184.203 615.557 184.914 621.53V621.602C188.113 637.317 185.767 642.864 182.995 649.264C181.36 653.104 179.44 657.442 178.658 664.482L177.947 665.051C170.981 671.024 161.383 679.131 159.606 690.082V690.225C159.393 697.905 166.004 703.522 172.402 708.927C175.53 711.629 178.8 714.331 181.146 717.247L181.217 717.318C185.838 722.083 188.753 726.989 191.099 732.181C191.028 732.252 191.028 732.323 190.957 732.394L190.815 732.678L190.957 732.963C199.63 760.128 200.909 786.723 201.833 806.137C202.331 816.519 202.758 824.697 204.037 830.457C204.179 833.017 204.748 834.368 205.814 834.866C207.307 835.577 209.156 834.297 211.573 832.662C213.99 831.026 216.762 829.106 219.677 828.964C220.743 831.737 223.089 835.222 225.506 838.919C227.212 841.479 229.061 844.253 230.34 846.671C227.994 849.657 224.44 851.72 220.672 852.217ZM139.772 760.483C140.696 753.016 142.687 746.19 146.241 740.643C152.639 730.545 163.303 725.425 178.089 725.425C179.369 725.425 180.72 725.496 181.999 725.496C182.995 726.136 183.421 726.492 183.563 726.634C183.066 726.989 181.289 727.274 179.796 727.629C171.194 729.336 153.35 732.892 143.54 754.794C142.118 757.212 140.839 759.061 139.772 760.483ZM132.095 729.905C133.374 721.016 135.507 713.336 137.711 710.776L137.782 710.705L137.853 710.563C140.767 704.091 143.967 697.905 147.094 691.86C152.639 681.122 157.971 671.024 161.597 659.718L161.668 659.646C162.805 653.886 167.213 638.882 171.976 624.873C178.232 606.241 181.573 599.486 182.781 598.206C182.852 598.419 182.852 598.775 182.924 599.272C181.715 604.535 180.222 608.73 178.8 612.855C176.952 618.259 175.104 623.308 174.464 629.566V629.637C174.393 656.518 163.729 673.3 152.426 691.149C145.886 701.46 139.132 712.198 134.441 725.14C133.516 726.847 132.734 728.412 132.095 729.905ZM231.478 845.533C230.198 843.257 228.563 840.768 226.857 838.208C224.724 835.008 222.52 831.666 221.383 829.106C221.738 829.177 222.023 829.248 222.307 829.391C226.075 830.742 229.416 835.791 232.189 844.466C231.975 844.822 231.691 845.177 231.478 845.533ZM259.487 820.644C258.918 820.786 258.35 820.928 257.852 821.07L257.71 821.142C252.307 823.559 248.326 829.177 244.487 834.653C241.644 838.706 238.729 842.831 235.317 845.462C234.819 845.817 234.535 845.96 234.392 845.888C234.392 845.888 234.179 845.817 233.824 845.106C233.753 844.964 233.681 844.822 233.681 844.608C247.899 821.853 263.823 811.755 284.084 813.177C276.335 816.448 265.458 819.15 259.487 820.644ZM286.785 811.897C276.548 810.83 267.378 812.466 258.989 816.875C249.606 821.853 241.146 830.315 233.184 842.831C230.269 834.297 226.857 829.462 222.805 828.039C222.165 827.826 221.596 827.684 221.028 827.613C227.781 817.657 237.591 808.199 247.544 802.226C256.572 796.75 270.221 791.488 283.942 797.319C290.411 800.021 293.752 802.866 293.539 805.426C293.326 807.772 290.624 809.906 286.785 811.897ZM343.088 741.212C343.159 741.212 343.302 741.141 343.444 741.212C342.377 745.407 339.889 749.39 339.036 749.247C339.036 749.247 338.752 749.176 338.539 748.252C338.61 748.038 338.752 747.896 338.894 747.612C339.605 746.261 340.387 744.696 341.169 743.132C341.809 742.136 342.448 741.354 343.088 741.212ZM318.633 720.803C319.202 720.234 319.913 720.02 320.695 720.234L321.193 720.376L321.477 719.949C324.036 716.607 328.088 714.971 332.78 715.469C337.543 715.967 341.666 718.669 343.373 722.296C345.292 729.052 342.662 736.376 339.747 742.492C339.178 743.274 338.681 744.198 338.112 745.265C338.041 743.914 338.112 742.065 338.325 739.647C339.818 733.176 338.681 727.629 335.268 724.643C332.922 722.652 329.866 722.154 326.738 723.363C322.046 725.212 318.42 730.403 316.359 737.727C315.861 732.749 315.861 723.434 318.633 720.803ZM316.43 745.478L316.501 745.336C317.709 734.669 321.832 726.989 327.449 724.785C330.008 723.789 332.567 724.145 334.486 725.852C337.472 728.412 338.396 733.532 337.046 739.434V739.576C336.69 743.558 336.761 746.118 336.975 747.754C336.903 747.896 336.832 748.039 336.761 748.11C333.704 754.083 330.221 760.839 325.814 759.488L325.671 759.416L325.458 759.345C322.543 759.772 320.269 759.203 318.562 757.71C316.572 755.932 315.506 752.945 315.008 749.816C315.434 748.394 315.861 746.972 316.43 745.478ZM315.15 744.056C315.079 744.412 315.008 744.767 315.008 745.123C314.866 745.55 314.724 745.905 314.581 746.332C314.51 745.692 314.51 745.052 314.439 744.483C314.795 744.341 314.937 744.198 315.15 744.056ZM368.041 794.688C367.97 794.759 367.898 794.83 367.898 794.901C365.979 794.546 363.989 794.261 361.998 793.906C363.989 792.626 365.481 790.777 366.121 788.572C366.974 785.728 366.406 782.812 364.557 780.394C364.913 779.968 365.126 779.47 365.126 778.972C366.263 774.492 367.97 768.234 369.747 761.55C372.59 751.167 375.789 739.292 377.993 729.834C381.69 714.403 381.121 712.483 380.197 711.843C379.984 711.7 379.557 711.487 378.988 711.771C371.453 711.345 360.647 710.349 349.131 709.354C336.05 708.216 322.614 707.007 311.88 706.367C295.6 705.442 292.615 706.367 291.833 707.434C291.619 707.718 291.548 708.074 291.619 708.429C287.852 722.012 284.511 732.607 282.093 740.43C277.402 755.434 275.482 761.621 277.757 764.536C279.605 766.883 283.942 766.528 291.833 765.888C295.529 765.603 300.079 765.248 305.553 765.034H305.624C307.401 764.892 308.894 764.821 310.103 764.821C310.032 767.025 310.387 768.59 311.382 769.23L311.596 769.372H311.88C314.368 769.23 316.43 768.305 316.998 767.025C317.354 766.456 317.283 765.816 316.856 765.248C316.145 764.252 314.368 763.612 311.667 763.399C311.951 760.839 312.662 757.283 314.013 752.59C314.724 755.079 315.719 757.212 317.496 758.705C319.487 760.412 322.117 761.123 325.387 760.696C328.87 761.621 331.714 758.99 334.131 755.292C333.989 755.719 333.847 756.145 333.776 756.501C332.922 759.488 331.785 763.47 330.505 766.599C328.017 765.674 325.885 765.319 324.676 765.745C323.752 766.101 323.254 766.954 323.254 768.092V768.234L323.325 768.377C324.534 771.577 325.742 773.07 327.235 773.07H327.306C328.799 772.999 330.15 771.363 331.358 768.519C332.922 769.159 334.629 770.012 336.477 771.079C340.529 773.354 343.302 775.488 344.226 776.483C344.084 776.483 343.87 776.412 343.657 776.341H343.586C310.6 771.079 292.899 768.377 284.155 767.523C275.695 766.741 274.629 767.665 273.634 770.439C272.639 773.354 270.719 778.688 239.084 783.594H239.013C235.885 784.377 231.691 785.23 227.568 786.012C215.34 788.43 213.35 788.999 213.35 790.35C213.35 791.275 214.487 791.488 215.198 791.63C218.397 792.981 224.084 793.835 229.558 794.617C235.956 795.541 243.918 796.679 244.7 798.528C244.771 798.599 244.843 798.812 244.558 799.239C242.141 799.595 236.881 798.457 231.762 797.319C228.847 796.679 225.933 796.039 223.516 795.683C217.118 794.617 212.426 793.621 209.44 792.555C205.814 791.346 205.672 790.563 205.672 790.421C205.672 790.137 206.099 788.857 214.132 786.866C219.535 785.514 226.715 784.234 234.25 782.883C253.231 779.47 265.814 776.981 267.307 773.425L267.378 773.354C269.724 766.456 272.496 756.785 275.411 746.545C279.819 731.256 284.724 713.905 289.984 699.825L290.055 699.611L289.984 699.398C289.913 699.185 289.984 699.042 290.127 698.9C291.051 697.905 294.605 697.549 299.013 697.549C302.994 697.549 307.757 697.834 311.525 697.976C315.577 698.189 319.487 698.402 322.543 698.402C328.87 698.829 336.975 699.114 345.647 699.469C355.813 699.825 366.263 700.251 374.51 700.82C386.666 701.745 388.514 702.811 388.728 703.167V703.238C389.439 711.7 385.671 727.203 382.401 740.785C380.908 747.114 379.415 753.087 378.491 758.207C377.496 762.332 376.571 766.03 375.789 769.372C372.377 783.737 370.671 790.777 368.041 794.688ZM311.738 764.892C315.079 765.176 315.719 765.959 315.861 766.101C315.932 766.243 315.932 766.314 315.861 766.456C315.506 767.096 314.226 767.808 312.235 767.95C311.88 767.452 311.667 766.528 311.738 764.892ZM330.079 768.163C329.155 770.297 328.231 771.719 327.306 771.79C326.951 771.79 326.027 771.434 324.747 768.163C324.818 767.594 325.032 767.381 325.529 767.239C326.524 767.168 328.088 767.452 330.079 768.163ZM444.746 805.781C444.675 806.848 444.604 807.773 444.533 808.555C442.471 808.981 439.983 810.119 437.353 811.399C430.102 814.813 421.927 818.653 415.315 811.328L414.889 809.906C410.979 795.043 409.13 788.288 410.908 786.226C411.192 785.941 411.547 785.728 411.974 785.586C412.045 785.87 412.187 786.154 412.329 786.439C415.6 792.057 438.633 789.639 443.324 787.932C443.538 787.861 443.68 788.003 443.822 788.074C445.742 789.71 445.102 800.235 444.746 805.781Z" fill="url(#paint0_linear_4_2)"/>
</g>
<defs>
<linearGradient id="paint0_linear_4_2" x1="383.22" y1="444.002" x2="383.22" y2="885.341" gradientUnits="userSpaceOnUse">
<stop stop-color="#00A6D1"/>
<stop offset="1" stop-color="#005970"/>
</linearGradient>
<clipPath id="clip0_4_2">
<rect width="768" height="1024" fill="white"/>
</clipPath>
<clipPath id="clip1_4_2">
<rect width="1158" height="829" fill="white" transform="translate(-195 295)"/>
</clipPath>
</defs>
</svg>
