<svg width="1920" height="900" viewBox="0 0 1920 900" fill="none" xmlns="http://www.w3.org/2000/svg">
<rect width="1920" height="900" fill="#39AEC7"/>
<g clip-path="url(#clip0_1_2)">
<path d="M1506 734C1916.9 734 2250 542.154 2250 305.5C2250 68.846 1916.9 -123 1506 -123C1095.1 -123 762 68.846 762 305.5C762 542.154 1095.1 734 1506 734Z" fill="white"/>
<path d="M1506 734C1916.9 734 2250 542.154 2250 305.5C2250 68.846 1916.9 -123 1506 -123C1095.1 -123 762 68.846 762 305.5C762 542.154 1095.1 734 1506 734Z" fill="#042B2B"/>
<path d="M1783 385.4C1782.5 385.1 1781.9 385.2 1781.6 385.7C1769.5 404.1 1754.1 405.5 1743.8 400.8C1740.1 399.1 1737.1 396.7 1735 393.9C1735.4 391.9 1735.8 389.7 1736.2 387.6C1739.6 368.4 1738.6 367.8 1737.8 367.3C1737.5 367.1 1737 367 1736.4 366.9C1738 366 1739.7 364.9 1741.2 363.7C1746.7 359.3 1749.7 353.9 1750 348.1C1750.4 338.9 1746 331.2 1741 322.4C1737.6 316.4 1733.7 309.6 1730.8 301.3C1729.4 297.4 1728.3 294.4 1727.4 292.4C1726.3 290 1725.6 288.8 1724.5 289.2C1724.3 289.3 1724.2 289.3 1724 289.4C1722.8 278.4 1721 264.5 1718.7 250.4C1715 227.5 1709.3 199.3 1703.4 194.9C1700.9 193 1698 191.5 1694.9 190.2C1694.5 189.6 1693.7 189.3 1692.3 188.8C1687.6 187.2 1676.6 183.4 1669.5 166.1C1667.6 161.4 1665.9 156.6 1664.3 151.9C1658 133.6 1651.5 114.6 1627.9 100.9C1606.2 88.3 1598.4 95.2 1592.7 100.1C1590.5 102 1588.6 103.6 1586.5 103.6H1586.3H1586.2C1573.2 104.5 1562.8 112.5 1558.2 124.9C1553.5 138 1556.5 152.8 1565.7 161.9L1566.2 163.3C1566.5 164.2 1566.8 164.9 1567 165.3C1567.1 165.9 1567.2 166.5 1567.3 167.1C1569.4 178.7 1579 187.5 1584.6 191.7C1592.5 197.7 1600.8 201.2 1604.3 201H1604.4C1615.9 199.9 1620.3 188.1 1623.1 180.4C1624.2 177.6 1625.5 174 1626.4 173.8C1626.6 173.8 1627 174 1627.6 174.7C1635.3 184 1643.4 190.3 1651.2 193.2C1651.4 194.5 1651.6 195.8 1651.6 197.3C1651.7 199.9 1651.7 203 1651.4 206.4C1651 208.8 1650.8 211.6 1650.7 214.6C1648.9 231.4 1644.2 250.3 1636.6 252.4C1628.8 254.6 1619.1 244.8 1613.3 238.9C1612.8 238.4 1612.4 238 1612.1 237.7C1608.3 225.6 1606.8 215.9 1605.9 209.8C1605 204.3 1604.7 202 1603.5 201.4C1603.1 201.1 1602.6 201.1 1602.1 201.3C1599.4 202.5 1594.9 213 1593.5 217C1591.9 221.5 1590.1 227.2 1591.1 229.3C1592 231.3 1595.6 234.6 1599.1 237.9C1601.4 240.1 1604.6 243.1 1605.2 244.1C1604.9 244.4 1604.3 244.8 1603.9 245.1C1601.5 246.7 1597 249.8 1601 256.3C1603.4 260.2 1610.2 270.4 1616.5 279.4C1629.2 297.6 1630.3 297.1 1631.3 296.7C1632 296.4 1632.2 295.7 1632 294.6C1631.2 291.2 1626.4 280 1621.4 268.1C1616.7 257 1610.5 242.3 1609 237.3C1609.5 237.7 1610.1 238.3 1610.6 238.8C1612.2 243.7 1614.1 248.9 1616.4 254.5C1622.3 268.2 1627 276.9 1631.3 284.5C1636.5 294 1641 302.1 1645.9 316.9C1654.7 343.2 1644.4 368.7 1641.5 372.1C1641.4 372.3 1641 372.4 1640.3 372.3C1633.3 371.3 1613.7 355.6 1611.8 351.3C1610.1 347.3 1612.7 340.3 1616.1 331.5C1616.9 329.3 1617.7 327.1 1618.6 324.7C1622.5 314 1619.6 305.8 1616 295.6C1615.3 293.9 1614.7 292 1614.1 290.1C1613.1 287.2 1611.8 285.2 1610.4 284C1609.7 281.7 1608 279.4 1605.9 276.9C1603.7 274.2 1601.2 271.1 1599.5 267C1598 263.5 1595.5 254.9 1592.9 245.9C1588.9 232 1584.4 216.2 1581.3 211.5C1579.8 209.1 1578.3 209 1577.3 209.3C1572.8 210.8 1571.1 226.4 1571.9 236.5C1572.7 246.6 1577.9 277.1 1580.9 295.3C1582 301.9 1582.9 307.2 1583.2 309.3C1583.7 312.8 1585.2 314.7 1586.7 315.8C1586.3 316.2 1585.9 316.7 1585.7 317.1C1583.6 320.2 1583.4 343.5 1583.3 348.2C1583.2 356.7 1583.4 376.9 1585.5 379.3C1587.1 381.1 1590.9 381.6 1595 382.2C1598.2 382.7 1602 383.2 1602.8 384.4C1604.4 386.7 1601.3 401.9 1598.1 410.1C1598 410.4 1597.9 410.7 1597.8 410.9C1597.6 410 1597.4 408.6 1597.2 407.5C1596.8 404.8 1596.3 401.7 1595.3 399.6C1594.7 398.3 1593.9 398.1 1593.4 398.1C1591.3 398.1 1589.5 401.8 1586.3 408.8C1584.9 412 1583.4 415.3 1582 417.4C1582.7 414.7 1584.1 410.2 1585.6 406.3C1585.8 405.8 1585.5 405.3 1585.1 405C1584.6 404.7 1584.1 404.9 1583.8 405.4C1583.7 405.5 1578 414.4 1573.7 418.1C1574.5 415.8 1576.6 411.5 1577.8 409.3C1579.5 405.8 1579.9 405 1579.9 404.5C1580 404 1579.6 403.6 1579.2 403.4C1578.3 403 1578.1 403.4 1574.7 407.4C1572.4 410.2 1568.6 414.7 1566.5 416.2C1567.2 413.8 1569.9 408.3 1571.3 405.5C1572.2 403.8 1572.9 402.2 1573.3 401.3C1573.5 400.8 1573.9 399.8 1573 399.3C1572.1 398.8 1571.5 399.6 1570.9 400.5C1570.4 401.1 1569.8 402 1569.1 403C1566.9 406.1 1563.7 410.6 1561.2 413C1562.3 410 1565.7 403.6 1569.5 398.9C1572.4 395.3 1575.5 393.5 1577.9 392C1580.2 390.6 1582.3 389.4 1583.3 387.2C1583.5 386.7 1583.5 386.2 1583.2 385.7C1582.6 384.8 1581.5 382.9 1555.4 381.1C1547.5 380.6 1539.6 380.2 1533.8 380C1534.9 379.6 1535.8 379.2 1536.5 378.7C1537.2 378.2 1537.7 377.1 1538 375.5C1545.9 373.3 1554 370.1 1556.5 366.1C1560.9 359.1 1564.9 317.4 1566.4 299.8C1568.7 272.4 1570.5 241.2 1569.2 238.3C1568.7 237.2 1567.5 236.7 1565.6 236.7H1565C1564.3 234.3 1563 232 1561.1 229.7C1558.7 227 1548.9 223.9 1537.7 220.4C1527.7 217.3 1514.1 213.1 1513.2 210.6C1513 210 1512.7 209.1 1511.7 209.3C1510.7 209.6 1510.9 210.3 1511.2 211.7C1511.4 212.5 1511.7 213.5 1512 214.9C1512.8 218.2 1513.4 221 1514 223.6C1511.2 223.1 1508.4 223 1505.6 223.2C1507.5 218.3 1508.7 214.4 1509 213.2V213.1C1509.3 211.8 1510 209.1 1508.2 208.7C1507.2 208.5 1506.1 209.4 1504.5 212C1503.5 213.6 1502.4 215.7 1501.2 218.1C1502.8 212.3 1503.9 208 1504 207C1504.1 205.2 1504.2 201.5 1504.3 196.7C1504.4 191.6 1504.5 185.6 1504.7 179.8C1505.6 177.9 1506.5 176.1 1507.3 174.4C1510.1 168.7 1512.2 164.6 1510.2 160.2C1509.8 159.5 1509.4 158.7 1509 158.2C1509.2 157.5 1509.3 156.8 1509.4 156.2C1512.1 139.3 1510.4 126.4 1504.7 121.7C1502.6 120 1500.1 119.5 1497.4 120.3C1490.8 113 1481.9 112 1475.5 112.4C1465 113.1 1454.4 118.5 1451.2 122.9C1449.3 123.4 1447.8 124.7 1446.7 126.8C1442.9 133.8 1444.3 148 1447.9 157.7V157.8C1447.3 157.5 1446.6 157.4 1446.1 157.7C1443.2 159.3 1446.2 170 1447.6 174.5C1448.6 177.4 1450.5 183.6 1452.6 183.6C1452.8 184.9 1452.9 186.1 1453 187.4C1453.8 196.1 1454.7 204.9 1456.6 212.5C1455.8 212.7 1455.1 213.7 1454.3 222.7C1453.8 228.7 1453.6 235.4 1453.7 240.6C1453.8 243.1 1454.2 245.4 1455 247.3C1454.3 255.5 1453.4 264.3 1452.6 272.8C1451.8 281.1 1451 288.9 1450.4 295.8C1449.9 301.5 1449.4 307.8 1448.9 313.8C1447.8 327.5 1446.5 342.7 1445.6 349.7C1443.9 341.6 1440.1 322 1437.3 302C1431.1 259 1434.3 249.4 1436.7 247.5C1441.3 243.8 1444.5 242.1 1446.6 240.8C1449.4 239.2 1450.9 238.4 1450 235.5C1449.5 233.9 1448.1 232.8 1446.5 231.6C1443.6 229.4 1440.9 227.3 1442.9 222.2C1445.3 216.2 1450 210.1 1452.1 207.8C1452.8 207.5 1453.2 207.1 1453.4 206.8C1453.6 206.5 1453.9 205.9 1453.5 205.4C1453.3 205.1 1452.9 204.9 1452.5 204.9C1452.2 204.9 1451.6 205.4 1450.9 206.1C1448.9 206.8 1443.8 207.6 1439.5 208.2C1431.5 209.5 1422.3 210.9 1418.7 213.2C1414.4 215.9 1411.5 227.1 1410 235.2C1409.5 232.1 1408.8 229.5 1407.5 228.7C1406.5 228.2 1404.1 227.6 1399.9 226.6C1396.2 225.7 1389.3 224 1386.5 222.7C1386.1 222.4 1385.8 222.1 1385.5 221.8C1385.6 221.3 1385.8 220.9 1386 220.4C1387.5 216.2 1388.4 213.2 1387.1 211.8C1386.9 211.5 1386.3 211.2 1385.5 210.9C1386.4 209.4 1387.5 207.8 1388.6 206.1C1392.3 200.6 1396.4 194.4 1397.2 188.5C1397.8 184.6 1397.6 183.3 1396.5 182.9C1395.2 182.4 1394.1 183.9 1391.9 187.2C1390.4 189.4 1388.4 192.2 1386.5 194.1C1385.7 194.8 1385.3 195 1385.2 195C1384 193.7 1385.8 182.9 1386.5 178.9C1386.6 178.1 1386.8 177.3 1386.9 176.6C1387.3 174.2 1388 171.5 1388.6 168.8C1390.5 161 1392.3 153.7 1388.7 150.3C1387.9 149.6 1387 149.2 1386 149.3C1382.7 149.5 1379 153.7 1374.3 159.2C1371.5 162.5 1368.5 165.8 1365.4 168.6C1358.6 174.6 1359.9 191.6 1360.7 204C1360.8 204.5 1360.8 205 1360.8 205.5C1360.5 205.6 1360.2 205.6 1360 205.7C1358.6 206.1 1358.2 206.8 1358 207.4C1357.3 210.4 1357.9 217.7 1360.3 218.3C1361.4 218.6 1362.2 217.9 1362.8 216.1C1363.3 214.6 1363.2 211.6 1363 207.5C1368.2 207.8 1377.7 210.4 1382.6 212.1C1381.2 214.7 1380.5 217 1381 218.8C1381.3 220 1382.2 221.3 1383.5 222.7C1383.6 222.8 1383.6 223 1383.7 223.1C1384 223.6 1384.5 224.1 1385.4 224.5C1385.6 224.7 1385.8 224.8 1385.9 225C1384.7 224.8 1383.5 224.5 1382.1 224.3C1369 222.1 1351.1 219.4 1330.3 216.6C1288.3 211 1246.1 206.1 1227.5 205C1217 204.3 1216.6 204.9 1216.1 205.5C1215.3 206.5 1212.9 209.7 1223 325.9C1223.9 336.2 1222.5 342.8 1218.9 345.9C1213.7 350.5 1203.3 348.1 1191.4 345.5C1180.8 343.2 1168.9 340.5 1156.7 341.4C1142.5 342.5 1130.9 348.4 1121.3 359.5C1120.9 359.9 1121 360.6 1121.4 360.9C1121.8 361.2 1122.5 361.2 1122.8 360.8C1143.8 336.9 1169.9 342.7 1191 347.5C1203.5 350.3 1214.2 352.7 1220.2 347.4C1224.4 343.7 1225.9 336.8 1224.9 325.7C1216.2 225.4 1216.8 208.9 1217.5 206.8C1221.6 205.7 1261.5 209.7 1311.1 216.3C1344.5 220.6 1372.7 224.8 1389.1 227.8C1393.6 231.1 1398.6 233.8 1400.4 234.8C1400.6 237.1 1401.1 246.2 1401.9 257.9C1400.8 246.3 1399.9 238.2 1399.7 236.9C1399.5 236.2 1399 235.9 1398.8 235.8C1393.6 232.5 1346.1 226.1 1307.2 221.4C1269.3 216.8 1222.6 211.7 1221.2 212.1C1221 212.1 1220.6 212.3 1220.4 212.8C1219.3 215.6 1222.7 257.6 1224.8 282.3C1225.4 289 1230.4 348.2 1231.7 350C1232.1 350.6 1232.8 351.6 1253.4 354.8C1263.8 356.4 1274.3 357.8 1276 357.9C1276.1 357.9 1276.1 357.9 1276.1 357.9C1278.2 357.9 1280.2 352.3 1289.5 313.6C1292.4 301.4 1295.4 288.9 1296.4 286.9C1297.5 286.8 1301 287 1305.6 287.5C1300.4 287.4 1298.8 288.4 1298.2 289.4C1296.3 292.1 1287.8 323.6 1281.1 351.3C1276.8 369 1266.9 411.2 1268.4 418.4C1268.6 419.2 1268.9 419.7 1269.3 419.9C1272.4 421.8 1298 429.4 1320.6 430.2C1330.6 430.6 1339.6 429.1 1345.3 427.8C1348.2 427.1 1351 426.3 1353.2 425.6C1356.6 424.4 1356.8 423.8 1356.9 423.4C1357.6 420.9 1357.7 415.5 1357.7 415.3C1357.7 414.9 1357.5 414.6 1357.3 414.4C1357 414.2 1356.7 414.1 1356.4 414.2C1345.4 417.9 1326.9 423 1324 420.9C1323.8 420.8 1323.8 420.7 1323.8 420.6C1323.9 418.3 1328.4 397.5 1333.3 375.3C1334.2 371.4 1335 367.5 1335.9 363.4C1337.3 363.8 1338.8 364.1 1340.7 364.5L1338.9 372.2C1338.8 372.5 1338.9 372.8 1339.1 373C1339.3 373.2 1339.5 373.4 1339.8 373.4C1340.2 373.5 1373.7 377.1 1408.1 381.3C1401.3 386.6 1395.5 392 1394.4 393.9C1392.9 396.6 1392.2 398.7 1393.3 400C1394.3 401.1 1396.4 401 1399.9 399.6C1401.9 398.8 1402.5 399 1402.6 399C1402.7 399 1402.8 399.4 1402.9 399.6C1403.6 401.6 1404.8 402.7 1409 401.5C1411.6 400.7 1414.5 399.3 1417.3 397.5C1416.6 398.7 1416.4 399.6 1416.7 400.3C1417.5 401.8 1419.8 401.5 1421.7 401C1427.4 399.6 1435.5 395.4 1443.3 391.3C1446.2 389.8 1449.1 388.2 1451.9 386.9C1468.4 389.3 1476.6 390.8 1480.6 391.8C1481.6 392.2 1482.6 392.5 1483.7 392.8C1479.8 397.1 1461.2 410.8 1449.9 416.9C1439.9 415.7 1423.9 413.3 1408.1 410.9C1375.2 405.9 1341.2 400.8 1334.7 402.1C1333.6 402.4 1333 402.8 1333 403.6C1333 404.9 1333.1 406 1366.2 411.2C1384.3 414 1406 417 1421.9 419.2C1432.4 420.7 1440.1 421.7 1441.4 422C1443 422.4 1446.2 421.1 1450.1 419.1C1455.4 419.7 1458.8 419.9 1459.9 419.6C1466.8 417.8 1489.1 396.9 1490.3 395.2C1490.5 394.8 1490.6 394.4 1490.5 394C1490.1 393 1488.8 392.4 1484.5 391.1C1483.9 390.8 1483 390.5 1481.6 390.1C1480.2 389.6 1479 389.2 1477.9 388.7C1475.7 387.7 1475.6 387.1 1475.6 387.1C1475.8 386.5 1475.8 385.8 1475.8 385C1477.7 385.1 1479.4 384.6 1480.8 383.1C1483.3 380.4 1478.8 373.3 1470 362.1C1469.4 361.4 1468.8 360.6 1468.4 360C1473.5 359.7 1486.3 355.6 1510.6 346.3C1512.3 345.6 1513.7 345.1 1514.4 344.8C1515.3 344.5 1516.2 344.3 1517.3 344.3C1517.4 344.3 1517.4 344.3 1517.4 344.3C1520.9 346.3 1525.1 347 1527.4 347.4C1527.9 347.5 1528.3 347.6 1528.6 347.6C1529 347.7 1529.8 347.9 1530.2 347.1C1530.5 346.7 1530.4 346.2 1530.1 345.8C1529.3 344.9 1523.1 342.4 1517.9 342.2C1515.1 340.5 1513.3 337.9 1513.7 333.9L1513.8 332.9C1514 330.7 1514.2 328.5 1514.4 326.4C1515.4 325.7 1516.5 325 1517.5 324.3C1522.1 321.1 1526.8 317.8 1529.6 318.9C1530.8 319.4 1531.7 320.8 1532.3 323.2C1534.2 331.5 1536 344.4 1536.7 356C1537 359.5 1537.1 362.5 1537.1 365C1529 368.5 1519.1 370.5 1510.9 372.2C1502.4 373.9 1495.7 375.3 1493 377.7C1492.2 378.4 1491.9 379.2 1492.1 379.9C1492.5 381.1 1494.1 381.5 1495.5 381.7C1501.3 382.5 1515 381 1528 378.3C1530.4 377.8 1533.2 377.1 1536.1 376.4C1535.9 376.9 1535.7 377.2 1535.5 377.4C1534 378.6 1530.1 379.5 1524.2 379.9C1523.3 380 1522.4 380.1 1522.5 381C1522.5 382 1523.5 382 1523.9 382C1524.2 382.1 1524.7 382.1 1525.4 382.1C1542.9 382.5 1577.9 384.5 1581.5 387C1580.6 388.5 1579.1 389.4 1577 390.7C1574.4 392.3 1571.2 394.2 1568 398.1C1565.8 400.8 1563.3 404.7 1561.3 408.4C1558 414.8 1558.9 415.6 1559.3 416.1C1560.3 417.1 1561.7 415.8 1562.2 415.4C1563.8 414 1565.7 411.6 1567.5 409.2C1564.4 415.7 1563.9 417.8 1564.9 418.8C1565.1 419 1565.7 419.5 1566.7 419C1568.6 418.2 1571.6 414.8 1575.1 410.6C1571.3 418.3 1570.8 420.3 1571.8 421.2C1572.7 421.9 1573.8 421.1 1574.1 420.8C1576.4 419.1 1579.1 415.8 1581.3 412.9C1581.3 413 1581.3 413 1581.3 413C1579 420.1 1579.4 421 1580.3 421.5C1581.4 422.1 1582.3 420.9 1582.8 420.3C1584.5 418.2 1586.3 414.1 1588.1 410.1C1589.6 406.8 1592.1 401.4 1593.2 400.7C1593.3 400.8 1593.3 400.9 1593.4 401C1594.2 402.9 1594.7 405.9 1595.1 408.5C1595.7 412.3 1596 414.2 1597.4 414.4C1598.7 414.5 1599.3 413 1599.9 411.6C1602.5 405 1606.9 387.7 1604.4 384C1603.1 382.1 1599.5 381.6 1595.2 380.9C1591.9 380.4 1588.1 379.9 1587 378.6C1586.1 377.4 1585.2 366.5 1585.3 348.8C1585.4 331.7 1586.4 320.3 1587.3 319C1587.4 318.9 1587.4 318.9 1587.4 318.8C1587.7 318.3 1588.1 317.8 1588.6 317.4C1591.4 318.5 1594.7 318 1596.9 317C1597 317 1597.1 316.9 1597.2 316.8C1598.3 315.9 1598.7 315 1598.4 314.2C1598.2 313.6 1597.7 313 1596.2 312.8C1594.2 312.6 1590.8 313.4 1588.3 315C1586.6 314 1585.6 312.2 1585.2 309.6C1584.9 307.5 1584 302.2 1582.9 295.5C1579.8 277.3 1574.7 246.8 1573.9 236.8C1573 225.1 1575.5 212.5 1578 211.7C1578.4 211.6 1579 212.1 1579.6 213.1C1582.4 217.6 1587 233.2 1590.9 247C1593.6 256.5 1596 264.7 1597.6 268.3C1599.5 272.5 1602 275.8 1604.3 278.6C1605.6 280.2 1606.7 281.5 1607.5 282.9C1607 282.7 1606.5 282.7 1606 282.6C1601.1 282.2 1596 286.6 1594.3 289.8C1592.8 292.6 1594.4 295.3 1596.1 298.4C1598.2 302.1 1600.9 306.6 1600.6 313.8C1600.1 327.9 1600.3 362.3 1602.7 377.7C1603.1 380 1603.4 381.5 1604.6 381.5H1604.7C1606.4 381.4 1606.9 380 1608.7 347.6C1609.1 340.4 1609.5 333.7 1609.8 330.2C1610.9 319.3 1610.9 296.1 1610.7 287.9C1611.3 288.8 1611.7 289.9 1612.1 291.1C1612.8 293 1613.4 294.9 1614 296.6C1617.5 306.5 1620.3 314.3 1616.6 324.4C1615.8 326.7 1614.9 329 1614.1 331.1C1610.6 340.4 1607.8 347.7 1609.9 352.5C1612.2 357.9 1632.7 373.7 1640 374.7C1641.4 374.9 1642.4 374.6 1643 373.8C1646.5 369.6 1656.8 343.7 1647.8 316.6C1642.8 301.6 1638.2 293.4 1633 283.8C1628.8 276.2 1624.1 267.6 1618.2 254C1616.5 250 1615 246.1 1613.7 242.4C1619.2 247.9 1627.1 255.2 1634.5 255.2C1635.5 255.2 1636.4 255 1637.4 254.8C1644.4 252.8 1648.7 240.6 1651.2 227.3C1652.3 246.8 1656.2 271.1 1658.7 284.7C1662.8 308 1668 326.9 1672.4 341.3C1669.9 343.2 1667.6 344.1 1665.5 343.8C1661.2 343.2 1657.8 342.2 1655.5 341.5C1653.1 340.8 1652.2 340.5 1651.7 341.4C1651.1 342.4 1651.8 342.9 1655.9 346.3C1660.1 349.8 1664.6 351.9 1667.5 353.3C1668 353.5 1668.5 353.8 1668.9 354C1667.6 354.2 1665.9 354.4 1664.1 354.5C1658 355 1654.2 355.4 1653.2 357.3C1653 357.7 1652.7 358.4 1653.3 359.4C1654.3 361 1656.5 361.5 1658.8 361.9C1662.6 362.7 1666.4 363.4 1667.4 368.3C1668.3 372.9 1668.8 381.2 1668.7 388C1668.6 392.7 1668.2 395.8 1667.7 397.8C1648.2 395.5 1630.5 393.3 1625.5 392.2C1622.3 391.5 1620.5 390.7 1620 389.8C1619.6 389 1620 388 1620.6 386.3C1621.5 384.1 1622.6 381 1621.5 377.1C1621.2 376 1620.4 373.2 1618.4 373.6C1615.2 374.3 1614 386 1615 392.7C1615.2 394.1 1616.2 395.4 1617.8 396.5C1627.7 403.2 1662.5 403.9 1666.5 403C1667 402.9 1668.1 402.6 1669.1 400.1C1670.1 400.2 1671.1 400.4 1672 400.5C1671.2 401.4 1670.4 402.3 1669.7 403.2C1663.5 410.7 1664.3 412.2 1664.5 412.8C1664.8 413.3 1665.5 414.1 1667.3 413.3C1669.9 412.3 1673.1 409.8 1676.2 407.4C1678.5 405.6 1682.3 402.7 1683.4 402.7H1683.5C1683.6 402.8 1683.6 403 1683.6 403.4C1683.5 406.1 1679 412.4 1675.5 417.4C1670.4 424.6 1668.7 427.2 1669.6 428.7C1669.8 429 1670.3 429.6 1671.4 429.4C1674.5 428.9 1678.6 424.7 1683 419.8C1682.5 420.7 1681.9 421.7 1681.4 422.7C1676.1 432.3 1674.6 435.3 1675.8 436.6C1676 436.8 1676.6 437.3 1677.6 436.9C1679.7 436.1 1683.1 431.4 1686.9 425.5C1683.7 433.7 1683.2 436.8 1684.5 437.9C1684.8 438.2 1685.1 438.3 1685.5 438.3C1686.1 438.3 1686.7 438 1687.6 437.3C1690.1 435.6 1692.5 432.4 1694.5 429C1693.6 432.8 1694 433.4 1694.7 433.8C1695.8 434.4 1696.7 433.1 1697.2 432.4C1701.3 426.6 1706.6 413.1 1707.8 404.2C1721 405.7 1730.8 406.7 1732 406.8C1732.5 406.9 1733 406.5 1733.1 406C1733.1 405.9 1734 401.9 1735 396.5C1737.2 399 1740.1 401.1 1743.4 402.7C1749.6 405.5 1756.6 406 1763.2 403.8C1770.9 401.3 1778 395.5 1783.7 386.8C1783.6 386.3 1783.4 385.7 1783 385.4ZM1606.9 234.8C1606.5 234.9 1606.3 235.1 1606.1 235.4C1605.4 236.9 1607.7 243.2 1618.8 269.2C1623.1 279.4 1627.3 289.1 1628.8 293.7C1623.3 287.4 1607 263.5 1602.1 255.6C1599.2 250.7 1601.9 248.8 1604.4 247.1C1605.6 246.3 1606.6 245.6 1606.6 244.6C1606.7 243.3 1604.9 241.5 1599.9 236.8C1596.7 233.8 1593.1 230.4 1592.3 228.8C1592 228.2 1592.1 225.3 1594.6 218.6C1597.4 211 1600.7 205.1 1602 203.8C1602.4 204.8 1602.9 207.6 1603.3 210.6C1604.2 216.2 1605.5 224.8 1608.6 235.5C1608.1 234.8 1607.5 234.6 1606.9 234.8ZM1360.3 215.1C1360.2 215.3 1360.1 215.5 1360.1 215.6C1359.4 214.2 1358.8 210.1 1359.4 207.5C1359.4 207.5 1359.5 207.3 1360.3 207.2C1360.4 207.2 1360.4 207.2 1360.4 207.2C1360.5 210.9 1360.6 214 1360.3 215.1ZM1362.2 205.2C1362.1 204.7 1362.1 204.1 1362.1 203.6C1361.3 192.3 1360.1 175.2 1366.1 169.9C1369.4 167.1 1372.5 163.5 1375.2 160.3C1379.2 155.7 1383.1 151.2 1385.5 151.1C1385.9 151 1386.3 151.2 1386.7 151.6C1389.5 154.2 1387.7 161.3 1386 168.1C1385.3 170.8 1384.7 173.5 1384.3 176C1384.2 176.8 1384.1 177.5 1383.9 178.3C1381.9 190.2 1381.4 195.3 1383.7 196.6C1385.2 197.4 1386.8 195.9 1387.3 195.4C1389.4 193.4 1391.4 190.5 1393 188.2C1393.6 187.3 1394.3 186.3 1394.9 185.6C1394.9 186.2 1394.8 187 1394.6 188.1C1393.8 193.5 1389.9 199.5 1386.3 204.8C1385.1 206.6 1384 208.3 1383 209.9C1377.7 208 1367.8 205.4 1362.2 205.2ZM1383.5 219.6C1383.4 219.7 1383.4 219.8 1383.4 219.9C1382.8 219.2 1382.5 218.6 1382.3 218C1381.9 216.7 1382.7 214.8 1383.9 212.6C1384.5 212.8 1384.9 213 1385 213.1C1385.5 213.8 1384 218 1383.5 219.6ZM1441 419.7C1439.6 419.4 1431.9 418.4 1421.4 416.9C1398.8 413.7 1349.1 406.9 1336.7 403.7C1336.8 403.7 1336.9 403.7 1336.9 403.6C1347.4 403.6 1378.9 408.4 1406.9 412.6C1423.6 415.1 1436.8 417.1 1445.8 418.2C1443.6 419.3 1441.9 419.9 1441 419.7ZM1485 393.3C1486.1 393.6 1487 394 1487.6 394.3C1484.2 397.9 1464.5 415.9 1458.8 417.4C1458.1 417.6 1455.9 417.5 1452.6 417.1C1465 409.9 1482.4 396.7 1485 393.3ZM1565 238.7C1566.3 238.8 1566.6 239.1 1566.7 239.1C1567.6 241.3 1566.4 268.3 1563.8 299.9C1560.7 336.2 1557.1 360.5 1554.2 365.1C1552.4 368 1546.1 370.9 1537.8 373.3C1538.1 371.3 1538.2 368.8 1538.2 366C1546.2 362.3 1552.5 357.2 1554.3 349.3C1559.8 324.7 1551.2 299.5 1542.8 290.8C1539.2 287.1 1535.8 285.7 1533.5 284.8C1532.4 284.3 1531.3 283.9 1531.2 283.5C1530.9 282.5 1533.6 279.2 1534.5 278.1C1538.1 273.5 1544.6 268.5 1550.8 263.7C1559 257.3 1565.5 252.4 1565.7 248.4C1565.6 245.1 1565.6 241.8 1565 238.7ZM1514 225.8C1516.9 239 1517.4 243.2 1517.1 244.1C1516.2 245.1 1513.4 246.3 1511.1 247.4C1507.2 249.2 1505.4 250 1505.8 251.5C1506 252 1506.6 252.9 1508.4 255.5C1509.5 257 1511.1 259.4 1512.5 261.5C1511.3 265.4 1510.1 269.5 1508.9 273.6C1506.6 281.7 1504.6 289 1503.1 295.3C1502.5 296.8 1501.9 298.2 1501.3 299.6C1496.7 310.7 1492.4 321.2 1491.1 324.8C1490 328.1 1488.8 332.8 1487.7 337.1C1487.3 338.6 1486.9 340.3 1486.5 341.8C1486.4 340.3 1486.2 338.3 1486 336.1C1484.7 319.8 1481.9 285.9 1490.2 255.9C1491.1 252.2 1492 248.8 1492.9 245.6C1497.7 239.7 1501.5 231.9 1504.2 225.5C1507.5 225.1 1510.8 225.2 1514 225.8ZM1513.3 258.9C1512.4 257.5 1511.3 256 1510.1 254.3C1509.3 253.1 1508.4 251.9 1508 251.2C1508.7 250.7 1510.6 249.9 1512 249.2C1513.9 248.3 1515.9 247.4 1517.2 246.6C1516 250.3 1514.6 254.5 1513.3 258.9ZM1514.6 265.9C1514.5 266.9 1512.1 273.2 1508.9 281.1C1510.5 275.4 1512.2 269.6 1513.9 263.9C1514.4 264.7 1514.7 265.4 1514.6 265.9ZM1516.2 226.3C1518.4 226.9 1520.7 227.8 1523 229C1522.4 230.7 1521 235 1519 240.9C1518.7 238 1517.8 233.5 1516.2 226.3ZM1480 252.4C1478.9 252.6 1477.8 252.7 1476.8 252.9C1476.2 250.5 1475.4 249.3 1474.2 249.1C1472.7 248.9 1471.4 250.2 1469.8 253.4C1465.1 253.3 1461.6 252.4 1459.3 250.5C1458.2 249.6 1457.3 248.5 1456.7 247.1C1457.7 235.7 1458.4 225.7 1458.3 219.8C1460.8 226.2 1464.6 230.9 1470.4 232.7C1472 233.2 1473.5 233.7 1474.8 234.3C1474 234.7 1473.3 235.1 1472.5 235.5L1471.6 236C1466.7 238.5 1466.9 241.6 1467.2 242.9C1468 245.6 1471.2 247.5 1474.9 247.4C1479.1 247.2 1484 244.8 1484.5 241.2C1484.8 239.3 1483.8 236.8 1479.4 234.3C1484.9 231.6 1490.4 229 1496 227.4C1495 230.4 1494 233.6 1492.9 236.7C1491.5 240.8 1490.3 244.2 1489.1 247.1C1486.3 249.6 1483.3 251.7 1480 252.4ZM1487.3 251.1C1482.5 262.2 1480.2 263 1479.7 263C1479.5 263 1478.1 262.8 1477.3 255.9C1477.2 255.6 1477.2 255.2 1477.1 254.9C1478.2 254.8 1479.2 254.6 1480.4 254.4H1480.5C1482.9 253.8 1485.2 252.7 1487.3 251.1ZM1474.8 253.1C1473.8 253.2 1473 253.3 1472.1 253.3C1473.3 251.2 1473.9 251.1 1473.9 251.1C1473.9 251.1 1474.3 251.3 1474.8 253.1ZM1477.1 235.2C1480.7 237 1482.6 239 1482.4 240.7C1482.1 242.8 1478.5 244.9 1474.7 245.1C1471.8 245.2 1469.5 243.7 1469.1 242.1C1468.7 240.5 1469.9 238.9 1472.5 237.6L1473.4 237.1C1474.6 236.5 1475.9 235.8 1477.1 235.2ZM1499.5 226.2C1500.3 226 1501.1 225.8 1501.9 225.7C1499.9 230.4 1497.5 235.3 1494.7 239.5C1496.4 234.5 1497.9 230 1499.5 226.2ZM1506.8 211.6C1506.7 211.9 1506.6 212.3 1506.6 212.7C1505.7 215.9 1504.4 219.6 1502.9 223.4C1502.1 223.5 1501.3 223.7 1500.5 223.8C1503.2 217.4 1505.5 213.3 1506.8 211.6ZM1505.1 173.6C1504.9 174 1504.7 174.4 1504.5 174.7C1504.5 174.4 1504.6 174.2 1504.6 173.9C1505.9 170.8 1507.1 166 1508.1 161.2C1509.5 164.7 1507.8 168.1 1505.1 173.6ZM1451.7 180.7C1450.1 177.6 1447.2 169 1446.5 163.1C1446.2 160.8 1446.4 159.9 1446.6 159.6C1446.8 159.7 1447.5 160.1 1448.7 161.4C1450.2 166.9 1451.1 173.4 1451.8 180C1451.7 180.3 1451.7 180.5 1451.7 180.7ZM1451.7 161C1451.7 161.5 1451.8 161.9 1451.8 162.4C1451.4 161.8 1451 161.2 1450.6 160.7C1450.5 160.6 1450.4 160.5 1450.3 160.4C1449.9 159.2 1449.6 158.1 1449.2 156.9C1445.9 147.7 1444.4 134 1447.9 127.7C1448.8 126 1450 125 1451.5 124.7C1451.8 124.6 1452 124.4 1452.2 124.2C1454.6 120.5 1464.5 115 1475.2 114.3C1481.3 113.9 1489.7 114.9 1495.8 122C1496.1 122.4 1496.5 122.5 1496.9 122.3C1499.1 121.5 1501.2 121.7 1502.9 123.1C1506.9 126.4 1510 136.6 1506.9 155.7C1506.8 156.2 1506.7 156.6 1506.7 157.1C1506.6 157.1 1506.5 157.2 1506.4 157.2C1504.4 157.7 1503.2 161.9 1502.5 173.5C1501.9 174.8 1501.5 175.3 1501.3 175.5C1500.3 174.1 1500.1 166 1503.4 156.4C1505.5 150.3 1505.4 146 1503.2 143C1500.1 138.8 1493.5 138.1 1485.3 138.1C1483.1 138.1 1480.8 138.2 1478.3 138.2C1477 138.3 1475.7 138.3 1474.3 138.3C1464.3 138.5 1459.1 135.4 1456.6 132.8C1455.7 131.8 1455 130.9 1454.6 130.1C1454.2 128.1 1453.8 126.6 1453.5 126.4C1453.2 126.1 1452.7 126 1452.4 126.2C1452 126.4 1451.7 126.8 1451.7 127.4C1451.6 128.3 1452 129.5 1452.6 130.8C1453.4 135.3 1454.3 143.4 1452.9 147.2C1451.4 152 1451.5 155.2 1451.7 161ZM1453.8 161C1453.5 155.2 1453.4 152.4 1455.1 147.8C1456.3 144.7 1456.1 139 1455.5 134.3C1458.3 137.2 1464 140.6 1474.7 140.4C1476 140.3 1477.3 140.3 1478.7 140.3C1488.9 140 1498.4 139.8 1501.7 144.3C1503.5 146.7 1503.4 150.5 1501.5 155.9C1498.1 165.8 1497.9 175.1 1500 177.2C1500.5 177.8 1501.2 177.9 1501.8 177.7C1502 177.6 1502.2 177.5 1502.4 177.4C1502.3 178.1 1502.3 178.8 1502.3 179.6C1500.4 183.9 1498.4 189.1 1497 195.7C1495.8 201.2 1490.5 205.6 1482.8 207.1C1475.3 208.6 1465.6 207.3 1460.9 200.8C1456.9 195.4 1456.2 187.4 1455.5 179.7C1455.1 175.7 1454.8 171.9 1454 168.5C1454 165.5 1453.9 163.1 1453.8 161ZM1454.8 190.9C1455.6 195 1456.9 198.8 1459.2 202C1464.4 209.2 1475 210.7 1483.1 209C1491.5 207.2 1497.4 202.4 1498.9 196C1499.8 191.9 1500.9 188.3 1502.1 185.2C1502 188.7 1501.9 192.5 1501.8 196.8C1501.7 201.5 1501.7 205.2 1501.5 207C1501.4 208.1 1499.4 215.7 1496.6 224.9C1490 226.7 1483.5 229.7 1477 233C1475.3 232.2 1473.3 231.4 1470.8 230.7C1459.1 226.9 1456.7 209 1454.8 190.9ZM1456.1 219C1456.2 223.5 1455.8 230.6 1455.1 239C1455 231.8 1455.5 223.9 1456.1 219ZM1405.9 230.3C1407 230.9 1407.9 237.3 1408 244C1408 244.6 1408.5 245 1409 245C1409.5 245.1 1410 244.6 1410.1 244.1C1411 237 1414.5 217.9 1419.4 214.8C1422.7 212.7 1432 211.3 1439.4 210.1C1443.3 209.5 1446.1 209 1448.2 208.6C1445.6 212 1442.3 217.1 1440.6 221.3C1438 227.8 1441.9 230.9 1444.8 233C1446.1 234 1447.2 234.9 1447.5 235.8C1447.9 237.1 1447.9 237.2 1445 238.8C1442.9 240 1439.6 241.9 1434.9 245.6C1432.1 247.8 1430.9 254.6 1431.2 266.3C1431.5 275.4 1432.6 287.4 1434.7 302C1438.3 327.3 1443.4 352.1 1444 353.8C1444.3 354.8 1445.1 354.8 1445.3 354.8C1446.7 354.6 1447.1 354.6 1450.5 313.8C1451 307.8 1451.5 301.6 1452 295.8C1452.6 288.9 1453.4 281.1 1454.2 272.8C1454.9 265.2 1455.7 257.4 1456.3 250.2C1456.8 250.8 1457.3 251.4 1457.9 251.9C1460.5 254 1464 255.2 1468.8 255.3C1460.7 274.3 1447.9 339.2 1458.6 347.8C1458.8 348 1459 348.1 1459.1 348.2C1457.9 351.1 1456.7 353.1 1455.2 353.9C1443.4 360.9 1436.8 357.7 1426.9 352.9C1425.9 352.4 1424.8 351.9 1423.7 351.4C1421.5 350.3 1418.3 345.6 1419.3 326.2C1420.3 325.4 1421.4 324.5 1422.7 323.2C1427.1 319.3 1432.2 314.2 1432.7 312.7C1432.9 312.1 1432.8 311.7 1432.5 311.4C1432.1 310.2 1431.3 303.4 1430.6 297.4C1428.1 276 1427.5 274 1425.9 274C1424.7 273.9 1424.4 275.4 1424.3 276.1C1423.6 279.6 1420 297.8 1418.2 315.5C1417.8 318.9 1417.6 322.1 1417.4 325.1C1416.5 325.8 1415.8 326.3 1415.2 326.8C1414.5 317.6 1413.8 308.7 1413.2 301.7C1411.9 286.2 1407.7 236.4 1405.6 230.2L1405.9 230.3ZM1419.5 323.4C1419.7 321.1 1419.9 318.6 1420.2 315.8C1421.8 300.1 1424.8 284.1 1425.9 278.3C1426.8 282.6 1427.8 291.5 1428.5 297.8C1429.7 307.9 1430.1 311.2 1430.6 312.4C1429.7 313.7 1425.9 317.8 1421.3 321.8C1420.7 322.4 1420.1 322.9 1419.5 323.4ZM1411.5 367.5C1411.3 365.6 1409.7 347.1 1407.6 324.6C1408.6 330.6 1409.3 330.8 1409.9 331C1410.3 331.2 1411.1 331.5 1413.4 330.3C1415 352 1415.8 367.9 1415.6 371.4C1411.8 371.2 1393.7 369.5 1373.5 366.9C1358.5 365 1348.7 363.5 1342.4 362.3L1342.8 360.6L1410.4 368.5C1410.7 368.5 1411 368.4 1411.2 368.2C1411.4 368.1 1411.6 367.8 1411.5 367.5ZM1393.7 228.2C1399.4 229.4 1402.9 230.2 1403.7 230.8C1404.9 233.4 1408 262.3 1411.2 301.3C1412 310.7 1412.7 319.7 1413.3 328C1412 328.8 1411.2 329 1410.9 329C1408.4 324.6 1404.1 268.3 1402 233.4C1401.9 233.1 1401.7 232.7 1401.4 232.6C1399.6 231.8 1396.7 230.2 1393.7 228.2ZM1330.6 374.4C1324.7 401.2 1321.1 417.7 1321.1 420.1C1321 420.9 1321.4 421.6 1322.1 422C1326.4 425.1 1347.9 418.3 1355 416C1354.9 417.6 1354.7 420.3 1354.3 421.8C1352.4 423.1 1337.4 428.1 1320.1 427.4C1298.4 426.6 1273.2 419.3 1269.9 417.4C1268.8 415.3 1271.3 397.3 1282 353.2C1290 319.9 1297.9 291.8 1299.3 289.8C1299.8 289.2 1302.4 287.5 1319.2 290.4C1330 292.3 1340.9 295.1 1341.7 295.3C1342.1 295.7 1343.7 299.1 1337.3 326.6C1333.7 341.9 1329.5 357 1328.8 359.1C1328.7 359.4 1328.6 360 1329.2 360.6C1329.7 361.1 1331 361.7 1333.2 362.3C1332.4 366.6 1331.4 370.6 1330.6 374.4ZM1333.6 360.5C1331.9 360 1331.2 359.7 1330.9 359.5C1332.4 354.3 1347.4 301.6 1343.6 294.6C1343.2 293.9 1342.6 293.6 1342.3 293.5C1341.8 293.3 1330.7 290.4 1319.6 288.5C1319.5 288.5 1319.4 288.4 1319.3 288.4C1331.7 290 1344.8 292 1347 292.9C1347.3 297.1 1339.9 331.5 1333.6 360.5ZM1335.7 360.9C1338.8 346.8 1341.9 332.4 1344.3 320.4C1350 292.6 1349.2 292 1348.5 291.4C1346.7 290 1329 287.6 1321.5 286.6C1312.2 285.4 1296.3 283.5 1294.7 284.5C1293.7 285.1 1292.6 289 1286.9 312.5C1283 328.5 1277.2 352.6 1275.2 355.3C1270.2 355 1236.2 350.1 1232.8 348.3C1232 345.1 1229 314.9 1226.2 281.1C1223.1 244.6 1221.4 218.2 1221.7 213.6C1227.7 214 1268.1 218.2 1308.7 223.2C1385.3 232.6 1395.9 236.1 1397.2 237C1398.4 244.3 1408.2 353.5 1409.4 366.5L1342.2 358.6H1342.1C1341.6 358.6 1341.2 359 1341.1 359.3L1340.5 362C1338.5 361.5 1336.9 361.2 1335.7 360.9ZM1441.5 389.2C1433.8 393.3 1425.8 397.4 1420.3 398.8C1418.6 399.2 1417.9 399.2 1417.7 399.1C1417.9 398 1421 394.6 1425.1 391C1426.6 389.8 1427.5 389 1427.6 388.9C1428 388.5 1428.1 387.9 1427.7 387.5C1427.3 387 1426.7 387 1426.3 387.3C1425.4 388 1424.5 388.8 1423.6 389.5C1419.9 392.6 1412.9 397.7 1407.6 399.2C1404.5 400.1 1404.3 399.5 1404 398.6C1403.8 398 1403.5 397.2 1402.7 396.8C1402.4 396.6 1402 396.5 1401.5 396.5C1400.7 396.5 1399.7 396.8 1398.3 397.3C1394.6 398.7 1393.9 398.2 1393.9 398.2C1393.8 398.1 1393.5 397.5 1395.3 394.4C1396.3 392.5 1402.9 386.7 1410 381.2C1425.5 383.1 1437.8 384.7 1447.4 386.1C1445.6 387.1 1443.5 388.1 1441.5 389.2ZM1450.8 384.5C1441.1 383.1 1428.6 381.4 1412.5 379.4C1417.9 375.4 1423.4 371.9 1426.8 370.9C1436.4 367.8 1459.5 362.4 1465.8 366.3C1470.5 369.2 1472.6 377.1 1473 382.3C1472.2 382.1 1471.4 381.9 1470.5 381.7C1467.9 381.1 1464.9 380.4 1461.7 380.6C1459.1 380.7 1455.3 382.3 1450.8 384.5ZM1454.5 385C1457.6 383.7 1460.1 382.7 1461.9 382.6C1464.8 382.4 1467.6 383.1 1470.1 383.7C1471.2 384 1472.2 384.2 1473.2 384.4C1473.2 385.2 1473.1 385.9 1473 386.3C1472.8 387 1473.1 387.6 1473.5 388.1C1469 387.3 1462.9 386.2 1454.5 385ZM1514.1 342.3C1513.7 342.4 1513.3 342.5 1513 342.6C1512.2 342.9 1510.9 343.4 1509.1 344.1C1503.7 346.2 1493.5 350.1 1484.5 353.1C1469.5 358.1 1466.9 357.8 1466.5 357.6C1465.6 357 1465.1 357.2 1464.8 357.5C1464.1 358.2 1464.7 359 1465.5 360C1466.1 360.7 1466.8 361.7 1467.7 362.9C1470.1 366 1473.3 370.2 1475.7 373.9C1479.4 379.7 1478.8 381 1478.5 381.2C1477.6 382.2 1476.5 382.5 1475 382.5C1474.6 376.8 1472.4 367.9 1467.1 364.4C1459.4 359.6 1433 366.6 1426.4 368.8C1422.5 370.1 1416 374.3 1409.9 379C1378.4 375.1 1347 371.7 1340.7 371L1342.2 364.3C1349.7 365.7 1360.4 367.3 1374.3 369C1390.5 371 1415.6 373.7 1417 373.3C1417.2 373.2 1417.5 373.1 1417.7 372.6C1418.4 370.8 1417.1 349.8 1415.6 329C1416.2 328.6 1416.8 328.2 1417.5 327.7C1416.9 342.7 1418.8 351 1423.2 353.1C1424.3 353.6 1425.3 354.1 1426.4 354.6C1436.5 359.5 1443.9 363.1 1456.6 355.6C1458.2 354.6 1459.8 352.4 1461.1 349.3C1466.2 352.7 1470.3 353.3 1473.5 351.4C1482.7 346 1483.2 319 1475.2 263.9C1475 262.4 1474.8 260.8 1473.6 260.8C1473.5 260.8 1473.5 260.8 1473.5 260.8C1472.4 260.9 1472 261.6 1471.3 267.4C1470.8 270.9 1470.4 275.9 1469.8 281.8C1468 300.4 1465.1 331.4 1460 346.1C1452.5 340 1459.1 293.8 1467.1 266.8C1468.7 261.3 1470.1 257.6 1471.2 255.3C1472.5 255.3 1473.8 255.2 1475.3 255C1475.4 255.3 1475.4 255.6 1475.5 256C1475.9 259.8 1476.9 264.9 1479.9 264.9H1480C1482.2 264.8 1484.5 262.1 1487.5 255.8C1488.1 254.6 1488.7 253.3 1489.3 251.8C1489 252.9 1488.7 254 1488.5 255.1C1480.1 285.3 1482.9 319.5 1484.2 336C1484.5 339.4 1484.7 342.1 1484.7 343.7C1484.8 345.3 1484.8 346.9 1486 347.1C1487.3 347.3 1487.7 346.1 1489.8 337.4C1490.8 333.2 1492 328.5 1493.1 325.3C1494.1 322.5 1497.1 315.2 1500.5 306.7C1500.5 306.8 1500.5 306.8 1500.5 306.8C1498.3 317.9 1498.1 324.7 1499.8 327.3C1500.7 328.7 1501.8 329.5 1503.3 329.8C1505.7 330.3 1508.5 329.1 1511.5 327.4C1511.3 329 1511.2 330.7 1511.1 332.3L1511 333.3C1510.6 337.6 1512 340.3 1514.1 342.3ZM1461.6 347.4C1466.4 334.2 1469.3 308.3 1471.8 282C1472.4 276 1472.9 270.2 1473.4 266.5C1480.7 317.7 1480.3 344.9 1472.3 349.7C1469.7 351.2 1466.1 350.4 1461.6 347.4ZM1511.7 325.1C1508.6 327.1 1505.7 328.5 1503.7 328.1C1502.8 327.9 1502.1 327.4 1501.5 326.5C1499.4 323.2 1501.4 311 1505.1 295.9C1512.4 278.3 1516.7 267.5 1516.8 266C1516.9 264.9 1516.1 263.3 1514.8 261.2C1518.7 248.4 1522.6 236.6 1525.2 228.9C1525.4 228.4 1525.1 227.9 1524.7 227.7C1521.7 226 1518.7 224.8 1515.7 224.1C1515 221.3 1514.3 218.1 1513.4 214.5C1513.4 214.3 1513.3 214.1 1513.3 214C1517.2 216.4 1525.3 219 1536.5 222.5C1546.1 225.4 1557 228.8 1559 231.1C1560.7 233 1561.7 234.9 1562.4 236.9C1551.7 238.5 1528 249 1522.4 260.7C1518.3 269.4 1514.7 291 1511.7 325.1ZM1533.4 322.6C1532.7 319.5 1531.4 317.7 1529.5 316.9C1528.9 316.6 1528.2 316.5 1527.6 316.5C1524.1 316.5 1520 319.4 1515.5 322.5C1514.9 322.9 1514.4 323.3 1513.8 323.7C1516.7 290.8 1520.3 269.9 1524.2 261.7C1529.5 250.6 1553.1 240.3 1563 239C1563.7 241.9 1563.7 245.1 1563.6 248.4C1563.5 251.4 1556.4 256.8 1549.6 262.1C1543.2 267 1536.7 272 1532.9 276.8C1529.7 280.8 1528.9 282.5 1529.3 284C1529.7 285.4 1531.1 285.9 1532.9 286.6C1535.2 287.5 1538.2 288.7 1541.5 292.1C1549.3 300.3 1557.8 325.2 1552.5 348.7C1551 355.6 1545.5 360.2 1538.4 363.7C1538 350.7 1535.7 332.5 1533.4 322.6ZM1509.2 378.9C1498.4 380.2 1494.2 379.6 1493.2 379.1C1493.3 379 1493.3 379 1493.4 378.9C1495.7 376.9 1502.5 375.5 1510.3 373.9C1518.4 372.2 1527.9 370.2 1536.1 366.9C1536 370.1 1535.9 372.3 1535.6 373.9C1527.7 376.1 1518.1 377.9 1509.2 378.9ZM1592.9 314.8C1594.3 314.5 1595.2 314.5 1595.7 314.6C1595.6 314.7 1595.5 314.8 1595.4 314.9C1594 315.5 1592.1 315.9 1590.4 315.7C1591.2 315.3 1592.1 315 1592.9 314.8ZM1607.1 329.8C1606.8 333.3 1606.4 339.8 1606 347.3C1605.5 356.8 1604.8 370.1 1604 376.3C1601.8 360.6 1601.6 327.5 1602.1 313.7C1602.4 305.9 1599.5 300.9 1597.3 297.2C1595.4 294 1594.6 292.3 1595.5 290.5C1596.9 287.9 1600.9 284.3 1604.8 284.3H1605.3C1606.3 284.4 1607.2 284.7 1608 285.3C1608.1 285.5 1608.1 285.7 1608.1 285.8C1608.2 291.3 1608.2 317.9 1607.1 329.8ZM1665.7 401C1661.9 401.9 1627.9 401.1 1618.7 394.8C1617.5 394 1616.9 393.2 1616.7 392.4C1615.7 385.8 1617.2 377.2 1618.4 375.7C1618.6 376 1618.9 376.5 1619.2 377.6C1620.1 380.9 1619.1 383.3 1618.3 385.5C1617.6 387.3 1617 389.1 1617.8 390.6C1618.6 392.1 1620.7 393.2 1624.7 394.1C1629.7 395.2 1647.2 397.5 1666.7 399.7C1666.3 400.6 1665.9 401 1665.7 401ZM1728.5 302.3C1731.4 310.7 1735.4 317.6 1738.8 323.7C1743.7 332.3 1748 339.7 1747.5 348.3C1747.2 354.9 1743 359.6 1739.5 362.4C1738.3 363.4 1737.1 364.2 1735.8 364.9C1737.7 359.8 1739.9 354.9 1741 352.8C1741.8 351.5 1741.5 350.7 1741.2 350.2C1740.6 349.3 1739.3 348.9 1737.2 348.9C1735.3 348.9 1732.6 349.2 1729 349.7C1726.9 350 1724.6 350.2 1722.4 350.4C1721.7 350.5 1721.3 350.5 1721.1 350.4C1721.3 349.8 1722.2 348.3 1723 347C1726.7 341.2 1733.6 330.4 1729.7 314.8C1727 303.9 1725.7 297.5 1725.2 294.1C1726.2 295.7 1727.1 298.3 1728.5 302.3ZM1725.2 310.2C1725.3 308.6 1725.1 305.8 1724.9 302.2C1725.7 305.6 1726.6 309.8 1728 315.4C1731.6 329.9 1725.4 340.2 1721.8 345.8C1723.8 330.3 1725 315.6 1725.2 310.2ZM1694 192.4C1696.9 193.6 1699.6 195.1 1702 196.8C1706.1 199.9 1711.4 219.6 1716.5 251C1720.7 276.9 1723.5 303.5 1723.2 310C1722.9 316.5 1721.3 336.1 1718.6 354.3C1715.4 375.7 1712.5 383.4 1710.7 386.2C1710.6 384.6 1710 383.1 1708.5 381.8C1706.6 380.1 1703.7 379.7 1700.7 379.3C1695 378.5 1689.6 377.8 1689.8 369C1689.9 367 1689.9 364.5 1689.9 361.6C1690.1 345.6 1690.5 312.3 1693.2 307.9C1694.2 306.4 1695.9 305.4 1697.7 304.7C1699.4 305 1701.1 304.6 1702.4 304.3C1702.8 304.2 1703.2 304.1 1703.6 304C1704.1 303.9 1705 303.8 1705.1 302.9C1705.1 302.5 1704.9 302 1704.3 301.8C1703.6 301.6 1700.6 301.6 1697.6 302.6C1695.6 302 1693.6 300.2 1692.1 295.1C1691 291.7 1683.9 267.8 1681 248.4C1682.9 241.9 1685.3 235.1 1687.5 228.8C1692.1 215.7 1695.7 205.4 1693.9 200.6C1692.8 197.8 1690 195.7 1685.5 194.5C1684.4 194.2 1683.3 194 1682.1 193.8C1689.2 193.5 1692.6 193.1 1694 192.4ZM1565.8 159.8C1557.9 151.2 1555.4 137.8 1559.7 125.9C1563.9 114.3 1573.7 106.8 1585.8 105.9C1588.8 106 1591.1 104 1593.5 101.9C1599 97.1 1606 91.1 1626.4 102.9C1649.4 116.3 1655.7 134.9 1661.9 152.8C1663.5 157.6 1665.2 162.5 1667.1 167.2C1671.3 177.3 1676.7 183 1681.6 186.4C1678.9 185.7 1676 185 1673.1 184.3C1668.8 183.3 1664.3 182.2 1660 181C1643.9 176.4 1626.9 163.3 1618.7 149.1C1617.5 147 1616.3 144.7 1614.9 142.2C1609.2 131.3 1602.7 119 1592.6 116.4C1591.4 116 1590.1 115.9 1588.8 115.9C1585 115.9 1580.9 117.3 1576.7 120C1569.7 124.8 1562.2 135.6 1565.8 159.8ZM1578 121.7C1580 120.4 1581.8 119.5 1583.6 118.9C1583.4 119.6 1583.2 120.7 1583.2 122.1C1582 124.4 1579.3 126.9 1576.7 129.4C1574.8 131.2 1572.7 133.2 1571.2 135.1C1569.7 137 1568.3 139 1567.2 141.7C1568.6 130.6 1573.4 124.8 1578 121.7ZM1628.7 173.6C1628.3 173.1 1627.1 171.8 1625.6 172C1623.5 172.4 1622.4 175.4 1620.8 179.9C1618 187.6 1614 198.3 1603.8 199.2C1603.7 199.2 1603.7 199.2 1603.7 199.2C1601 199.2 1593.3 196.2 1585.5 190.3C1580.2 186.3 1571 177.9 1569 167C1569 166.8 1568.9 166.5 1568.9 166.3C1569.1 165.9 1569 165.2 1568.6 164.1C1568.3 162.5 1568 160.9 1567.8 159.5C1566.3 145.8 1569.2 140.7 1572.7 136.3C1574.2 134.5 1576.2 132.6 1578.1 130.8C1580.1 128.9 1582.1 127.1 1583.5 125.3C1584.3 129.9 1586.6 136.2 1592.3 142.5C1599.6 150.6 1603.8 153.2 1609.1 156.5C1613.1 159 1617.6 161.8 1624.6 167.5C1628.9 171 1632.7 173.7 1636 176C1643.3 181.2 1648.2 184.5 1650.1 191C1643.1 188 1635.8 182.2 1628.7 173.6ZM1637.3 174.5C1633.9 172.1 1630.2 169.5 1626 166C1618.9 160.2 1614.3 157.3 1610.3 154.8C1604.9 151.5 1601 149.1 1593.9 141.2C1587.1 133.7 1585.6 126.6 1585.4 122.5C1585.8 121.6 1586.1 120.7 1586.1 119.8C1586.2 119.4 1586.2 118.7 1585.9 118.2C1588.1 117.7 1590.3 117.7 1592.4 118.3C1601.7 120.7 1607.9 132.6 1613.5 143.1C1614.8 145.6 1616.1 148 1617.3 150.1C1625.8 164.7 1643.2 178.2 1659.8 182.9C1664.2 184.2 1668.7 185.2 1673 186.3C1679.4 187.8 1685.5 189.2 1691 191.2C1687.6 191.7 1681.2 192.2 1675.3 192.6C1671.4 192.9 1667.5 193.1 1663.4 193.5C1659.9 193.8 1656.3 193.3 1652.7 192.1C1650.8 183.9 1645.4 180.2 1637.3 174.5ZM1661.4 195.5C1658.3 196.4 1655.9 197.4 1654.4 198.6C1654 198.9 1653.6 199.3 1653.3 199.8C1653.3 199 1653.2 198.3 1653.2 197.6C1653.1 196.4 1653.1 195.3 1652.9 194.3C1655.8 195.1 1658.6 195.5 1661.4 195.5ZM1660.1 284.4C1654.7 254 1652.1 229.3 1652.5 214.6C1652.8 211.9 1653 209.4 1653.2 207C1653.8 203.5 1654.6 201.2 1655.8 200.2C1660.1 196.7 1675.5 194.3 1684.9 196.7C1687.5 197.4 1690.9 198.7 1691.9 201.5C1693.5 205.6 1689.6 216.6 1685.5 228.3C1683.7 233.3 1681.9 238.5 1680.3 243.7C1679.8 239.4 1679.6 235.6 1679.8 232.3C1680.4 221.9 1682.7 214.6 1684.3 211.5C1684.8 211.5 1685.2 211.4 1685.5 211.2C1686 210.9 1686.3 210.4 1686.3 209.8C1686.4 208.1 1685.4 207.9 1685.1 207.9C1684.5 207.8 1683.9 208.3 1683.3 209.2C1680.6 208.3 1674.7 205.2 1671.2 203.4C1664.6 199.8 1662.9 199 1661.8 199.3C1661.4 199.4 1661.2 199.7 1661 200C1660.5 201.2 1662 204.1 1667.4 213.9C1669.8 218.2 1673 224.1 1673.4 225.6C1672.8 226 1671.5 226.6 1670.5 227C1667.2 228.4 1663.8 229.8 1664.4 232.1C1664.7 233.3 1666.8 236.3 1670.2 241C1672.3 243.9 1675.2 247.9 1675.5 248.8C1675.4 249.2 1675.2 250.7 1675 252.6C1673.4 264.2 1669.1 295 1670 309.7C1670.4 316.1 1672.3 327.4 1674.6 338.6C1674.2 339 1673.8 339.4 1673.5 339.7C1669.2 325.7 1664.2 307.1 1660.1 284.4ZM1678.8 248.4C1677.9 251.7 1677.1 254.9 1676.5 258.1C1676.8 256.2 1677 254.5 1677.2 253.1C1677.6 250.3 1677.8 249.3 1677.8 249C1677.9 248 1676.6 246.2 1672.1 240C1669.9 236.9 1666.8 232.7 1666.6 231.8C1666.8 231.1 1670 229.7 1671.4 229.1C1673.6 228.2 1674.8 227.6 1675.4 226.9C1676.2 225.8 1675.4 224.1 1669.3 213.1C1667.1 209.2 1664.3 204.1 1663.3 201.8C1664.9 202.5 1667.8 204 1670.2 205.3C1675.8 208.4 1679.7 210.3 1682.2 211.1C1681.7 212.1 1681.2 213.3 1680.8 214.8C1679.7 218.3 1678.3 224.1 1677.7 232.2C1677.4 236.6 1677.8 242.3 1678.8 248.4ZM1672.1 309.7C1671.5 299.3 1673.5 280.6 1675.3 266.6C1675.1 268.6 1675.2 270.6 1675.4 272.4C1677.6 294 1683.9 312 1685.8 317C1686.5 318.8 1682.9 328.6 1676.8 336.2C1676.6 336.4 1676.5 336.6 1676.4 336.7C1674.3 326.2 1672.4 315.7 1672.1 309.7ZM1677.3 351.8C1676.3 348.9 1675.3 345.6 1674.2 342C1674.5 341.7 1674.8 341.5 1675.1 341.1C1675.9 344.8 1676.6 348.3 1677.3 351.8ZM1669.3 398.1C1669.8 395.9 1670.2 392.7 1670.2 388.1C1670.4 381.2 1669.8 372.7 1668.9 368C1667.7 361.7 1662.5 360.7 1658.7 360C1656.8 359.6 1655 359.3 1654.5 358.4C1654.4 358.3 1654.4 358.2 1654.4 358.2C1655 357.2 1660.8 356.7 1663.7 356.5C1665.9 356.3 1667.9 356.2 1669.3 355.9C1670 355.7 1671.3 355.5 1671.4 354.4C1671.6 353.2 1670.4 352.7 1667.7 351.5C1664.8 350.2 1660.5 348.1 1656.5 344.8C1656.1 344.5 1655.7 344.1 1655.2 343.7C1657.4 344.4 1660.7 345.2 1664.5 345.7C1667.2 346.1 1669.9 345 1672.3 343.3C1674.1 349 1675.7 353.9 1677.1 358.1C1678.8 363.2 1680.1 367.2 1680.9 370.2C1681.1 370.8 1681.2 371.2 1681.3 371.5C1681.4 371.9 1681.7 372.9 1682.7 372.6C1683.6 372.4 1683.5 371.4 1683.4 370.9C1683.3 370.5 1683.2 370.1 1683.1 369.4C1682.8 368.1 1682.4 366.3 1681.9 364.1C1680.5 357.9 1678.5 348.6 1676.7 339.3C1677.2 338.7 1677.7 338.1 1678.2 337.5C1683.9 330.4 1688.7 319.5 1687.5 316.3C1685.7 311.3 1679.4 293.5 1677.3 272.2C1676.8 266.7 1677.8 260.1 1679.5 253.2C1682.8 271.9 1689 292.6 1690 295.8C1691.3 300.1 1693.1 302.5 1694.9 303.7C1693.5 304.5 1692.2 305.5 1691.3 306.9C1688.5 311.4 1688 336.4 1687.7 361.7C1687.6 364.5 1687.6 367 1687.6 369.1C1687.4 379.7 1694.5 380.6 1700.3 381.4C1703 381.8 1705.6 382.1 1707 383.4C1708.4 384.7 1708.8 386 1708.5 387.8C1702.1 387.6 1692.3 386.4 1686.7 384.6C1687.3 382.8 1687.7 380.9 1687.9 379.3C1688.1 377.7 1687.7 376.7 1687 376.1C1686.6 375.8 1685.9 375.5 1684.7 376.1C1682.9 377 1680.7 379.9 1680.6 382.4C1680.6 383 1680.9 383.6 1681.4 384.2C1682 384.8 1682.9 385.4 1684.2 385.9C1682.8 389.6 1680.6 392.9 1678.2 394.3C1677 395 1675.3 396.6 1673.4 398.6C1672 398.4 1670.7 398.3 1669.3 398.1ZM1685.9 379.2C1685.7 380.7 1685.3 382.4 1684.8 384C1683.9 383.6 1683.2 383.2 1682.8 382.8C1682.6 382.6 1682.6 382.5 1682.6 382.5C1682.7 381.1 1683.7 379.4 1684.7 378.5C1685.2 378 1685.6 377.9 1685.7 377.8C1685.9 378 1685.9 378.4 1685.9 379.2ZM1674.7 405.7C1671.9 407.9 1668.6 410.4 1666.3 411.3C1666.2 411.4 1666.2 411.4 1666.2 411.4C1667 409.4 1670.7 404.5 1674.2 400.8C1676.3 401.1 1678.5 401.3 1680.7 401.5C1679.1 402.3 1677.1 403.8 1674.7 405.7ZM1695.4 430.3C1696.1 427.4 1697.6 422.4 1699.1 417.9C1699.3 417.4 1699 416.8 1698.5 416.6C1698 416.4 1697.4 416.7 1697.2 417.2C1697.1 417.3 1691.6 431.7 1685.6 435.9C1685.4 436 1685.3 436.1 1685.2 436.1C1685.1 433.7 1689.2 423.9 1690.5 420.5C1691.8 417.4 1692 416.8 1692 416.4C1692.1 415.9 1691.7 415.5 1691.3 415.3C1691.1 415.2 1691 415.2 1690.9 415.2C1690.3 415.2 1689.9 415.8 1689.2 416.7C1688.7 417.4 1688.1 418.4 1687.4 419.6C1685 423.4 1679.7 431.9 1677 434.2C1677.9 431.9 1680.7 426.7 1682.5 423.5C1684.4 420.1 1686 417.1 1686.5 415.8C1686.9 414.8 1686.4 414.3 1686.1 414.1C1685.1 413.5 1684.5 414.3 1681.5 417.6C1678.6 420.9 1673.7 426.3 1670.9 427.1C1671.5 425.5 1674.4 421.4 1676.5 418.3C1680.6 412.5 1684.9 406.4 1685 403.1C1685.1 402.6 1685 402.1 1684.8 401.7C1691.8 402.5 1698.6 403.3 1704.8 403.9C1703.8 412.3 1699.2 424.2 1695.4 430.3ZM1705.3 402.2C1696.4 401.2 1686.2 400.1 1676 398.9C1677.3 397.6 1678.4 396.6 1679.3 396.1C1682 394.5 1684.5 390.7 1686.1 386.6C1692.5 388.6 1703 389.7 1708.2 389.9C1707.9 390.7 1707.7 391.6 1707.3 392.6C1706.4 395.2 1705.4 398.3 1705.3 401.8V402.2ZM1730.5 405C1727.7 404.7 1718.8 403.7 1707.2 402.5C1707.3 402.3 1707.3 402.1 1707.1 401.9C1707.3 398.7 1708.2 395.8 1709 393.3C1709.4 392 1709.9 390.8 1710.1 389.5C1712.1 388.4 1713.9 384.9 1715.6 378.8C1717.2 373 1718.9 364.9 1720.4 354.7C1720.6 353.9 1720.7 353.2 1720.8 352.4C1721.4 352.5 1722.1 352.5 1722.8 352.5C1725 352.3 1727.3 352 1729.5 351.8C1733.2 351.3 1738.8 350.6 1739.6 351.4C1739.6 351.5 1739.5 351.6 1739.4 351.9C1738.1 354.2 1735.4 360.4 1733.2 366.4C1732.6 366.7 1732.1 366.9 1731.6 367.1C1727.7 367.3 1723.3 367.9 1722.3 368.6C1721.8 368.9 1721.7 369.4 1721.8 369.8C1722 370.7 1722.9 370.8 1723.4 370.9C1725.1 371.2 1728.3 370.6 1731.9 369.1H1732.2C1730.7 373.4 1729.6 377.3 1729.5 379.3C1728 384.5 1729.3 390.1 1732.6 394.7C1731.9 398.1 1731.2 401.6 1730.5 405ZM1733.1 391.8C1731 388 1730.3 383.8 1731.5 379.8C1731.6 379.7 1731.6 379.6 1731.6 379.5C1731.7 377.7 1732.9 373.6 1734.5 369.1C1735.3 369.1 1735.9 369.2 1736.3 369.3C1736.6 371.3 1735.2 380.8 1733.1 391.8ZM1400.1 611.1C1391.7 609 1384.4 607.1 1378.4 606.7C1377.6 606.4 1376.7 606.3 1375.8 606.3C1375.9 605.2 1375.9 604 1376 602.7C1376.8 589.8 1377.2 578.8 1374 576.1C1373.3 575.5 1372.4 575.3 1371.5 575.5L1371.3 575.6C1368.1 576.8 1358.8 578.2 1349.3 578.3C1338.8 578.5 1331.6 577 1330.1 574.4C1330 574.2 1329.9 574.1 1329.9 573.9C1332.3 573.8 1335.9 574.3 1340.5 575C1344 575.5 1347.8 576.1 1352.4 576.5H1352.6C1362.2 575.7 1365.3 575.3 1366.3 573.5C1367 572.1 1366.1 570.5 1364.7 568.2C1363.5 566.2 1362 563.5 1360.6 559.8C1364.2 549.3 1363.7 541.4 1359.2 537.6C1354.6 533.6 1346.6 534.3 1336.7 539.6L1336.5 539.7L1336.4 539.8C1332.5 543.8 1333.6 548.4 1334.6 552.9C1335.6 557.2 1336.5 561.2 1333.6 565.1C1330.4 567.7 1328.6 570 1328.1 572.1C1326.8 572.4 1325.8 572.9 1325 573.8C1321.8 577.5 1324.1 586 1330.2 608.9L1330.9 611.3L1331.1 611.5C1341.4 623.2 1354.3 617.1 1364.7 612.3C1368.2 610.7 1371.3 609.2 1373.9 608.6C1373.8 609.6 1373.8 610.4 1374 610.8V610.9C1375.2 615.8 1373.2 619.4 1368.3 621.5C1356.1 626.8 1331.9 621.7 1328.9 617.2C1325.3 612.3 1325.7 608.2 1326.1 605C1326.6 600.3 1326.4 597.3 1318.4 596.4C1304.4 593.8 1287.1 590.8 1268.5 587.7C1272.3 581.8 1274.8 571.7 1279.5 552.3C1280.7 547.7 1281.9 542.4 1283.4 536.6V536.5C1284.8 529.4 1286.8 521 1288.9 512.1C1293.8 491.9 1298.9 470.9 1297.9 458.6C1297.9 458.2 1297.8 457.7 1297.3 457.3C1294.1 453.8 1270.6 452.7 1235.3 451.4C1223.1 450.9 1211.7 450.5 1202.9 449.9H1202.8C1198.6 450 1193.2 449.6 1187.4 449.3C1170 448.3 1158.4 447.9 1155.5 451.2C1155 451.8 1154.7 452.5 1154.8 453.3C1147.5 473.1 1140.5 497.4 1134.4 518.9C1130.3 533.3 1126.4 546.8 1123.1 556.5C1121.1 560.9 1097.3 565.2 1078.1 568.6C1051.3 573.4 1036.1 576.3 1036.2 581.2C1036.2 583.7 1039.5 586.6 1063.1 590.6C1066.5 591.1 1070.6 592 1074.6 592.9C1082.6 594.6 1090.1 596.3 1093.8 595.5L1094.2 595.4L1094.5 595.1C1095.6 593.7 1095.5 592.5 1095.2 591.7C1093.8 588.2 1085.6 586.8 1072.3 584.9C1064.6 583.8 1056.7 582.6 1052.5 580.8L1052.3 580.7C1055.4 579.6 1063.1 578.1 1069.6 576.8C1075.3 575.7 1081.2 574.5 1085.7 573.4C1131.4 566.3 1134.1 558.3 1135.8 553.6C1136.7 551.1 1137.1 549.8 1148.5 550.9C1160.8 552 1185.6 555.9 1232 563.3C1233.4 563.6 1234.9 563.8 1235.6 562.8C1236.2 561.8 1235.3 560.8 1235 560.4C1232.7 557.6 1223.6 551.7 1215.9 548.4C1217.4 544.6 1218.9 539.6 1220.5 534C1221.5 530.6 1222.4 527.5 1223.1 525.4C1223.4 524.9 1223.6 524.5 1223.8 524C1224.3 524.7 1224.9 525 1225.4 525.1C1229 525.7 1233 516.5 1234.1 511.4L1234.3 510.7L1233.7 510.3C1232.9 509.7 1231.9 509.5 1231 509.7C1230.9 509.8 1230.8 509.8 1230.7 509.8C1234 501.8 1236.3 492.9 1233.9 484.4L1233.8 484.2C1231.2 478.5 1224.6 474.2 1217.2 473.4C1210.2 472.6 1203.9 475.1 1199.9 480C1198.3 479.8 1196.9 480.3 1195.7 481.4C1190.3 486.6 1191.3 504.8 1192.4 510.2C1192.2 511.9 1191.7 513 1191.2 513.7C1191.1 512.5 1191.1 511.4 1191.1 510.3C1191.1 504.6 1191.1 501.7 1189.3 501.1C1188 500.6 1186.7 502.1 1185.5 503.6L1185.3 503.8L1185.2 504.1C1184.2 510.2 1185.8 514 1187.7 515.4C1188.2 515.8 1188.6 516 1189.1 516.1C1189.2 518.4 1189.4 520.9 1189.8 523.4C1187.7 530.3 1185.9 537.4 1185.4 542.7C1183.5 542.6 1181.3 542.8 1178.8 543C1171.1 543.3 1164.6 543.8 1159.4 544.2C1149.4 545 1143.3 545.5 1141.3 543C1138.8 539.7 1141.7 530.1 1147.7 511C1151.2 500 1155.8 485 1161.2 465.7L1161.3 465.3L1161.2 465.1C1162 464.4 1166.3 463.3 1187.7 464.5C1202.8 465.4 1221.6 467 1239.9 468.7C1256.2 470.2 1271.6 471.5 1282.2 472.1H1282.6L1282.7 472C1283 473.3 1282.8 478.2 1278.6 495.8C1275.4 508.9 1271 525.1 1267.2 539.4C1264.7 548.8 1262.2 557.7 1260.6 564L1260.5 564.2C1260.5 564.5 1260.4 564.7 1260.3 564.9L1259.9 564.5L1259.7 564.4L1259.5 564.3C1257.2 563.3 1240 557.1 1236.3 560.6C1235.8 561 1235.1 562 1235.7 563.8L1235.9 564.3L1236.4 564.5C1239.4 565.6 1254.2 570.5 1260 567.9C1262.2 570.8 1262.9 574.3 1261.9 577.6C1260.9 581 1258.2 583.7 1254.7 585.2C1244 583.4 1233.1 581.6 1222.3 579.9C1191.6 574.9 1162.6 570.2 1143.3 566.6C1137 565.5 1133.5 564.9 1129.4 565.9C1105.6 570 1103.6 572.4 1103.6 574.3C1103.6 577.4 1110.5 578.8 1128.8 581.6C1139.2 583.3 1151 585.1 1157.6 587.6L1160 588.2C1210 599.9 1210 599.9 1247.3 589.4L1252 588.1C1253 587.9 1254 587.6 1254.9 587.3C1258.2 587.9 1261.5 588.4 1264.8 588.9C1261.2 592.6 1256.2 593.8 1247.5 596C1244.3 596.8 1240.8 597.6 1236.7 598.8C1228.2 600.7 1220.3 602.8 1212.6 604.8C1195.8 609.1 1181.2 612.9 1166.9 613.9C1163 612.8 1159.2 612.1 1155.5 611.5C1160.7 608.4 1163.3 605.4 1163.6 602.2C1164 597.5 1159.2 593.1 1148.9 588.8C1133.1 582 1114.7 584.4 1095.9 595.8C1081.5 604.4 1067.2 618.3 1057.6 632.8L1057.3 633.2V633.3C1052.8 633.8 1048.6 636.6 1045.3 638.8C1042.9 640.5 1040.3 642.2 1039.2 641.7C1038.8 641.5 1038 640.6 1037.8 637.1V636.9C1036 629 1035.4 617.5 1034.7 603C1033.5 578.7 1032 546.5 1023.1 512.8C1023.2 513.1 1023.3 513.3 1023.4 513.5C1024.2 515.5 1024.9 517.6 1025.7 519.7L1026.1 520.6L1027 520.2C1035 517.3 1051.8 495.5 1062.4 458.3C1067.8 439.3 1065.1 438.1 1064.3 437.7C1063 437.1 1061.4 438.3 1059.6 441.2C1058.4 443.1 1057.1 445.9 1055.7 448.7C1054 452.2 1050.5 459.3 1049.2 459.4C1049.2 459.4 1048.9 459.3 1048.6 458.5C1038 429.5 1043.6 414.7 1046.3 407.6C1047.4 404.8 1048 403.1 1047.1 401.8C1046.2 400.6 1044.4 400.5 1041.5 400.6C1039.5 400.7 1037.4 402 1035.2 404.5C1028.4 412.3 1022.1 431.2 1023.5 447C1025.1 465.6 1026.5 481.8 1018.9 496.9C1015.6 490 1011.5 483.4 1005.3 476.9C1001.8 472.6 997.2 468.7 992.7 464.9C983.7 457.3 975.2 450 975.4 440.2C977.8 425.6 990.9 414.5 1000.5 406.3L1002.1 405L1002.2 404.6C1003.3 394.8 1005.8 389 1008.2 383.3C1012.2 374 1015.7 365.9 1011 343.2C1010 335.1 1010.8 329.6 1011.8 323.2C1012.2 320.8 1012.5 318.3 1012.8 315.5V315.3C1012.6 312.7 1015 309.2 1017.5 305.5C1021.1 300.1 1025.2 294 1024.3 287.4L1024.2 287.2C1022.5 281.2 1014.5 280.6 1006.7 279.9C1001.8 279.4 996.6 279 994.7 277.1L994.5 277C969.1 259.5 946.7 254.7 928.1 262.7C910 270.5 895 290.7 883.8 322.8C874.2 350.1 868.7 381.3 865 405.4C862.5 427.5 854.4 448.8 845.1 473.4C838.8 489.9 831.7 508.7 825.5 530C823.8 536.8 820.5 554.7 819 573.9C817.8 589.9 817.5 611 823.4 620.8C825.1 623.6 827.3 625.5 829.9 626.1C869.1 642.9 893.6 646.7 907 638.2C921.6 628.8 922.2 606.6 923 578.5C923.6 557.3 924.2 534 930.9 511.5C930.3 522.7 930.6 534.5 933.2 540.8C934.5 543.9 936.2 545.5 938.4 545.7C939.8 545.8 941.3 545.2 942.9 544C941.8 559.8 944 576.3 946.7 589.9C953.1 621.8 965.4 651.2 974.1 666.8C974.2 667.1 974.3 667.3 974.6 667.6C977.5 670.4 1002.1 671 1056.8 669.5L1059.4 669.4H1059.5C1065 668.6 1070.3 665.7 1074.1 661.6C1075.3 664.1 1075.9 666.2 1075.6 667.7C1075.4 668.3 1075.1 668.8 1074.6 669.1C1038.8 677 915.2 673.1 906.6 671.1C880.7 647.3 861.8 641 839.8 633.6C834.4 631.9 828.8 629.8 823.4 627.7C809.9 622.5 798.2 618 793.7 622.5C791.2 625.1 791.4 630.1 794.6 638.2C798 646.8 804.2 654.1 809.7 660.5C817.1 669.2 823.4 676.7 822.1 685.4C820.9 693.5 812.6 702.2 797 712.2L798.1 713.9C814.5 703.5 822.8 694.6 824.1 686C825.6 676.4 818.6 668.2 811.2 659.5C805.6 652.9 799.8 646 796.5 637.7C793.7 630.7 793.2 626.1 795.1 624.2C798.6 620.7 810.3 625.2 822.6 629.9C828 631.9 833.7 634.1 839.1 635.8C861.7 643.5 879.6 649.5 905.3 673.1L905.5 673.3L905.7 673.4C909.2 674.5 943.6 675.9 978.8 676.2C1005.7 676.5 1054 676.1 1075.1 671.4L1075.3 671.3L1075.5 671.2C1076.6 670.6 1077.3 669.6 1077.6 668.4C1078.1 666.3 1077.2 663.4 1075.6 660.2C1075.9 659.8 1076.2 659.4 1076.4 659C1076.8 659.7 1077.3 660.3 1078.1 660.6C1079.2 660.9 1080.2 660.3 1081.1 659.7L1081.2 659.6C1086.2 655.7 1090.5 649.7 1094.5 643.9C1099.7 636.5 1105.1 628.8 1112.1 625.7C1112.8 625.5 1113.5 625.3 1114.3 625.1C1122 623.2 1133.8 620.3 1144 616.5C1147.3 615.3 1150.1 614.1 1152.5 612.8C1157 613.3 1161.8 614.2 1166.6 615.5L1166.8 615.6H1167C1181.6 614.6 1196.3 610.8 1213.3 606.4C1221 604.4 1228.9 602.4 1237.4 600.4C1241.5 599.3 1245.1 598.4 1248.2 597.6C1258.1 595.2 1263.5 593.6 1267.4 589C1286.4 592.1 1304 595.2 1318.3 597.8H1318.4C1325 598.6 1324.9 600.2 1324.4 604.2C1324 607.7 1323.5 612.3 1327.6 617.8C1330.2 621.7 1343.1 625.2 1355 625.2C1360.3 625.2 1365.5 624.5 1369.4 622.8C1375.2 620.3 1377.6 615.8 1376.3 609.9C1376.2 609.5 1376.2 608.7 1376.2 607.7C1377 607.6 1377.7 607.8 1378.3 608L1378.5 608.1H1378.7C1384.6 608.6 1391.8 610.4 1400.2 612.5C1428.7 619.7 1467.8 629.5 1494.4 592.9L1492.8 591.7C1466.4 627.8 1428.1 618.2 1400.1 611.1ZM1335 566.5L1335.1 566.4L1335.2 566.3C1338.8 561.7 1337.7 556.7 1336.7 552.3C1335.7 548 1334.9 544.3 1337.9 541.2C1346.8 536.5 1354.1 535.7 1358 539C1361.9 542.4 1362.1 549.6 1358.7 559.3L1358.6 559.7L1358.7 560.1C1360.1 564.2 1361.8 567.1 1363.1 569.2C1363.9 570.6 1364.8 572.1 1364.6 572.6C1364.1 573.6 1358.1 574.1 1352.7 574.5C1348.2 574 1344.4 573.5 1341 573C1336.7 572.4 1333.4 571.9 1330.8 571.9C1330.6 571.9 1330.5 571.9 1330.4 571.8C1331.1 570 1333.1 568 1335 566.5ZM1188.7 514.1C1187.3 512.9 1186.2 509.7 1186.9 504.9C1187.6 503.9 1188.1 503.5 1188.3 503.4C1188.7 504.4 1188.7 507.8 1188.7 510.5C1188.7 511.7 1188.7 512.9 1188.7 514.1ZM1237.3 562.9C1237.2 562.5 1237.4 562.4 1237.5 562.3C1239.5 560.4 1252.5 563.8 1258.4 566.3C1254.4 567.7 1245.1 565.6 1237.3 562.9ZM1246.6 587.6C1209.8 598 1209.8 598 1160.3 586.4L1158.1 585.9C1151.3 583.4 1139.9 581.6 1129 579.8C1120 578.4 1106.5 576.2 1105.5 574.5C1105.8 573.8 1108.6 571.7 1129.6 568H1129.7C1133.4 567.1 1136.7 567.7 1142.8 568.8C1162.1 572.4 1191.2 577.1 1221.9 582.1C1231.3 583.6 1240.8 585.2 1250.1 586.7L1246.6 587.6ZM1025.2 446.7C1023.9 431.4 1029.9 413.2 1036.4 405.8C1038.1 403.8 1039.8 402.7 1041.2 402.6C1044.3 402.4 1044.9 402.8 1045 403C1045.3 403.4 1044.6 405.2 1044 406.9C1041.3 414.2 1035.6 429.4 1046.3 459.2C1046.9 460.7 1047.6 461.4 1048.6 461.5C1048.7 461.5 1048.7 461.5 1048.7 461.5C1051.1 461.5 1053.5 457 1057 449.7C1058.4 446.9 1059.6 444.2 1060.8 442.3C1062 440.4 1062.7 439.8 1063 439.7C1063.3 440.4 1064 443.8 1060 457.8C1049.6 494 1033.9 514.2 1026.7 518C1026 516.3 1025.4 514.6 1024.8 512.9C1023.1 508.3 1021.3 503.7 1019.4 499.3C1028.3 483.1 1026.8 466.2 1025.2 446.7ZM1058.8 667.8L1056.2 667.9C1045.6 668.2 1025.8 668.8 1008.6 668.8C981.7 668.7 976.5 667.4 975.5 666.7L975.3 666.5C960.1 639.2 940.9 584 944.5 542.5C946.8 540.2 949.2 536.7 951.9 531.9L952 531.8C965.3 501.9 989.7 497.1 1001.5 494.7C1006 493.8 1008.3 493.3 1008.6 491.7C1008.9 490.4 1007.5 489.2 1005.1 487.8L1004.9 487.6H1004.6C980 486.1 962.4 493.6 952.2 509.8C946.5 518.9 943.6 529.9 942.5 541.5C940.3 543.7 938.8 544.1 937.9 544C936.6 543.9 935.5 542.7 934.5 540.4C931.6 533.2 931.4 518.2 933 503.7C934.7 499.1 936.7 494.6 939 490.2L939.1 490.1C945.6 472.1 955.1 457.1 964.3 442.6C980.3 417.3 995.5 393.4 995.6 355C996.5 346.5 999 339.4 1001.6 332C1003.7 326.1 1005.8 320 1007.5 312.5L1007.6 312.4V312.3C1007.6 311.1 1007.5 308.5 1005.8 308.4C1004.6 308.3 1001.8 308 988.8 346.3C981.9 366.4 975.5 388.1 973.8 396.7C968.7 412.4 961.3 426.5 953.5 441.5C949.1 449.9 944.6 458.6 940.5 467.7C935.9 473 932.7 489.5 931.3 502.1C931.3 502.5 931.2 502.8 931.2 503.2C922 528.3 921.3 554.8 920.6 578.7C919.9 606.2 919.3 628 905.6 636.7C892.8 644.8 868.9 641 830.3 624.4L830.1 624.3C828.1 623.8 826.2 622.3 824.8 619.9C814.3 602.4 823.8 544 827.1 530.6C833.2 509.4 840.3 490.7 846.6 474.2C856 449.4 864.1 428.1 866.6 405.7C870.3 381.6 875.8 350.6 885.3 323.5C896.4 292.1 910.9 272.2 928.5 264.7C946.4 256.9 968.1 261.6 992.9 278.7C995.4 281 1000.6 281.5 1006.1 282C1013.2 282.6 1020.5 283.3 1021.8 287.7C1022.5 293.4 1018.7 299.2 1015.3 304.3C1012.5 308.5 1010.1 312.1 1010.3 315.3C1010 318 1009.6 320.4 1009.3 322.8C1008.4 329.1 1007.5 335 1008.5 343.4V343.5C1013 365.6 1009.7 373.4 1005.8 382.4C1003.5 387.8 1000.8 393.9 999.7 403.8L998.7 404.6C988.9 413 975.4 424.4 972.9 439.8V440C972.6 450.8 981.9 458.7 990.9 466.3C995.3 470.1 999.9 473.9 1003.2 478L1003.3 478.1C1009.8 484.8 1013.9 491.7 1017.2 499C1017.1 499.1 1017.1 499.2 1017 499.3L1016.8 499.7L1017 500.1C1029.2 538.3 1031 575.7 1032.3 603C1033 617.6 1033.6 629.1 1035.4 637.2C1035.6 640.8 1036.4 642.7 1037.9 643.4C1040 644.4 1042.6 642.6 1046 640.3C1049.4 638 1053.3 635.3 1057.4 635.1C1058.9 639 1062.2 643.9 1065.6 649.1C1068 652.7 1070.6 656.6 1072.4 660C1069.1 664.2 1064.1 667.1 1058.8 667.8ZM945 538.8C946.3 528.3 949.1 518.7 954.1 510.9C963.1 496.7 978.1 489.5 998.9 489.5C1000.7 489.5 1002.6 489.6 1004.4 489.6C1005.8 490.5 1006.4 491 1006.6 491.2C1005.9 491.7 1003.4 492.1 1001.3 492.6C989.2 495 964.1 500 950.3 530.8C948.3 534.2 946.5 536.8 945 538.8ZM934.2 495.8C936 483.3 939 472.5 942.1 468.9L942.2 468.8L942.3 468.6C946.4 459.5 950.9 450.8 955.3 442.3C963.1 427.2 970.6 413 975.7 397.1L975.8 397C977.4 388.9 983.6 367.8 990.3 348.1C999.1 321.9 1003.8 312.4 1005.5 310.6C1005.6 310.9 1005.6 311.4 1005.7 312.1C1004 319.5 1001.9 325.4 999.9 331.2C997.3 338.8 994.7 345.9 993.8 354.7V354.8C993.7 392.6 978.7 416.2 962.8 441.3C953.6 455.8 944.1 470.9 937.5 489.1C936.2 491.5 935.1 493.7 934.2 495.8ZM1074 658.4C1072.2 655.2 1069.9 651.7 1067.5 648.1C1064.5 643.6 1061.4 638.9 1059.8 635.3C1060.3 635.4 1060.7 635.5 1061.1 635.7C1066.4 637.6 1071.1 644.7 1075 656.9C1074.7 657.4 1074.3 657.9 1074 658.4ZM1113.4 623.4C1112.6 623.6 1111.8 623.8 1111.1 624L1110.9 624.1C1103.3 627.5 1097.7 635.4 1092.3 643.1C1088.3 648.8 1084.2 654.6 1079.4 658.3C1078.7 658.8 1078.3 659 1078.1 658.9C1078.1 658.9 1077.8 658.8 1077.3 657.8C1077.2 657.6 1077.1 657.4 1077.1 657.1C1097.1 625.1 1119.5 610.9 1148 612.9C1137.1 617.5 1121.8 621.3 1113.4 623.4ZM1151.8 611.1C1137.4 609.6 1124.5 611.9 1112.7 618.1C1099.5 625.1 1087.6 637 1076.4 654.6C1072.3 642.6 1067.5 635.8 1061.8 633.8C1060.9 633.5 1060.1 633.3 1059.3 633.2C1068.8 619.2 1082.6 605.9 1096.6 597.5C1109.3 589.8 1128.5 582.4 1147.8 590.6C1156.9 594.4 1161.6 598.4 1161.3 602C1161 605.3 1157.2 608.3 1151.8 611.1ZM1231 511.7C1231.1 511.7 1231.3 511.6 1231.5 511.7C1230 517.6 1226.5 523.2 1225.3 523C1225.3 523 1224.9 522.9 1224.6 521.6C1224.7 521.3 1224.9 521.1 1225.1 520.7C1226.1 518.8 1227.2 516.6 1228.3 514.4C1229.2 513 1230.1 511.9 1231 511.7ZM1196.6 483C1197.4 482.2 1198.4 481.9 1199.5 482.2L1200.2 482.4L1200.6 481.8C1204.2 477.1 1209.9 474.8 1216.5 475.5C1223.2 476.2 1229 480 1231.4 485.1C1234.1 494.6 1230.4 504.9 1226.3 513.5C1225.5 514.6 1224.8 515.9 1224 517.4C1223.9 515.5 1224 512.9 1224.3 509.5C1226.4 500.4 1224.8 492.6 1220 488.4C1216.7 485.6 1212.4 484.9 1208 486.6C1201.4 489.2 1196.3 496.5 1193.4 506.8C1192.7 499.8 1192.7 486.7 1196.6 483ZM1193.5 517.7L1193.6 517.5C1195.3 502.5 1201.1 491.7 1209 488.6C1212.6 487.2 1216.2 487.7 1218.9 490.1C1223.1 493.7 1224.4 500.9 1222.5 509.2V509.4C1222 515 1222.1 518.6 1222.4 520.9C1222.3 521.1 1222.2 521.3 1222.1 521.4C1217.8 529.8 1212.9 539.3 1206.7 537.4L1206.5 537.3L1206.2 537.2C1202.1 537.8 1198.9 537 1196.5 534.9C1193.7 532.4 1192.2 528.2 1191.5 523.8C1192.1 521.8 1192.7 519.8 1193.5 517.7ZM1191.7 515.7C1191.6 516.2 1191.5 516.7 1191.5 517.2C1191.3 517.8 1191.1 518.3 1190.9 518.9C1190.8 518 1190.8 517.1 1190.7 516.3C1191.2 516.1 1191.4 515.9 1191.7 515.7ZM1266.1 586.9C1266 587 1265.9 587.1 1265.9 587.2C1263.2 586.7 1260.4 586.3 1257.6 585.8C1260.4 584 1262.5 581.4 1263.4 578.3C1264.6 574.3 1263.8 570.2 1261.2 566.8C1261.7 566.2 1262 565.5 1262 564.8C1263.6 558.5 1266 549.7 1268.5 540.3C1272.5 525.7 1277 509 1280.1 495.7C1285.3 474 1284.5 471.3 1283.2 470.4C1282.9 470.2 1282.3 469.9 1281.5 470.3C1270.9 469.7 1255.7 468.3 1239.5 466.9C1221.1 465.3 1202.2 463.6 1187.1 462.7C1164.2 461.4 1160 462.7 1158.9 464.2C1158.6 464.6 1158.5 465.1 1158.6 465.6C1153.3 484.7 1148.6 499.6 1145.2 510.6C1138.6 531.7 1135.9 540.4 1139.1 544.5C1141.7 547.8 1147.8 547.3 1158.9 546.4C1164.1 546 1170.5 545.5 1178.2 545.2H1178.3C1180.8 545 1182.9 544.9 1184.6 544.9C1184.5 548 1185 550.2 1186.4 551.1L1186.7 551.3H1187.1C1190.6 551.1 1193.5 549.8 1194.3 548C1194.8 547.2 1194.7 546.3 1194.1 545.5C1193.1 544.1 1190.6 543.2 1186.8 542.9C1187.2 539.3 1188.2 534.3 1190.1 527.7C1191.1 531.2 1192.5 534.2 1195 536.3C1197.8 538.7 1201.5 539.7 1206.1 539.1C1211 540.4 1215 536.7 1218.4 531.5C1218.2 532.1 1218 532.7 1217.9 533.2C1216.7 537.4 1215.1 543 1213.3 547.4C1209.8 546.1 1206.8 545.6 1205.1 546.2C1203.8 546.7 1203.1 547.9 1203.1 549.5V549.7L1203.2 549.9C1204.9 554.4 1206.6 556.5 1208.7 556.5H1208.8C1210.9 556.4 1212.8 554.1 1214.5 550.1C1216.7 551 1219.1 552.2 1221.7 553.7C1227.4 556.9 1231.3 559.9 1232.6 561.3C1232.4 561.3 1232.1 561.2 1231.8 561.1H1231.7C1185.3 553.7 1160.4 549.9 1148.1 548.7C1136.2 547.6 1134.7 548.9 1133.3 552.8C1131.9 556.9 1129.2 564.4 1084.7 571.3H1084.6C1080.2 572.4 1074.3 573.6 1068.5 574.7C1051.3 578.1 1048.5 578.9 1048.5 580.8C1048.5 582.1 1050.1 582.4 1051.1 582.6C1055.6 584.5 1063.6 585.7 1071.3 586.8C1080.3 588.1 1091.5 589.7 1092.6 592.3C1092.7 592.4 1092.8 592.7 1092.4 593.3C1089 593.8 1081.6 592.2 1074.4 590.6C1070.3 589.7 1066.2 588.8 1062.8 588.3C1053.8 586.8 1047.2 585.4 1043 583.9C1037.9 582.2 1037.7 581.1 1037.7 580.9C1037.7 580.5 1038.3 578.7 1049.6 575.9C1057.2 574 1067.3 572.2 1077.9 570.3C1104.6 565.5 1122.3 562 1124.4 557L1124.5 556.9C1127.8 547.2 1131.7 533.6 1135.8 519.2C1142 497.7 1148.9 473.3 1156.3 453.5L1156.4 453.2L1156.3 452.9C1156.2 452.6 1156.3 452.4 1156.5 452.2C1157.8 450.8 1162.8 450.3 1169 450.3C1174.6 450.3 1181.3 450.7 1186.6 450.9C1192.3 451.2 1197.8 451.5 1202.1 451.5C1211 452.1 1222.4 452.5 1234.6 453C1248.9 453.5 1263.6 454.1 1275.2 454.9C1292.3 456.2 1294.9 457.7 1295.2 458.2V458.3C1296.2 470.2 1290.9 492 1286.3 511.1C1284.2 520 1282.1 528.4 1280.8 535.6C1279.4 541.4 1278.1 546.6 1277 551.3C1272.2 571.5 1269.8 581.4 1266.1 586.9ZM1186.9 545C1191.6 545.4 1192.5 546.5 1192.7 546.7C1192.8 546.9 1192.8 547 1192.7 547.2C1192.2 548.1 1190.4 549.1 1187.6 549.3C1187.1 548.6 1186.8 547.3 1186.9 545ZM1212.7 549.6C1211.4 552.6 1210.1 554.6 1208.8 554.7C1208.3 554.7 1207 554.2 1205.2 549.6C1205.3 548.8 1205.6 548.5 1206.3 548.3C1207.7 548.2 1209.9 548.6 1212.7 549.6ZM1374 602.5C1373.9 604 1373.8 605.3 1373.7 606.4C1370.8 607 1367.3 608.6 1363.6 610.4C1353.4 615.2 1341.9 620.6 1332.6 610.3L1332 608.3C1326.5 587.4 1323.9 577.9 1326.4 575C1326.8 574.6 1327.3 574.3 1327.9 574.1C1328 574.5 1328.2 574.9 1328.4 575.3C1333 583.2 1365.4 579.8 1372 577.4C1372.3 577.3 1372.5 577.5 1372.7 577.6C1375.4 579.9 1374.5 594.7 1374 602.5Z" fill="url(#paint0_linear_1_2)"/>
</g>
<defs>
<linearGradient id="paint0_linear_1_2" x1="1287.45" y1="93.7535" x2="1287.45" y2="714.38" gradientUnits="userSpaceOnUse">
<stop stop-color="#00A6D1"/>
<stop offset="1" stop-color="#005970"/>
</linearGradient>
<clipPath id="clip0_1_2">
<rect width="1158" height="762" fill="white" transform="translate(762)"/>
</clipPath>
</defs>
</svg>
