<svg width="24" height="24" viewBox="0 0 24 24" fill="none" xmlns="http://www.w3.org/2000/svg">
<path fill-rule="evenodd" clip-rule="evenodd" d="M10.7215 2.26954C11.4132 1.52946 12.5869 1.52946 13.2786 2.26954L15.1078 4.2268C15.1571 4.27953 15.2268 4.30839 15.2989 4.30595L17.9764 4.21546C18.9888 4.18125 19.8187 5.01115 19.7845 6.02357L19.694 8.70106C19.6916 8.7732 19.7205 8.84287 19.7732 8.89215L21.7304 10.7214C22.4705 11.4131 22.4705 12.5868 21.7304 13.2785L19.7732 15.1078C19.7205 15.1571 19.6916 15.2267 19.694 15.2989L19.7845 17.9764C19.8187 18.9888 18.9888 19.8187 17.9764 19.7845L15.2989 19.694C15.2268 19.6915 15.1571 19.7204 15.1078 19.7731L13.2786 21.7304C12.5869 22.4705 11.4132 22.4705 10.7215 21.7304L8.89221 19.7731C8.84293 19.7204 8.77326 19.6915 8.70112 19.694L6.02363 19.7845C5.01121 19.8187 4.18131 18.9888 4.21552 17.9764L4.30601 15.2989C4.30845 15.2267 4.27959 15.1571 4.22686 15.1078L2.2696 13.2785C1.52952 12.5868 1.52952 11.4131 2.2696 10.7214L4.22686 8.89215C4.27959 8.84287 4.30845 8.7732 4.30601 8.70106L4.21552 6.02357C4.18131 5.01115 5.01121 4.18125 6.02363 4.21546L8.70112 4.30595C8.77326 4.30839 8.84293 4.27953 8.89221 4.2268L10.7215 2.26954ZM12.1827 3.29377C12.0839 3.18805 11.9162 3.18805 11.8174 3.29377L9.98809 5.25103C9.6431 5.62015 9.15541 5.82216 8.65046 5.80509L5.97297 5.71461C5.82834 5.70972 5.70978 5.82827 5.71467 5.97291L5.80515 8.6504C5.82222 9.15535 5.62021 9.64304 5.25109 9.98803L3.29383 11.8173C3.18811 11.9161 3.18811 12.0838 3.29383 12.1826L5.25109 14.0119C5.62021 14.3569 5.82222 14.8446 5.80515 15.3495L5.71467 18.027C5.70978 18.1717 5.82834 18.2902 5.97297 18.2853L8.65046 18.1948C9.15541 18.1778 9.6431 18.3798 9.98809 18.7489L11.8174 20.7062C11.9162 20.8119 12.0839 20.8119 12.1827 20.7062L14.012 18.7489C14.3569 18.3798 14.8446 18.1778 15.3496 18.1948L18.0271 18.2853C18.1717 18.2902 18.2903 18.1717 18.2854 18.027L18.1949 15.3495C18.1778 14.8446 18.3798 14.3569 18.749 14.0119L20.7062 12.1826C20.8119 12.0838 20.8119 11.9161 20.7062 11.8173L18.749 9.98803C18.3798 9.64304 18.1778 9.15535 18.1949 8.65039L18.2854 5.97291C18.2903 5.82828 18.1717 5.70972 18.0271 5.71461L15.3496 5.80509C14.8446 5.82216 14.3569 5.62015 14.012 5.25103L12.1827 3.29377Z" fill="#03AC9F"/>
<path d="M12 6.78573C12 6.50958 12.2243 6.28345 12.4994 6.30757C13.8319 6.42443 15.0873 7.00611 16.0406 7.9594C17.1122 9.03104 17.7143 10.4845 17.7143 12C17.7143 13.5155 17.1122 14.969 16.0406 16.0406C15.0873 16.9939 13.8319 17.5756 12.4994 17.6924C12.2243 17.7166 12 17.4904 12 17.2143L12 12L12 6.78573Z" fill="#03AC9F"/>
</svg>
