<svg width="24" height="24" viewBox="0 0 24 24" fill="none" xmlns="http://www.w3.org/2000/svg">
<path fill-rule="evenodd" clip-rule="evenodd" d="M5 2.75C4.30964 2.75 3.75 3.30964 3.75 4V20C3.75 20.6904 4.30964 21.25 5 21.25H19C19.6904 21.25 20.25 20.6904 20.25 20V8.31066L14.6893 2.75H5ZM2.25 4C2.25 2.48122 3.48122 1.25 5 1.25H14.7929C15.1244 1.25 15.4424 1.3817 15.6768 1.61612L21.3839 7.32322C21.6183 7.55764 21.75 7.87559 21.75 8.20711V20C21.75 21.5188 20.5188 22.75 19 22.75H5C3.48122 22.75 2.25 21.5188 2.25 20V4Z" fill="#03AC9F"/>
<path fill-rule="evenodd" clip-rule="evenodd" d="M14.25 2.24147C14.25 1.4842 15.1656 1.10496 15.701 1.64043L21.3596 7.29901C21.8951 7.83448 21.5159 8.75005 20.7586 8.75005H15.1C14.6306 8.75005 14.25 8.36949 14.25 7.90005V2.24147ZM15.75 3.81071V7.25005H19.1893L15.75 3.81071Z" fill="#03AC9F"/>
</svg>
