<svg width="24" height="24" viewBox="0 0 24 24" fill="none" xmlns="http://www.w3.org/2000/svg">
<path fill-rule="evenodd" clip-rule="evenodd" d="M10.8873 2.32102C10.8403 1.57826 11.7737 1.06518 12.3536 1.68446C13.6374 3.05544 14.4738 4.49072 14.8034 6.36491C15.0659 7.85744 14.9996 9.58943 14.6378 11.7352C14.8958 11.4699 15.1376 11.1605 15.3542 10.818C15.8806 9.98554 16.2065 9.03701 16.26 8.23052C16.285 7.85424 16.5417 7.57462 16.846 7.475C17.1611 7.37185 17.5634 7.45449 17.8006 7.79351C18.3845 8.62793 18.9176 9.91297 19.2755 11.2611C19.6346 12.6133 19.8417 14.1192 19.7101 15.4094C19.3413 19.0264 16.6357 22.75 11.8282 22.75C7.83817 22.75 5.31732 20.5603 4.52085 17.7269C3.73844 14.9434 4.65178 11.6452 7.23794 9.43035C9.18562 7.76229 10.0888 6.94176 10.5399 6.07974C10.9637 5.26984 11.0161 4.35727 10.8873 2.32102ZM12.4456 4.24838C12.4182 5.21867 12.2671 6.01439 11.8689 6.77519C11.2531 7.95204 10.0737 8.97664 8.21365 10.5696L8.21364 10.5697C6.05473 12.4186 5.3463 15.1203 5.96488 17.3209C6.56941 19.4715 8.4723 21.25 11.8282 21.25C15.6822 21.25 17.9069 18.3069 18.2179 15.2572C18.3247 14.2096 18.1578 12.8964 17.8258 11.6461C17.6857 11.1187 17.5206 10.6184 17.3431 10.1683C17.1547 10.6721 16.91 11.1642 16.622 11.6197C15.9878 12.6226 15.0916 13.5283 14.0119 13.9663C13.3162 14.2485 12.7422 13.5951 12.868 13.0022C13.4687 10.1711 13.6006 8.18605 13.3261 6.62469C13.1705 5.73982 12.8808 4.97196 12.4456 4.24838Z" fill="#03AC9F"/>
</svg>
